[
 "<meta message track_name name='Bass (right)' time=0>",
 "<meta message instrument_name name='Acco Bass 1' time=0>",
 "<meta message midi_port port=0 time=0>",
 "control_change channel=8 control=32 value=0 time=0",
 "control_change channel=8 control=0 value=126 time=0",
 "program_change channel=8 program=28 time=0",
 "note_on channel=8 note=28 velocity=127 time=0E1",
 "control_change channel=8 control=7 value=100 time=0",
 "control_change channel=8 control=10 value=97 time=0",
 "control_change channel=8 control=91 value=85 time=0",
 "control_change channel=8 control=93 value=78 time=0",
 "note_on channel=8 note=28 velocity=0 time=120E1",
 "note_on channel=8 note=38 velocity=127 time=360D2",
 "note_on channel=8 note=38 velocity=0 time=120D2",
 "note_on channel=8 note=37 velocity=127 time=0CSHARP2",
 "note_on channel=8 note=37 velocity=0 time=120CSHARP2",
 "note_on channel=8 note=36 velocity=127 time=0C2",
 "note_on channel=8 note=36 velocity=0 time=720C2",
 "note_on channel=8 note=28 velocity=127 time=0E1",
 "note_on channel=8 note=28 velocity=0 time=120E1",
 "note_on channel=8 note=29 velocity=127 time=1680F1",
 "note_on channel=8 note=29 velocity=0 time=120F1",
 "note_on channel=8 note=28 velocity=127 time=0E1",
 "note_on channel=8 note=28 velocity=0 time=120E1",
 "note_on channel=8 note=38 velocity=127 time=360D2",
 "note_on channel=8 note=38 velocity=0 time=120D2",
 "note_on channel=8 note=37 velocity=127 time=0CSHARP2",
 "note_on channel=8 note=37 velocity=0 time=120CSHARP2",
 "note_on channel=8 note=36 velocity=127 time=0C2",
 "note_on channel=8 note=36 velocity=0 time=240C2",
 "note_on channel=8 note=29 velocity=127 time=840F1",
 "note_on channel=8 note=29 velocity=0 time=120F1",
 "note_on channel=8 note=28 velocity=127 time=0E1",
 "note_on channel=8 note=28 velocity=0 time=120E1",
 "note_on channel=8 note=38 velocity=127 time=360D2",
 "note_on channel=8 note=38 velocity=0 time=120D2",
 "note_on channel=8 note=37 velocity=127 time=0CSHARP2",
 "note_on channel=8 note=37 velocity=0 time=120CSHARP2",
 "note_on channel=8 note=36 velocity=127 time=0C2",
 "note_on channel=8 note=36 velocity=0 time=240C2",
 "note_on channel=8 note=29 velocity=127 time=840F1",
 "note_on channel=8 note=29 velocity=0 time=120F1",
 "note_on channel=8 note=28 velocity=127 time=0E1",
 "note_on channel=8 note=28 velocity=0 time=120E1",
 "note_on channel=8 note=38 velocity=127 time=360D2",
 "note_on channel=8 note=38 velocity=0 time=120D2",
 "note_on channel=8 note=37 velocity=127 time=0CSHARP2",
 "note_on channel=8 note=37 velocity=0 time=120CSHARP2",
 "note_on channel=8 note=36 velocity=127 time=0C2",
 "note_on channel=8 note=36 velocity=0 time=240C2",
 "note_on channel=8 note=36 velocity=127 time=120C2",
 "note_on channel=8 note=36 velocity=0 time=60C2",
 "note_on channel=8 note=36 velocity=127 time=0C2",
 "note_on channel=8 note=36 velocity=0 time=60C2",
 "note_on channel=8 note=36 velocity=127 time=0C2",
 "note_on channel=8 note=36 velocity=0 time=60C2",
 "note_on channel=8 note=36 velocity=127 time=0C2",
 "note_on channel=8 note=36 velocity=0 time=60C2",
 "note_on channel=8 note=36 velocity=127 time=0C2",
 "note_on channel=8 note=36 velocity=0 time=60C2",
 "note_on channel=8 note=36 velocity=127 time=0C2",
 "note_on channel=8 note=36 velocity=0 time=60C2",
 "note_on channel=8 note=36 velocity=127 time=0C2",
 "note_on channel=8 note=36 velocity=0 time=60C2",
 "note_on channel=8 note=36 velocity=127 time=0C2",
 "note_on channel=8 note=36 velocity=0 time=60C2",
 "note_on channel=8 note=36 velocity=127 time=0C2",
 "note_on channel=8 note=36 velocity=0 time=60C2",
 "note_on channel=8 note=36 velocity=127 time=0C2",
 "note_on channel=8 note=36 velocity=0 time=60C2",
 "note_on channel=8 note=36 velocity=127 time=0C2",
 "note_on channel=8 note=36 velocity=0 time=60C2",
 "note_on channel=8 note=36 velocity=127 time=0C2",
 "note_on channel=8 note=36 velocity=0 time=60C2",
 "note_on channel=8 note=36 velocity=127 time=0C2",
 "note_on channel=8 note=36 velocity=0 time=60C2",
 "note_on channel=8 note=36 velocity=127 time=0C2",
 "note_on channel=8 note=36 velocity=0 time=60C2",
 "note_on channel=8 note=28 velocity=127 time=0E1",
 "note_on channel=8 note=28 velocity=0 time=120E1",
 "note_on channel=8 note=31 velocity=127 time=1320G1",
 "note_on channel=8 note=31 velocity=0 time=60G1",
 "note_on channel=8 note=30 velocity=127 time=0FSHARP1",
 "note_on channel=8 note=30 velocity=0 time=60FSHARP1",
 "note_on channel=8 note=28 velocity=127 time=0E1",
 "note_on channel=8 note=28 velocity=0 time=60E1",
 "note_on channel=8 note=31 velocity=127 time=0G1",
 "note_on channel=8 note=31 velocity=0 time=60G1",
 "note_on channel=8 note=30 velocity=127 time=0FSHARP1",
 "note_on channel=8 note=30 velocity=0 time=60FSHARP1",
 "note_on channel=8 note=28 velocity=127 time=0E1",
 "note_on channel=8 note=28 velocity=0 time=60E1",
 "note_on channel=8 note=31 velocity=127 time=0G1",
 "note_on channel=8 note=31 velocity=0 time=60G1",
 "note_on channel=8 note=30 velocity=127 time=0FSHARP1",
 "note_on channel=8 note=30 velocity=0 time=60FSHARP1",
 "note_on channel=8 note=28 velocity=127 time=0E1",
 "note_on channel=8 note=28 velocity=0 time=120E1",
 "note_on channel=8 note=31 velocity=127 time=1320G1",
 "note_on channel=8 note=31 velocity=0 time=60G1",
 "note_on channel=8 note=30 velocity=127 time=0FSHARP1",
 "note_on channel=8 note=30 velocity=0 time=60FSHARP1",
 "note_on channel=8 note=28 velocity=127 time=0E1",
 "note_on channel=8 note=28 velocity=0 time=60E1",
 "note_on channel=8 note=31 velocity=127 time=0G1",
 "note_on channel=8 note=31 velocity=0 time=60G1",
 "note_on channel=8 note=30 velocity=127 time=0FSHARP1",
 "note_on channel=8 note=30 velocity=0 time=60FSHARP1",
 "note_on channel=8 note=28 velocity=127 time=0E1",
 "note_on channel=8 note=28 velocity=0 time=60E1",
 "note_on channel=8 note=31 velocity=127 time=0G1",
 "note_on channel=8 note=31 velocity=0 time=60G1",
 "note_on channel=8 note=30 velocity=127 time=0FSHARP1",
 "note_on channel=8 note=30 velocity=0 time=60FSHARP1",
 "note_on channel=8 note=28 velocity=127 time=0E1",
 "note_on channel=8 note=28 velocity=0 time=60E1",
 "note_on channel=8 note=29 velocity=127 time=0F1",
 "note_on channel=8 note=29 velocity=0 time=60F1",
 "note_on channel=8 note=35 velocity=127 time=0B1",
 "note_on channel=8 note=35 velocity=0 time=60B1",
 "note_on channel=8 note=28 velocity=127 time=0E1",
 "note_on channel=8 note=28 velocity=0 time=60E1",
 "note_on channel=8 note=29 velocity=127 time=0F1",
 "note_on channel=8 note=29 velocity=0 time=60F1",
 "note_on channel=8 note=36 velocity=127 time=0C2",
 "note_on channel=8 note=36 velocity=0 time=60C2",
 "note_on channel=8 note=28 velocity=127 time=0E1",
 "note_on channel=8 note=28 velocity=0 time=60E1",
 "note_on channel=8 note=29 velocity=127 time=0F1",
 "note_on channel=8 note=29 velocity=0 time=60F1",
 "note_on channel=8 note=37 velocity=127 time=0CSHARP2",
 "note_on channel=8 note=37 velocity=0 time=60CSHARP2",
 "note_on channel=8 note=28 velocity=127 time=0E1",
 "note_on channel=8 note=28 velocity=0 time=60E1",
 "note_on channel=8 note=29 velocity=127 time=0F1",
 "note_on channel=8 note=29 velocity=0 time=60F1",
 "note_on channel=8 note=36 velocity=127 time=0C2",
 "note_on channel=8 note=36 velocity=0 time=60C2",
 "note_on channel=8 note=28 velocity=127 time=0E1",
 "note_on channel=8 note=28 velocity=0 time=60E1",
 "note_on channel=8 note=29 velocity=127 time=0F1",
 "note_on channel=8 note=29 velocity=0 time=60F1",
 "note_on channel=8 note=35 velocity=127 time=0B1",
 "note_on channel=8 note=35 velocity=0 time=60B1",
 "note_on channel=8 note=35 velocity=127 time=0B1",
 "note_on channel=8 note=35 velocity=0 time=60B1",
 "note_on channel=8 note=28 velocity=127 time=0E1",
 "note_on channel=8 note=28 velocity=0 time=60E1",
 "note_on channel=8 note=29 velocity=127 time=0F1",
 "note_on channel=8 note=29 velocity=0 time=60F1",
 "note_on channel=8 note=35 velocity=127 time=0B1",
 "note_on channel=8 note=35 velocity=0 time=60B1",
 "note_on channel=8 note=28 velocity=127 time=0E1",
 "note_on channel=8 note=28 velocity=0 time=60E1",
 "note_on channel=8 note=29 velocity=127 time=0F1",
 "note_on channel=8 note=29 velocity=0 time=60F1",
 "note_on channel=8 note=36 velocity=127 time=0C2",
 "note_on channel=8 note=36 velocity=0 time=60C2",
 "note_on channel=8 note=28 velocity=127 time=0E1",
 "note_on channel=8 note=28 velocity=0 time=60E1",
 "note_on channel=8 note=29 velocity=127 time=0F1",
 "note_on channel=8 note=29 velocity=0 time=60F1",
 "note_on channel=8 note=37 velocity=127 time=0CSHARP2",
 "note_on channel=8 note=37 velocity=0 time=60CSHARP2",
 "note_on channel=8 note=28 velocity=127 time=0E1",
 "note_on channel=8 note=28 velocity=0 time=60E1",
 "note_on channel=8 note=29 velocity=127 time=0F1",
 "note_on channel=8 note=29 velocity=0 time=60F1",
 "note_on channel=8 note=36 velocity=127 time=0C2",
 "note_on channel=8 note=36 velocity=0 time=60C2",
 "note_on channel=8 note=29 velocity=127 time=0F1",
 "note_on channel=8 note=29 velocity=0 time=60F1",
 "note_on channel=8 note=28 velocity=127 time=0E1",
 "note_on channel=8 note=28 velocity=0 time=60E1",
 "note_on channel=8 note=35 velocity=127 time=0B1",
 "note_on channel=8 note=35 velocity=0 time=120B1",
 "note_on channel=8 note=28 velocity=127 time=0E1",
 "note_on channel=8 note=28 velocity=0 time=60E1",
 "note_on channel=8 note=29 velocity=127 time=0F1",
 "note_on channel=8 note=29 velocity=0 time=60F1",
 "note_on channel=8 note=35 velocity=127 time=0B1",
 "note_on channel=8 note=35 velocity=0 time=60B1",
 "note_on channel=8 note=28 velocity=127 time=0E1",
 "note_on channel=8 note=28 velocity=0 time=60E1",
 "note_on channel=8 note=29 velocity=127 time=0F1",
 "note_on channel=8 note=29 velocity=0 time=60F1",
 "note_on channel=8 note=36 velocity=127 time=0C2",
 "note_on channel=8 note=36 velocity=0 time=60C2",
 "note_on channel=8 note=28 velocity=127 time=0E1",
 "note_on channel=8 note=28 velocity=0 time=60E1",
 "note_on channel=8 note=29 velocity=127 time=0F1",
 "note_on channel=8 note=29 velocity=0 time=60F1",
 "note_on channel=8 note=37 velocity=127 time=0CSHARP2",
 "note_on channel=8 note=37 velocity=0 time=60CSHARP2",
 "note_on channel=8 note=28 velocity=127 time=0E1",
 "note_on channel=8 note=28 velocity=0 time=60E1",
 "note_on channel=8 note=29 velocity=127 time=0F1",
 "note_on channel=8 note=29 velocity=0 time=60F1",
 "note_on channel=8 note=36 velocity=127 time=0C2",
 "note_on channel=8 note=36 velocity=0 time=60C2",
 "note_on channel=8 note=28 velocity=127 time=0E1",
 "note_on channel=8 note=28 velocity=0 time=60E1",
 "note_on channel=8 note=29 velocity=127 time=0F1",
 "note_on channel=8 note=29 velocity=0 time=60F1",
 "note_on channel=8 note=35 velocity=127 time=0B1",
 "note_on channel=8 note=35 velocity=0 time=60B1",
 "note_on channel=8 note=35 velocity=127 time=0B1",
 "note_on channel=8 note=35 velocity=0 time=60B1",
 "note_on channel=8 note=28 velocity=127 time=0E1",
 "note_on channel=8 note=28 velocity=0 time=60E1",
 "note_on channel=8 note=29 velocity=127 time=0F1",
 "note_on channel=8 note=29 velocity=0 time=60F1",
 "note_on channel=8 note=35 velocity=127 time=0B1",
 "note_on channel=8 note=35 velocity=0 time=60B1",
 "note_on channel=8 note=28 velocity=127 time=0E1",
 "note_on channel=8 note=28 velocity=0 time=60E1",
 "note_on channel=8 note=29 velocity=127 time=0F1",
 "note_on channel=8 note=29 velocity=0 time=60F1",
 "note_on channel=8 note=36 velocity=127 time=0C2",
 "note_on channel=8 note=36 velocity=0 time=60C2",
 "note_on channel=8 note=29 velocity=127 time=0F1",
 "note_on channel=8 note=29 velocity=0 time=60F1",
 "note_on channel=8 note=28 velocity=127 time=0E1",
 "note_on channel=8 note=28 velocity=0 time=60E1",
 "note_on channel=8 note=31 velocity=127 time=0G1",
 "note_on channel=8 note=31 velocity=0 time=60G1",
 "note_on channel=8 note=30 velocity=127 time=0FSHARP1",
 "note_on channel=8 note=30 velocity=0 time=60FSHARP1",
 "note_on channel=8 note=28 velocity=127 time=0E1",
 "note_on channel=8 note=28 velocity=0 time=60E1",
 "note_on channel=8 note=31 velocity=127 time=0G1",
 "note_on channel=8 note=31 velocity=0 time=60G1",
 "note_on channel=8 note=30 velocity=127 time=0FSHARP1",
 "note_on channel=8 note=30 velocity=0 time=60FSHARP1",
 "note_on channel=8 note=28 velocity=127 time=0E1",
 "note_on channel=8 note=28 velocity=0 time=60E1",
 "note_on channel=8 note=31 velocity=127 time=0G1",
 "note_on channel=8 note=31 velocity=0 time=60G1",
 "note_on channel=8 note=30 velocity=127 time=0FSHARP1",
 "note_on channel=8 note=30 velocity=0 time=60FSHARP1",
 "note_on channel=8 note=28 velocity=127 time=0E1",
 "note_on channel=8 note=28 velocity=0 time=60E1",
 "note_on channel=8 note=29 velocity=127 time=0F1",
 "note_on channel=8 note=29 velocity=0 time=60F1",
 "note_on channel=8 note=35 velocity=127 time=0B1",
 "note_on channel=8 note=35 velocity=0 time=60B1",
 "note_on channel=8 note=28 velocity=127 time=0E1",
 "note_on channel=8 note=28 velocity=0 time=60E1",
 "note_on channel=8 note=29 velocity=127 time=0F1",
 "note_on channel=8 note=29 velocity=0 time=60F1",
 "note_on channel=8 note=36 velocity=127 time=0C2",
 "note_on channel=8 note=36 velocity=0 time=60C2",
 "note_on channel=8 note=28 velocity=127 time=0E1",
 "note_on channel=8 note=28 velocity=0 time=60E1",
 "note_on channel=8 note=29 velocity=127 time=0F1",
 "note_on channel=8 note=29 velocity=0 time=60F1",
 "note_on channel=8 note=37 velocity=127 time=0CSHARP2",
 "note_on channel=8 note=37 velocity=0 time=60CSHARP2",
 "note_on channel=8 note=28 velocity=127 time=0E1",
 "note_on channel=8 note=28 velocity=0 time=60E1",
 "note_on channel=8 note=29 velocity=127 time=0F1",
 "note_on channel=8 note=29 velocity=0 time=60F1",
 "note_on channel=8 note=36 velocity=127 time=0C2",
 "note_on channel=8 note=36 velocity=0 time=60C2",
 "note_on channel=8 note=28 velocity=127 time=0E1",
 "note_on channel=8 note=28 velocity=0 time=60E1",
 "note_on channel=8 note=29 velocity=127 time=0F1",
 "note_on channel=8 note=29 velocity=0 time=60F1",
 "note_on channel=8 note=35 velocity=127 time=0B1",
 "note_on channel=8 note=35 velocity=0 time=60B1",
 "note_on channel=8 note=35 velocity=127 time=0B1",
 "note_on channel=8 note=35 velocity=0 time=60B1",
 "note_on channel=8 note=28 velocity=127 time=0E1",
 "note_on channel=8 note=28 velocity=0 time=60E1",
 "note_on channel=8 note=29 velocity=127 time=0F1",
 "note_on channel=8 note=29 velocity=0 time=60F1",
 "note_on channel=8 note=35 velocity=127 time=0B1",
 "note_on channel=8 note=35 velocity=0 time=60B1",
 "note_on channel=8 note=28 velocity=127 time=0E1",
 "note_on channel=8 note=28 velocity=0 time=60E1",
 "note_on channel=8 note=29 velocity=127 time=0F1",
 "note_on channel=8 note=29 velocity=0 time=60F1",
 "note_on channel=8 note=36 velocity=127 time=0C2",
 "note_on channel=8 note=36 velocity=0 time=60C2",
 "note_on channel=8 note=28 velocity=127 time=0E1",
 "note_on channel=8 note=28 velocity=0 time=60E1",
 "note_on channel=8 note=29 velocity=127 time=0F1",
 "note_on channel=8 note=29 velocity=0 time=60F1",
 "note_on channel=8 note=37 velocity=127 time=0CSHARP2",
 "note_on channel=8 note=37 velocity=0 time=60CSHARP2",
 "note_on channel=8 note=28 velocity=127 time=0E1",
 "note_on channel=8 note=28 velocity=0 time=60E1",
 "note_on channel=8 note=29 velocity=127 time=0F1",
 "note_on channel=8 note=29 velocity=0 time=60F1",
 "note_on channel=8 note=36 velocity=127 time=0C2",
 "note_on channel=8 note=36 velocity=0 time=60C2",
 "note_on channel=8 note=29 velocity=127 time=0F1",
 "note_on channel=8 note=29 velocity=0 time=60F1",
 "note_on channel=8 note=28 velocity=127 time=0E1",
 "note_on channel=8 note=28 velocity=0 time=60E1",
 "note_on channel=8 note=35 velocity=127 time=0B1",
 "note_on channel=8 note=35 velocity=0 time=120B1",
 "note_on channel=8 note=28 velocity=127 time=0E1",
 "note_on channel=8 note=28 velocity=0 time=60E1",
 "note_on channel=8 note=29 velocity=127 time=0F1",
 "note_on channel=8 note=29 velocity=0 time=60F1",
 "note_on channel=8 note=35 velocity=127 time=0B1",
 "note_on channel=8 note=35 velocity=0 time=60B1",
 "note_on channel=8 note=28 velocity=127 time=0E1",
 "note_on channel=8 note=28 velocity=0 time=60E1",
 "note_on channel=8 note=29 velocity=127 time=0F1",
 "note_on channel=8 note=29 velocity=0 time=60F1",
 "note_on channel=8 note=36 velocity=127 time=0C2",
 "note_on channel=8 note=36 velocity=0 time=60C2",
 "note_on channel=8 note=28 velocity=127 time=0E1",
 "note_on channel=8 note=28 velocity=0 time=60E1",
 "note_on channel=8 note=29 velocity=127 time=0F1",
 "note_on channel=8 note=29 velocity=0 time=60F1",
 "note_on channel=8 note=37 velocity=127 time=0CSHARP2",
 "note_on channel=8 note=37 velocity=0 time=60CSHARP2",
 "note_on channel=8 note=28 velocity=127 time=0E1",
 "note_on channel=8 note=28 velocity=0 time=60E1",
 "note_on channel=8 note=29 velocity=127 time=0F1",
 "note_on channel=8 note=29 velocity=0 time=60F1",
 "note_on channel=8 note=36 velocity=127 time=0C2",
 "note_on channel=8 note=36 velocity=0 time=60C2",
 "note_on channel=8 note=28 velocity=127 time=0E1",
 "note_on channel=8 note=28 velocity=0 time=60E1",
 "note_on channel=8 note=29 velocity=127 time=0F1",
 "note_on channel=8 note=29 velocity=0 time=60F1",
 "note_on channel=8 note=35 velocity=127 time=0B1",
 "note_on channel=8 note=35 velocity=0 time=60B1",
 "note_on channel=8 note=35 velocity=127 time=0B1",
 "note_on channel=8 note=35 velocity=0 time=60B1",
 "note_on channel=8 note=28 velocity=127 time=0E1",
 "note_on channel=8 note=28 velocity=0 time=60E1",
 "note_on channel=8 note=29 velocity=127 time=0F1",
 "note_on channel=8 note=29 velocity=0 time=60F1",
 "note_on channel=8 note=35 velocity=127 time=0B1",
 "note_on channel=8 note=35 velocity=0 time=60B1",
 "note_on channel=8 note=28 velocity=127 time=0E1",
 "note_on channel=8 note=28 velocity=0 time=60E1",
 "note_on channel=8 note=29 velocity=127 time=0F1",
 "note_on channel=8 note=29 velocity=0 time=60F1",
 "note_on channel=8 note=36 velocity=127 time=0C2",
 "note_on channel=8 note=36 velocity=0 time=60C2",
 "note_on channel=8 note=29 velocity=127 time=0F1",
 "note_on channel=8 note=29 velocity=0 time=60F1",
 "note_on channel=8 note=28 velocity=127 time=0E1",
 "note_on channel=8 note=28 velocity=0 time=60E1",
 "note_on channel=8 note=31 velocity=127 time=0G1",
 "note_on channel=8 note=31 velocity=0 time=60G1",
 "note_on channel=8 note=30 velocity=127 time=0FSHARP1",
 "note_on channel=8 note=30 velocity=0 time=60FSHARP1",
 "note_on channel=8 note=28 velocity=127 time=0E1",
 "note_on channel=8 note=28 velocity=0 time=60E1",
 "note_on channel=8 note=31 velocity=127 time=0G1",
 "note_on channel=8 note=31 velocity=0 time=60G1",
 "note_on channel=8 note=30 velocity=127 time=0FSHARP1",
 "note_on channel=8 note=30 velocity=0 time=60FSHARP1",
 "note_on channel=8 note=28 velocity=127 time=0E1",
 "note_on channel=8 note=28 velocity=0 time=60E1",
 "note_on channel=8 note=31 velocity=127 time=0G1",
 "note_on channel=8 note=31 velocity=0 time=60G1",
 "note_on channel=8 note=30 velocity=127 time=0FSHARP1",
 "note_on channel=8 note=30 velocity=0 time=60FSHARP1",
 "note_on channel=8 note=31 velocity=127 time=0G1",
 "note_on channel=8 note=31 velocity=0 time=60G1",
 "note_on channel=8 note=30 velocity=127 time=0FSHARP1",
 "note_on channel=8 note=30 velocity=0 time=60FSHARP1",
 "note_on channel=8 note=28 velocity=127 time=0E1",
 "note_on channel=8 note=28 velocity=0 time=60E1",
 "note_on channel=8 note=31 velocity=127 time=0G1",
 "note_on channel=8 note=31 velocity=0 time=60G1",
 "note_on channel=8 note=30 velocity=127 time=0FSHARP1",
 "note_on channel=8 note=30 velocity=0 time=60FSHARP1",
 "note_on channel=8 note=28 velocity=127 time=0E1",
 "note_on channel=8 note=28 velocity=0 time=60E1",
 "note_on channel=8 note=31 velocity=127 time=0G1",
 "note_on channel=8 note=31 velocity=0 time=60G1",
 "note_on channel=8 note=30 velocity=127 time=0FSHARP1",
 "note_on channel=8 note=30 velocity=0 time=60FSHARP1",
 "note_on channel=8 note=28 velocity=127 time=0E1",
 "note_on channel=8 note=28 velocity=0 time=120E1",
 "note_on channel=8 note=36 velocity=127 time=720C2",
 "note_on channel=8 note=36 velocity=0 time=120C2",
 "note_on channel=8 note=28 velocity=127 time=0E1",
 "note_on channel=8 note=28 velocity=0 time=60E1",
 "note_on channel=8 note=28 velocity=127 time=0E1",
 "note_on channel=8 note=28 velocity=0 time=60E1",
 "note_on channel=8 note=28 velocity=127 time=0E1",
 "note_on channel=8 note=28 velocity=0 time=60E1",
 "note_on channel=8 note=28 velocity=127 time=0E1",
 "note_on channel=8 note=28 velocity=0 time=60E1",
 "note_on channel=8 note=28 velocity=127 time=0E1",
 "note_on channel=8 note=28 velocity=0 time=60E1",
 "note_on channel=8 note=28 velocity=127 time=0E1",
 "note_on channel=8 note=28 velocity=0 time=60E1",
 "note_on channel=8 note=28 velocity=127 time=0E1",
 "note_on channel=8 note=28 velocity=0 time=60E1",
 "note_on channel=8 note=28 velocity=127 time=0E1",
 "note_on channel=8 note=28 velocity=0 time=60E1",
 "note_on channel=8 note=28 velocity=127 time=0E1",
 "note_on channel=8 note=28 velocity=0 time=60E1",
 "note_on channel=8 note=31 velocity=127 time=0G1",
 "note_on channel=8 note=31 velocity=0 time=60G1",
 "note_on channel=8 note=33 velocity=127 time=0A1",
 "note_on channel=8 note=33 velocity=0 time=60A1",
 "note_on channel=8 note=28 velocity=127 time=0E1",
 "note_on channel=8 note=28 velocity=0 time=60E1",
 "note_on channel=8 note=34 velocity=127 time=0BFLAT1",
 "note_on channel=8 note=34 velocity=0 time=60BFLAT1",
 "note_on channel=8 note=33 velocity=127 time=0A1",
 "note_on channel=8 note=33 velocity=0 time=60A1",
 "note_on channel=8 note=31 velocity=127 time=0G1",
 "note_on channel=8 note=31 velocity=0 time=60G1",
 "note_on channel=8 note=33 velocity=127 time=0A1",
 "note_on channel=8 note=33 velocity=0 time=60A1",
 "note_on channel=8 note=28 velocity=127 time=0E1",
 "note_on channel=8 note=28 velocity=0 time=60E1",
 "note_on channel=8 note=28 velocity=127 time=0E1",
 "note_on channel=8 note=28 velocity=0 time=60E1",
 "note_on channel=8 note=28 velocity=127 time=0E1",
 "note_on channel=8 note=28 velocity=0 time=60E1",
 "note_on channel=8 note=28 velocity=127 time=0E1",
 "note_on channel=8 note=28 velocity=0 time=60E1",
 "note_on channel=8 note=28 velocity=127 time=0E1",
 "note_on channel=8 note=28 velocity=0 time=60E1",
 "note_on channel=8 note=28 velocity=127 time=0E1",
 "note_on channel=8 note=28 velocity=0 time=60E1",
 "note_on channel=8 note=28 velocity=127 time=0E1",
 "note_on channel=8 note=28 velocity=0 time=60E1",
 "note_on channel=8 note=28 velocity=127 time=0E1",
 "note_on channel=8 note=28 velocity=0 time=60E1",
 "note_on channel=8 note=28 velocity=127 time=0E1",
 "note_on channel=8 note=28 velocity=0 time=60E1",
 "note_on channel=8 note=31 velocity=127 time=0G1",
 "note_on channel=8 note=31 velocity=0 time=60G1",
 "note_on channel=8 note=33 velocity=127 time=0A1",
 "note_on channel=8 note=33 velocity=0 time=60A1",
 "note_on channel=8 note=31 velocity=127 time=0G1",
 "note_on channel=8 note=31 velocity=0 time=60G1",
 "note_on channel=8 note=33 velocity=127 time=0A1",
 "note_on channel=8 note=33 velocity=0 time=60A1",
 "note_on channel=8 note=28 velocity=127 time=0E1",
 "note_on channel=8 note=28 velocity=0 time=60E1",
 "note_on channel=8 note=28 velocity=127 time=0E1",
 "note_on channel=8 note=28 velocity=0 time=60E1",
 "note_on channel=8 note=28 velocity=127 time=0E1",
 "note_on channel=8 note=28 velocity=0 time=60E1",
 "note_on channel=8 note=28 velocity=127 time=0E1",
 "note_on channel=8 note=28 velocity=0 time=60E1",
 "note_on channel=8 note=28 velocity=127 time=0E1",
 "note_on channel=8 note=28 velocity=0 time=60E1",
 "note_on channel=8 note=28 velocity=127 time=0E1",
 "note_on channel=8 note=28 velocity=0 time=60E1",
 "note_on channel=8 note=28 velocity=127 time=0E1",
 "note_on channel=8 note=28 velocity=0 time=60E1",
 "note_on channel=8 note=28 velocity=127 time=0E1",
 "note_on channel=8 note=28 velocity=0 time=60E1",
 "note_on channel=8 note=28 velocity=127 time=0E1",
 "note_on channel=8 note=28 velocity=0 time=60E1",
 "note_on channel=8 note=31 velocity=127 time=0G1",
 "note_on channel=8 note=31 velocity=0 time=60G1",
 "note_on channel=8 note=33 velocity=127 time=0A1",
 "note_on channel=8 note=33 velocity=0 time=60A1",
 "note_on channel=8 note=28 velocity=127 time=0E1",
 "note_on channel=8 note=28 velocity=0 time=60E1",
 "note_on channel=8 note=34 velocity=127 time=0BFLAT1",
 "note_on channel=8 note=34 velocity=0 time=60BFLAT1",
 "note_on channel=8 note=33 velocity=127 time=0A1",
 "note_on channel=8 note=33 velocity=0 time=60A1",
 "note_on channel=8 note=31 velocity=127 time=0G1",
 "note_on channel=8 note=31 velocity=0 time=60G1",
 "note_on channel=8 note=33 velocity=127 time=0A1",
 "note_on channel=8 note=33 velocity=0 time=60A1",
 "note_on channel=8 note=28 velocity=127 time=0E1",
 "note_on channel=8 note=28 velocity=0 time=60E1",
 "note_on channel=8 note=28 velocity=127 time=0E1",
 "note_on channel=8 note=28 velocity=0 time=60E1",
 "note_on channel=8 note=28 velocity=127 time=0E1",
 "note_on channel=8 note=28 velocity=0 time=60E1",
 "note_on channel=8 note=28 velocity=127 time=0E1",
 "note_on channel=8 note=28 velocity=0 time=60E1",
 "note_on channel=8 note=28 velocity=127 time=0E1",
 "note_on channel=8 note=28 velocity=0 time=60E1",
 "note_on channel=8 note=28 velocity=127 time=0E1",
 "note_on channel=8 note=28 velocity=0 time=60E1",
 "note_on channel=8 note=28 velocity=127 time=0E1",
 "note_on channel=8 note=28 velocity=0 time=60E1",
 "note_on channel=8 note=28 velocity=127 time=0E1",
 "note_on channel=8 note=28 velocity=0 time=60E1",
 "note_on channel=8 note=28 velocity=127 time=0E1",
 "note_on channel=8 note=28 velocity=0 time=60E1",
 "note_on channel=8 note=31 velocity=127 time=0G1",
 "note_on channel=8 note=31 velocity=0 time=60G1",
 "note_on channel=8 note=33 velocity=127 time=0A1",
 "note_on channel=8 note=33 velocity=0 time=60A1",
 "note_on channel=8 note=31 velocity=127 time=0G1",
 "note_on channel=8 note=31 velocity=0 time=60G1",
 "note_on channel=8 note=33 velocity=127 time=0A1",
 "note_on channel=8 note=33 velocity=0 time=60A1",
 "note_on channel=8 note=28 velocity=127 time=0E1",
 "note_on channel=8 note=28 velocity=0 time=60E1",
 "note_on channel=8 note=28 velocity=127 time=0E1",
 "note_on channel=8 note=28 velocity=0 time=60E1",
 "note_on channel=8 note=28 velocity=127 time=0E1",
 "note_on channel=8 note=28 velocity=0 time=60E1",
 "note_on channel=8 note=28 velocity=127 time=0E1",
 "note_on channel=8 note=28 velocity=0 time=60E1",
 "note_on channel=8 note=28 velocity=127 time=0E1",
 "note_on channel=8 note=28 velocity=0 time=60E1",
 "note_on channel=8 note=28 velocity=127 time=0E1",
 "note_on channel=8 note=28 velocity=0 time=60E1",
 "note_on channel=8 note=28 velocity=127 time=0E1",
 "note_on channel=8 note=28 velocity=0 time=60E1",
 "note_on channel=8 note=28 velocity=127 time=0E1",
 "note_on channel=8 note=28 velocity=0 time=60E1",
 "note_on channel=8 note=28 velocity=127 time=0E1",
 "note_on channel=8 note=28 velocity=0 time=60E1",
 "note_on channel=8 note=31 velocity=127 time=0G1",
 "note_on channel=8 note=31 velocity=0 time=60G1",
 "note_on channel=8 note=33 velocity=127 time=0A1",
 "note_on channel=8 note=33 velocity=0 time=60A1",
 "note_on channel=8 note=28 velocity=127 time=0E1",
 "note_on channel=8 note=28 velocity=0 time=60E1",
 "note_on channel=8 note=34 velocity=127 time=0BFLAT1",
 "note_on channel=8 note=34 velocity=0 time=60BFLAT1",
 "note_on channel=8 note=33 velocity=127 time=0A1",
 "note_on channel=8 note=33 velocity=0 time=60A1",
 "note_on channel=8 note=31 velocity=127 time=0G1",
 "note_on channel=8 note=31 velocity=0 time=60G1",
 "note_on channel=8 note=33 velocity=127 time=0A1",
 "note_on channel=8 note=33 velocity=0 time=60A1",
 "note_on channel=8 note=28 velocity=127 time=0E1",
 "note_on channel=8 note=28 velocity=0 time=60E1",
 "note_on channel=8 note=28 velocity=127 time=0E1",
 "note_on channel=8 note=28 velocity=0 time=60E1",
 "note_on channel=8 note=28 velocity=127 time=0E1",
 "note_on channel=8 note=28 velocity=0 time=60E1",
 "note_on channel=8 note=28 velocity=127 time=0E1",
 "note_on channel=8 note=28 velocity=0 time=60E1",
 "note_on channel=8 note=28 velocity=127 time=0E1",
 "note_on channel=8 note=28 velocity=0 time=60E1",
 "note_on channel=8 note=28 velocity=127 time=0E1",
 "note_on channel=8 note=28 velocity=0 time=60E1",
 "note_on channel=8 note=28 velocity=127 time=0E1",
 "note_on channel=8 note=28 velocity=0 time=60E1",
 "note_on channel=8 note=28 velocity=127 time=0E1",
 "note_on channel=8 note=28 velocity=0 time=60E1",
 "note_on channel=8 note=28 velocity=127 time=0E1",
 "note_on channel=8 note=28 velocity=0 time=60E1",
 "note_on channel=8 note=31 velocity=127 time=0G1",
 "note_on channel=8 note=31 velocity=0 time=60G1",
 "note_on channel=8 note=33 velocity=127 time=0A1",
 "note_on channel=8 note=33 velocity=0 time=60A1",
 "note_on channel=8 note=31 velocity=127 time=0G1",
 "note_on channel=8 note=31 velocity=0 time=60G1",
 "note_on channel=8 note=33 velocity=127 time=0A1",
 "note_on channel=8 note=33 velocity=0 time=60A1",
 "note_on channel=8 note=28 velocity=127 time=0E1",
 "note_on channel=8 note=28 velocity=0 time=60E1",
 "note_on channel=8 note=28 velocity=127 time=0E1",
 "note_on channel=8 note=28 velocity=0 time=60E1",
 "note_on channel=8 note=28 velocity=127 time=0E1",
 "note_on channel=8 note=28 velocity=0 time=60E1",
 "note_on channel=8 note=28 velocity=127 time=0E1",
 "note_on channel=8 note=28 velocity=0 time=60E1",
 "note_on channel=8 note=28 velocity=127 time=0E1",
 "note_on channel=8 note=28 velocity=0 time=60E1",
 "note_on channel=8 note=28 velocity=127 time=0E1",
 "note_on channel=8 note=28 velocity=0 time=60E1",
 "note_on channel=8 note=28 velocity=127 time=0E1",
 "note_on channel=8 note=28 velocity=0 time=60E1",
 "note_on channel=8 note=28 velocity=127 time=0E1",
 "note_on channel=8 note=28 velocity=0 time=60E1",
 "note_on channel=8 note=28 velocity=127 time=0E1",
 "note_on channel=8 note=28 velocity=0 time=60E1",
 "note_on channel=8 note=31 velocity=127 time=0G1",
 "note_on channel=8 note=31 velocity=0 time=60G1",
 "note_on channel=8 note=33 velocity=127 time=0A1",
 "note_on channel=8 note=33 velocity=0 time=60A1",
 "note_on channel=8 note=28 velocity=127 time=0E1",
 "note_on channel=8 note=28 velocity=0 time=60E1",
 "note_on channel=8 note=34 velocity=127 time=0BFLAT1",
 "note_on channel=8 note=34 velocity=0 time=60BFLAT1",
 "note_on channel=8 note=33 velocity=127 time=0A1",
 "note_on channel=8 note=33 velocity=0 time=60A1",
 "note_on channel=8 note=31 velocity=127 time=0G1",
 "note_on channel=8 note=31 velocity=0 time=60G1",
 "note_on channel=8 note=33 velocity=127 time=0A1",
 "note_on channel=8 note=33 velocity=0 time=60A1",
 "note_on channel=8 note=28 velocity=127 time=0E1",
 "note_on channel=8 note=28 velocity=0 time=60E1",
 "note_on channel=8 note=28 velocity=127 time=0E1",
 "note_on channel=8 note=28 velocity=0 time=60E1",
 "note_on channel=8 note=28 velocity=127 time=0E1",
 "note_on channel=8 note=28 velocity=0 time=60E1",
 "note_on channel=8 note=28 velocity=127 time=0E1",
 "note_on channel=8 note=28 velocity=0 time=60E1",
 "note_on channel=8 note=28 velocity=127 time=0E1",
 "note_on channel=8 note=28 velocity=0 time=60E1",
 "note_on channel=8 note=28 velocity=127 time=0E1",
 "note_on channel=8 note=28 velocity=0 time=60E1",
 "note_on channel=8 note=28 velocity=127 time=0E1",
 "note_on channel=8 note=28 velocity=0 time=60E1",
 "note_on channel=8 note=28 velocity=127 time=0E1",
 "note_on channel=8 note=28 velocity=0 time=60E1",
 "note_on channel=8 note=28 velocity=127 time=0E1",
 "note_on channel=8 note=28 velocity=0 time=60E1",
 "note_on channel=8 note=31 velocity=127 time=0G1",
 "note_on channel=8 note=31 velocity=0 time=60G1",
 "note_on channel=8 note=33 velocity=127 time=0A1",
 "note_on channel=8 note=33 velocity=0 time=60A1",
 "note_on channel=8 note=31 velocity=127 time=0G1",
 "note_on channel=8 note=31 velocity=0 time=60G1",
 "note_on channel=8 note=33 velocity=127 time=0A1",
 "note_on channel=8 note=33 velocity=0 time=60A1",
 "note_on channel=8 note=28 velocity=127 time=0E1",
 "note_on channel=8 note=28 velocity=0 time=60E1",
 "note_on channel=8 note=28 velocity=127 time=0E1",
 "note_on channel=8 note=28 velocity=0 time=60E1",
 "note_on channel=8 note=28 velocity=127 time=0E1",
 "note_on channel=8 note=28 velocity=0 time=60E1",
 "note_on channel=8 note=28 velocity=127 time=0E1",
 "note_on channel=8 note=28 velocity=0 time=60E1",
 "note_on channel=8 note=28 velocity=127 time=0E1",
 "note_on channel=8 note=28 velocity=0 time=60E1",
 "note_on channel=8 note=28 velocity=127 time=0E1",
 "note_on channel=8 note=28 velocity=0 time=60E1",
 "note_on channel=8 note=28 velocity=127 time=0E1",
 "note_on channel=8 note=28 velocity=0 time=60E1",
 "note_on channel=8 note=28 velocity=127 time=0E1",
 "note_on channel=8 note=28 velocity=0 time=60E1",
 "note_on channel=8 note=28 velocity=127 time=0E1",
 "note_on channel=8 note=28 velocity=0 time=60E1",
 "note_on channel=8 note=31 velocity=127 time=0G1",
 "note_on channel=8 note=31 velocity=0 time=60G1",
 "note_on channel=8 note=33 velocity=127 time=0A1",
 "note_on channel=8 note=33 velocity=0 time=60A1",
 "note_on channel=8 note=28 velocity=127 time=0E1",
 "note_on channel=8 note=28 velocity=0 time=60E1",
 "note_on channel=8 note=34 velocity=127 time=0BFLAT1",
 "note_on channel=8 note=34 velocity=0 time=60BFLAT1",
 "note_on channel=8 note=33 velocity=127 time=0A1",
 "note_on channel=8 note=33 velocity=0 time=60A1",
 "note_on channel=8 note=31 velocity=127 time=0G1",
 "note_on channel=8 note=31 velocity=0 time=60G1",
 "note_on channel=8 note=33 velocity=127 time=0A1",
 "note_on channel=8 note=33 velocity=0 time=60A1",
 "note_on channel=8 note=28 velocity=127 time=0E1",
 "note_on channel=8 note=28 velocity=0 time=60E1",
 "note_on channel=8 note=28 velocity=127 time=0E1",
 "note_on channel=8 note=28 velocity=0 time=60E1",
 "note_on channel=8 note=28 velocity=127 time=0E1",
 "note_on channel=8 note=28 velocity=0 time=60E1",
 "note_on channel=8 note=28 velocity=127 time=0E1",
 "note_on channel=8 note=28 velocity=0 time=60E1",
 "note_on channel=8 note=28 velocity=127 time=0E1",
 "note_on channel=8 note=28 velocity=0 time=60E1",
 "note_on channel=8 note=28 velocity=127 time=0E1",
 "note_on channel=8 note=28 velocity=0 time=60E1",
 "note_on channel=8 note=28 velocity=127 time=0E1",
 "note_on channel=8 note=28 velocity=0 time=60E1",
 "note_on channel=8 note=28 velocity=127 time=0E1",
 "note_on channel=8 note=28 velocity=0 time=60E1",
 "note_on channel=8 note=28 velocity=127 time=0E1",
 "note_on channel=8 note=28 velocity=0 time=60E1",
 "note_on channel=8 note=31 velocity=127 time=0G1",
 "note_on channel=8 note=31 velocity=0 time=60G1",
 "note_on channel=8 note=33 velocity=127 time=0A1",
 "note_on channel=8 note=33 velocity=0 time=60A1",
 "note_on channel=8 note=31 velocity=127 time=0G1",
 "note_on channel=8 note=31 velocity=0 time=60G1",
 "note_on channel=8 note=33 velocity=127 time=0A1",
 "note_on channel=8 note=33 velocity=0 time=60A1",
 "note_on channel=8 note=28 velocity=127 time=0E1",
 "note_on channel=8 note=28 velocity=0 time=60E1",
 "note_on channel=8 note=28 velocity=127 time=0E1",
 "note_on channel=8 note=28 velocity=0 time=60E1",
 "note_on channel=8 note=28 velocity=127 time=0E1",
 "note_on channel=8 note=28 velocity=0 time=60E1",
 "note_on channel=8 note=28 velocity=127 time=0E1",
 "note_on channel=8 note=28 velocity=0 time=60E1",
 "note_on channel=8 note=28 velocity=127 time=0E1",
 "note_on channel=8 note=28 velocity=0 time=60E1",
 "note_on channel=8 note=28 velocity=127 time=0E1",
 "note_on channel=8 note=28 velocity=0 time=60E1",
 "note_on channel=8 note=28 velocity=127 time=0E1",
 "note_on channel=8 note=28 velocity=0 time=60E1",
 "note_on channel=8 note=28 velocity=127 time=0E1",
 "note_on channel=8 note=28 velocity=0 time=60E1",
 "note_on channel=8 note=28 velocity=127 time=0E1",
 "note_on channel=8 note=28 velocity=0 time=60E1",
 "note_on channel=8 note=31 velocity=127 time=0G1",
 "note_on channel=8 note=31 velocity=0 time=60G1",
 "note_on channel=8 note=33 velocity=127 time=0A1",
 "note_on channel=8 note=33 velocity=0 time=60A1",
 "note_on channel=8 note=28 velocity=127 time=0E1",
 "note_on channel=8 note=28 velocity=0 time=60E1",
 "note_on channel=8 note=34 velocity=127 time=0BFLAT1",
 "note_on channel=8 note=34 velocity=0 time=60BFLAT1",
 "note_on channel=8 note=33 velocity=127 time=0A1",
 "note_on channel=8 note=33 velocity=0 time=60A1",
 "note_on channel=8 note=31 velocity=127 time=0G1",
 "note_on channel=8 note=31 velocity=0 time=60G1",
 "note_on channel=8 note=33 velocity=127 time=0A1",
 "note_on channel=8 note=33 velocity=0 time=60A1",
 "note_on channel=8 note=28 velocity=127 time=0E1",
 "note_on channel=8 note=28 velocity=0 time=60E1",
 "note_on channel=8 note=28 velocity=127 time=0E1",
 "note_on channel=8 note=28 velocity=0 time=60E1",
 "note_on channel=8 note=28 velocity=127 time=0E1",
 "note_on channel=8 note=28 velocity=0 time=60E1",
 "note_on channel=8 note=28 velocity=127 time=0E1",
 "note_on channel=8 note=28 velocity=0 time=60E1",
 "note_on channel=8 note=28 velocity=127 time=0E1",
 "note_on channel=8 note=28 velocity=0 time=60E1",
 "note_on channel=8 note=28 velocity=127 time=0E1",
 "note_on channel=8 note=28 velocity=0 time=60E1",
 "note_on channel=8 note=28 velocity=127 time=0E1",
 "note_on channel=8 note=28 velocity=0 time=60E1",
 "note_on channel=8 note=28 velocity=127 time=0E1",
 "note_on channel=8 note=28 velocity=0 time=60E1",
 "note_on channel=8 note=28 velocity=127 time=0E1",
 "note_on channel=8 note=28 velocity=0 time=60E1",
 "note_on channel=8 note=31 velocity=127 time=0G1",
 "note_on channel=8 note=31 velocity=0 time=60G1",
 "note_on channel=8 note=33 velocity=127 time=0A1",
 "note_on channel=8 note=33 velocity=0 time=60A1",
 "note_on channel=8 note=31 velocity=127 time=0G1",
 "note_on channel=8 note=31 velocity=0 time=60G1",
 "note_on channel=8 note=33 velocity=127 time=0A1",
 "note_on channel=8 note=33 velocity=0 time=60A1",
 "note_on channel=8 note=30 velocity=127 time=0FSHARP1",
 "note_on channel=8 note=30 velocity=0 time=60FSHARP1",
 "note_on channel=8 note=30 velocity=127 time=0FSHARP1",
 "note_on channel=8 note=30 velocity=0 time=60FSHARP1",
 "note_on channel=8 note=30 velocity=127 time=0FSHARP1",
 "note_on channel=8 note=30 velocity=0 time=60FSHARP1",
 "note_on channel=8 note=30 velocity=127 time=0FSHARP1",
 "note_on channel=8 note=30 velocity=0 time=60FSHARP1",
 "note_on channel=8 note=30 velocity=127 time=0FSHARP1",
 "note_on channel=8 note=30 velocity=0 time=60FSHARP1",
 "note_on channel=8 note=30 velocity=127 time=0FSHARP1",
 "note_on channel=8 note=30 velocity=0 time=60FSHARP1",
 "note_on channel=8 note=30 velocity=127 time=0FSHARP1",
 "note_on channel=8 note=30 velocity=0 time=60FSHARP1",
 "note_on channel=8 note=30 velocity=127 time=0FSHARP1",
 "note_on channel=8 note=30 velocity=0 time=60FSHARP1",
 "note_on channel=8 note=30 velocity=127 time=0FSHARP1",
 "note_on channel=8 note=30 velocity=0 time=60FSHARP1",
 "note_on channel=8 note=33 velocity=127 time=0A1",
 "note_on channel=8 note=33 velocity=0 time=60A1",
 "note_on channel=8 note=35 velocity=127 time=0B1",
 "note_on channel=8 note=35 velocity=0 time=60B1",
 "note_on channel=8 note=36 velocity=127 time=60C2",
 "note_on channel=8 note=36 velocity=0 time=60C2",
 "note_on channel=8 note=35 velocity=127 time=0B1",
 "note_on channel=8 note=35 velocity=0 time=60B1",
 "note_on channel=8 note=33 velocity=127 time=0A1",
 "note_on channel=8 note=33 velocity=0 time=60A1",
 "note_on channel=8 note=35 velocity=127 time=0B1",
 "note_on channel=8 note=35 velocity=0 time=60B1",
 "note_on channel=8 note=30 velocity=127 time=0FSHARP1",
 "note_on channel=8 note=30 velocity=0 time=60FSHARP1",
 "note_on channel=8 note=30 velocity=127 time=0FSHARP1",
 "note_on channel=8 note=30 velocity=0 time=60FSHARP1",
 "note_on channel=8 note=30 velocity=127 time=0FSHARP1",
 "note_on channel=8 note=30 velocity=0 time=60FSHARP1",
 "note_on channel=8 note=30 velocity=127 time=0FSHARP1",
 "note_on channel=8 note=30 velocity=0 time=60FSHARP1",
 "note_on channel=8 note=30 velocity=127 time=0FSHARP1",
 "note_on channel=8 note=30 velocity=0 time=60FSHARP1",
 "note_on channel=8 note=30 velocity=127 time=0FSHARP1",
 "note_on channel=8 note=30 velocity=0 time=60FSHARP1",
 "note_on channel=8 note=30 velocity=127 time=0FSHARP1",
 "note_on channel=8 note=30 velocity=0 time=60FSHARP1",
 "note_on channel=8 note=30 velocity=127 time=0FSHARP1",
 "note_on channel=8 note=30 velocity=0 time=60FSHARP1",
 "note_on channel=8 note=30 velocity=127 time=0FSHARP1",
 "note_on channel=8 note=30 velocity=0 time=60FSHARP1",
 "note_on channel=8 note=33 velocity=127 time=0A1",
 "note_on channel=8 note=33 velocity=0 time=60A1",
 "note_on channel=8 note=35 velocity=127 time=0B1",
 "note_on channel=8 note=35 velocity=0 time=60B1",
 "note_on channel=8 note=33 velocity=127 time=0A1",
 "note_on channel=8 note=33 velocity=0 time=60A1",
 "note_on channel=8 note=35 velocity=127 time=0B1",
 "note_on channel=8 note=35 velocity=0 time=60B1",
 "note_on channel=8 note=30 velocity=127 time=0FSHARP1",
 "note_on channel=8 note=30 velocity=0 time=60FSHARP1",
 "note_on channel=8 note=30 velocity=127 time=0FSHARP1",
 "note_on channel=8 note=30 velocity=0 time=60FSHARP1",
 "note_on channel=8 note=30 velocity=127 time=0FSHARP1",
 "note_on channel=8 note=30 velocity=0 time=60FSHARP1",
 "note_on channel=8 note=30 velocity=127 time=0FSHARP1",
 "note_on channel=8 note=30 velocity=0 time=60FSHARP1",
 "note_on channel=8 note=30 velocity=127 time=0FSHARP1",
 "note_on channel=8 note=30 velocity=0 time=60FSHARP1",
 "note_on channel=8 note=30 velocity=127 time=0FSHARP1",
 "note_on channel=8 note=30 velocity=0 time=60FSHARP1",
 "note_on channel=8 note=30 velocity=127 time=0FSHARP1",
 "note_on channel=8 note=30 velocity=0 time=60FSHARP1",
 "note_on channel=8 note=30 velocity=127 time=0FSHARP1",
 "note_on channel=8 note=30 velocity=0 time=60FSHARP1",
 "note_on channel=8 note=30 velocity=127 time=0FSHARP1",
 "note_on channel=8 note=30 velocity=0 time=60FSHARP1",
 "note_on channel=8 note=33 velocity=127 time=0A1",
 "note_on channel=8 note=33 velocity=0 time=60A1",
 "note_on channel=8 note=35 velocity=127 time=0B1",
 "note_on channel=8 note=35 velocity=0 time=60B1",
 "note_on channel=8 note=36 velocity=127 time=60C2",
 "note_on channel=8 note=36 velocity=0 time=60C2",
 "note_on channel=8 note=35 velocity=127 time=0B1",
 "note_on channel=8 note=35 velocity=0 time=60B1",
 "note_on channel=8 note=33 velocity=127 time=0A1",
 "note_on channel=8 note=33 velocity=0 time=60A1",
 "note_on channel=8 note=35 velocity=127 time=0B1",
 "note_on channel=8 note=35 velocity=0 time=60B1",
 "note_on channel=8 note=30 velocity=127 time=0FSHARP1",
 "note_on channel=8 note=30 velocity=0 time=60FSHARP1",
 "note_on channel=8 note=30 velocity=127 time=0FSHARP1",
 "note_on channel=8 note=30 velocity=0 time=60FSHARP1",
 "note_on channel=8 note=30 velocity=127 time=0FSHARP1",
 "note_on channel=8 note=30 velocity=0 time=60FSHARP1",
 "note_on channel=8 note=30 velocity=127 time=0FSHARP1",
 "note_on channel=8 note=30 velocity=0 time=60FSHARP1",
 "note_on channel=8 note=30 velocity=127 time=0FSHARP1",
 "note_on channel=8 note=30 velocity=0 time=60FSHARP1",
 "note_on channel=8 note=30 velocity=127 time=0FSHARP1",
 "note_on channel=8 note=30 velocity=0 time=60FSHARP1",
 "note_on channel=8 note=30 velocity=127 time=0FSHARP1",
 "note_on channel=8 note=30 velocity=0 time=60FSHARP1",
 "note_on channel=8 note=30 velocity=127 time=0FSHARP1",
 "note_on channel=8 note=30 velocity=0 time=60FSHARP1",
 "note_on channel=8 note=30 velocity=127 time=0FSHARP1",
 "note_on channel=8 note=30 velocity=0 time=60FSHARP1",
 "note_on channel=8 note=33 velocity=127 time=0A1",
 "note_on channel=8 note=33 velocity=0 time=60A1",
 "note_on channel=8 note=35 velocity=127 time=0B1",
 "note_on channel=8 note=35 velocity=0 time=60B1",
 "note_on channel=8 note=33 velocity=127 time=0A1",
 "note_on channel=8 note=33 velocity=0 time=60A1",
 "note_on channel=8 note=35 velocity=127 time=0B1",
 "note_on channel=8 note=35 velocity=0 time=60B1",
 "note_on channel=8 note=35 velocity=127 time=0B1",
 "note_on channel=8 note=35 velocity=0 time=60B1",
 "note_on channel=8 note=35 velocity=127 time=0B1",
 "note_on channel=8 note=35 velocity=0 time=60B1",
 "note_on channel=8 note=35 velocity=127 time=0B1",
 "note_on channel=8 note=35 velocity=0 time=60B1",
 "note_on channel=8 note=35 velocity=127 time=0B1",
 "note_on channel=8 note=35 velocity=0 time=60B1",
 "note_on channel=8 note=35 velocity=127 time=0B1",
 "note_on channel=8 note=35 velocity=0 time=60B1",
 "note_on channel=8 note=35 velocity=127 time=0B1",
 "note_on channel=8 note=35 velocity=0 time=60B1",
 "note_on channel=8 note=35 velocity=127 time=0B1",
 "note_on channel=8 note=35 velocity=0 time=60B1",
 "note_on channel=8 note=35 velocity=127 time=0B1",
 "note_on channel=8 note=35 velocity=0 time=60B1",
 "note_on channel=8 note=40 velocity=127 time=0E2",
 "note_on channel=8 note=40 velocity=0 time=60E2",
 "note_on channel=8 note=28 velocity=127 time=0E1",
 "note_on channel=8 note=28 velocity=0 time=60E1",
 "note_on channel=8 note=28 velocity=127 time=0E1",
 "note_on channel=8 note=28 velocity=0 time=60E1",
 "note_on channel=8 note=28 velocity=127 time=0E1",
 "note_on channel=8 note=28 velocity=0 time=60E1",
 "note_on channel=8 note=38 velocity=127 time=0D2",
 "note_on channel=8 note=38 velocity=0 time=120D2",
 "note_on channel=8 note=40 velocity=127 time=0E2",
 "note_on channel=8 note=40 velocity=0 time=120E2",
 "note_on channel=8 note=28 velocity=127 time=0E1",
 "note_on channel=8 note=28 velocity=0 time=180E1",
 "note_on channel=8 note=30 velocity=127 time=0FSHARP1",
 "note_on channel=8 note=30 velocity=0 time=60FSHARP1",
 "note_on channel=8 note=31 velocity=127 time=0G1",
 "note_on channel=8 note=31 velocity=0 time=240G1",
 "note_on channel=8 note=36 velocity=127 time=0C2",
 "note_on channel=8 note=36 velocity=0 time=60C2",
 "note_on channel=8 note=36 velocity=127 time=0C2",
 "note_on channel=8 note=36 velocity=0 time=60C2",
 "note_on channel=8 note=36 velocity=127 time=0C2",
 "note_on channel=8 note=36 velocity=0 time=60C2",
 "note_on channel=8 note=36 velocity=127 time=0C2",
 "note_on channel=8 note=36 velocity=0 time=60C2",
 "note_on channel=8 note=36 velocity=127 time=0C2",
 "note_on channel=8 note=36 velocity=0 time=120C2",
 "note_on channel=8 note=35 velocity=127 time=0B1",
 "note_on channel=8 note=35 velocity=0 time=120B1",
 "note_on channel=8 note=36 velocity=127 time=0C2",
 "note_on channel=8 note=36 velocity=0 time=60C2",
 "note_on channel=8 note=36 velocity=127 time=0C2",
 "note_on channel=8 note=36 velocity=0 time=60C2",
 "note_on channel=8 note=36 velocity=127 time=0C2",
 "note_on channel=8 note=36 velocity=0 time=60C2",
 "note_on channel=8 note=36 velocity=127 time=0C2",
 "note_on channel=8 note=36 velocity=0 time=60C2",
 "note_on channel=8 note=39 velocity=127 time=0DSHARP2",
 "note_on channel=8 note=39 velocity=0 time=120DSHARP2",
 "note_on channel=8 note=35 velocity=127 time=0B1",
 "note_on channel=8 note=35 velocity=0 time=120B1",
 "note_on channel=8 note=40 velocity=127 time=0E2",
 "note_on channel=8 note=40 velocity=0 time=60E2",
 "note_on channel=8 note=28 velocity=127 time=0E1",
 "note_on channel=8 note=28 velocity=0 time=60E1",
 "note_on channel=8 note=28 velocity=127 time=0E1",
 "note_on channel=8 note=28 velocity=0 time=60E1",
 "note_on channel=8 note=28 velocity=127 time=0E1",
 "note_on channel=8 note=28 velocity=0 time=60E1",
 "note_on channel=8 note=38 velocity=127 time=0D2",
 "note_on channel=8 note=38 velocity=0 time=120D2",
 "note_on channel=8 note=40 velocity=127 time=0E2",
 "note_on channel=8 note=40 velocity=0 time=120E2",
 "note_on channel=8 note=28 velocity=127 time=0E1",
 "note_on channel=8 note=28 velocity=0 time=180E1",
 "note_on channel=8 note=30 velocity=127 time=0FSHARP1",
 "note_on channel=8 note=30 velocity=0 time=60FSHARP1",
 "note_on channel=8 note=31 velocity=127 time=0G1",
 "note_on channel=8 note=31 velocity=0 time=240G1",
 "note_on channel=8 note=36 velocity=127 time=0C2",
 "note_on channel=8 note=36 velocity=0 time=60C2",
 "note_on channel=8 note=36 velocity=127 time=0C2",
 "note_on channel=8 note=36 velocity=0 time=60C2",
 "note_on channel=8 note=36 velocity=127 time=0C2",
 "note_on channel=8 note=36 velocity=0 time=60C2",
 "note_on channel=8 note=36 velocity=127 time=0C2",
 "note_on channel=8 note=36 velocity=0 time=60C2",
 "note_on channel=8 note=36 velocity=127 time=0C2",
 "note_on channel=8 note=36 velocity=0 time=120C2",
 "note_on channel=8 note=35 velocity=127 time=0B1",
 "note_on channel=8 note=35 velocity=0 time=120B1",
 "note_on channel=8 note=36 velocity=127 time=0C2",
 "note_on channel=8 note=36 velocity=0 time=60C2",
 "note_on channel=8 note=36 velocity=127 time=0C2",
 "note_on channel=8 note=36 velocity=0 time=60C2",
 "note_on channel=8 note=36 velocity=127 time=0C2",
 "note_on channel=8 note=36 velocity=0 time=60C2",
 "note_on channel=8 note=36 velocity=127 time=0C2",
 "note_on channel=8 note=36 velocity=0 time=60C2",
 "note_on channel=8 note=39 velocity=127 time=0DSHARP2",
 "note_on channel=8 note=39 velocity=0 time=120DSHARP2",
 "note_on channel=8 note=35 velocity=127 time=0B1",
 "note_on channel=8 note=35 velocity=0 time=120B1",
 "note_on channel=8 note=40 velocity=127 time=0E2",
 "note_on channel=8 note=40 velocity=0 time=60E2",
 "note_on channel=8 note=28 velocity=127 time=0E1",
 "note_on channel=8 note=28 velocity=0 time=60E1",
 "note_on channel=8 note=28 velocity=127 time=0E1",
 "note_on channel=8 note=28 velocity=0 time=60E1",
 "note_on channel=8 note=28 velocity=127 time=0E1",
 "note_on channel=8 note=28 velocity=0 time=60E1",
 "note_on channel=8 note=38 velocity=127 time=0D2",
 "note_on channel=8 note=38 velocity=0 time=120D2",
 "note_on channel=8 note=40 velocity=127 time=0E2",
 "note_on channel=8 note=40 velocity=0 time=120E2",
 "note_on channel=8 note=28 velocity=127 time=0E1",
 "note_on channel=8 note=28 velocity=0 time=180E1",
 "note_on channel=8 note=30 velocity=127 time=0FSHARP1",
 "note_on channel=8 note=30 velocity=0 time=60FSHARP1",
 "note_on channel=8 note=31 velocity=127 time=0G1",
 "note_on channel=8 note=31 velocity=0 time=240G1",
 "note_on channel=8 note=36 velocity=127 time=0C2",
 "note_on channel=8 note=36 velocity=0 time=60C2",
 "note_on channel=8 note=36 velocity=127 time=0C2",
 "note_on channel=8 note=36 velocity=0 time=60C2",
 "note_on channel=8 note=36 velocity=127 time=0C2",
 "note_on channel=8 note=36 velocity=0 time=60C2",
 "note_on channel=8 note=36 velocity=127 time=0C2",
 "note_on channel=8 note=36 velocity=0 time=60C2",
 "note_on channel=8 note=36 velocity=127 time=0C2",
 "note_on channel=8 note=36 velocity=0 time=120C2",
 "note_on channel=8 note=35 velocity=127 time=0B1",
 "note_on channel=8 note=35 velocity=0 time=120B1",
 "note_on channel=8 note=36 velocity=127 time=0C2",
 "note_on channel=8 note=36 velocity=0 time=60C2",
 "note_on channel=8 note=36 velocity=127 time=0C2",
 "note_on channel=8 note=36 velocity=0 time=60C2",
 "note_on channel=8 note=36 velocity=127 time=0C2",
 "note_on channel=8 note=36 velocity=0 time=60C2",
 "note_on channel=8 note=36 velocity=127 time=0C2",
 "note_on channel=8 note=36 velocity=0 time=60C2",
 "note_on channel=8 note=39 velocity=127 time=0DSHARP2",
 "note_on channel=8 note=39 velocity=0 time=120DSHARP2",
 "note_on channel=8 note=35 velocity=127 time=0B1",
 "note_on channel=8 note=35 velocity=0 time=120B1",
 "note_on channel=8 note=40 velocity=127 time=0E2",
 "note_on channel=8 note=40 velocity=0 time=60E2",
 "note_on channel=8 note=28 velocity=127 time=0E1",
 "note_on channel=8 note=28 velocity=0 time=60E1",
 "note_on channel=8 note=28 velocity=127 time=0E1",
 "note_on channel=8 note=28 velocity=0 time=60E1",
 "note_on channel=8 note=28 velocity=127 time=0E1",
 "note_on channel=8 note=28 velocity=0 time=60E1",
 "note_on channel=8 note=38 velocity=127 time=0D2",
 "note_on channel=8 note=38 velocity=0 time=120D2",
 "note_on channel=8 note=40 velocity=127 time=0E2",
 "note_on channel=8 note=40 velocity=0 time=120E2",
 "note_on channel=8 note=28 velocity=127 time=0E1",
 "note_on channel=8 note=28 velocity=0 time=180E1",
 "note_on channel=8 note=30 velocity=127 time=0FSHARP1",
 "note_on channel=8 note=30 velocity=0 time=60FSHARP1",
 "note_on channel=8 note=31 velocity=127 time=0G1",
 "note_on channel=8 note=31 velocity=0 time=240G1",
 "note_on channel=8 note=36 velocity=127 time=0C2",
 "note_on channel=8 note=36 velocity=0 time=60C2",
 "note_on channel=8 note=36 velocity=127 time=0C2",
 "note_on channel=8 note=36 velocity=0 time=60C2",
 "note_on channel=8 note=36 velocity=127 time=0C2",
 "note_on channel=8 note=36 velocity=0 time=60C2",
 "note_on channel=8 note=36 velocity=127 time=0C2",
 "note_on channel=8 note=36 velocity=0 time=60C2",
 "note_on channel=8 note=36 velocity=127 time=0C2",
 "note_on channel=8 note=36 velocity=0 time=120C2",
 "note_on channel=8 note=35 velocity=127 time=0B1",
 "note_on channel=8 note=35 velocity=0 time=120B1",
 "note_on channel=8 note=42 velocity=127 time=0FSHARP2",
 "note_on channel=8 note=42 velocity=0 time=60FSHARP2",
 "note_on channel=8 note=40 velocity=127 time=0E2",
 "note_on channel=8 note=40 velocity=0 time=60E2",
 "note_on channel=8 note=39 velocity=127 time=0DSHARP2",
 "note_on channel=8 note=39 velocity=0 time=60DSHARP2",
 "note_on channel=8 note=39 velocity=127 time=60DSHARP2",
 "note_on channel=8 note=39 velocity=0 time=60DSHARP2",
 "note_on channel=8 note=36 velocity=127 time=0C2",
 "note_on channel=8 note=36 velocity=0 time=60C2",
 "note_on channel=8 note=35 velocity=127 time=0B1",
 "note_on channel=8 note=35 velocity=0 time=60B1",
 "note_on channel=8 note=28 velocity=127 time=60E1",
 "note_on channel=8 note=28 velocity=0 time=120E1",
 "note_on channel=8 note=28 velocity=127 time=0E1",
 "note_on channel=8 note=28 velocity=0 time=120E1",
 "note_on channel=8 note=29 velocity=127 time=240F1",
 "note_on channel=8 note=29 velocity=0 time=120F1",
 "note_on channel=8 note=29 velocity=127 time=0F1",
 "note_on channel=8 note=29 velocity=0 time=120F1",
 "note_on channel=8 note=28 velocity=127 time=240E1",
 "note_on channel=8 note=28 velocity=0 time=360E1",
 "note_on channel=8 note=28 velocity=127 time=0E1",
 "note_on channel=8 note=28 velocity=0 time=60E1",
 "note_on channel=8 note=28 velocity=127 time=0E1",
 "note_on channel=8 note=28 velocity=0 time=60E1",
 "note_on channel=8 note=30 velocity=127 time=0FSHARP1",
 "note_on channel=8 note=30 velocity=0 time=60FSHARP1",
 "note_on channel=8 note=28 velocity=127 time=0E1",
 "note_on channel=8 note=28 velocity=0 time=60E1",
 "note_on channel=8 note=28 velocity=127 time=0E1",
 "note_on channel=8 note=28 velocity=0 time=60E1",
 "note_on channel=8 note=28 velocity=127 time=0E1",
 "note_on channel=8 note=28 velocity=0 time=60E1",
 "note_on channel=8 note=31 velocity=127 time=0G1",
 "note_on channel=8 note=31 velocity=0 time=120G1",
 "note_on channel=8 note=31 velocity=127 time=0G1",
 "note_on channel=8 note=31 velocity=0 time=60G1",
 "note_on channel=8 note=31 velocity=127 time=0G1",
 "note_on channel=8 note=31 velocity=0 time=120G1",
 "note_on channel=8 note=31 velocity=127 time=0G1",
 "note_on channel=8 note=31 velocity=0 time=60G1",
 "note_on channel=8 note=31 velocity=127 time=0G1",
 "note_on channel=8 note=31 velocity=0 time=120G1",
 "note_on channel=8 note=31 velocity=127 time=0G1",
 "note_on channel=8 note=31 velocity=0 time=60G1",
 "note_on channel=8 note=31 velocity=127 time=0G1",
 "note_on channel=8 note=31 velocity=0 time=60G1",
 "note_on channel=8 note=31 velocity=127 time=0G1",
 "note_on channel=8 note=31 velocity=0 time=60G1",
 "note_on channel=8 note=31 velocity=127 time=0G1",
 "note_on channel=8 note=31 velocity=0 time=60G1",
 "note_on channel=8 note=31 velocity=127 time=0G1",
 "note_on channel=8 note=31 velocity=0 time=60G1",
 "note_on channel=8 note=31 velocity=127 time=0G1",
 "note_on channel=8 note=31 velocity=0 time=30G1",
 "note_on channel=8 note=31 velocity=127 time=0G1",
 "note_on channel=8 note=31 velocity=0 time=30G1",
 "note_on channel=8 note=31 velocity=127 time=0G1",
 "note_on channel=8 note=31 velocity=0 time=120G1",
 "note_on channel=8 note=36 velocity=127 time=0C2",
 "note_on channel=8 note=36 velocity=0 time=120C2",
 "note_on channel=8 note=35 velocity=127 time=0B1",
 "note_on channel=8 note=35 velocity=0 time=60B1",
 "note_on channel=8 note=36 velocity=127 time=0C2",
 "note_on channel=8 note=36 velocity=0 time=60C2",
 "note_on channel=8 note=36 velocity=127 time=0C2",
 "note_on channel=8 note=36 velocity=0 time=60C2",
 "note_on channel=8 note=33 velocity=127 time=0A1",
 "note_on channel=8 note=33 velocity=0 time=60A1",
 "note_on channel=8 note=33 velocity=127 time=0A1",
 "note_on channel=8 note=33 velocity=0 time=60A1",
 "note_on channel=8 note=33 velocity=127 time=0A1",
 "note_on channel=8 note=33 velocity=0 time=60A1",
 "note_on channel=8 note=35 velocity=127 time=0B1",
 "note_on channel=8 note=35 velocity=0 time=60B1",
 "note_on channel=8 note=33 velocity=127 time=0A1",
 "note_on channel=8 note=33 velocity=0 time=60A1",
 "note_on channel=8 note=33 velocity=127 time=0A1",
 "note_on channel=8 note=33 velocity=0 time=60A1",
 "note_on channel=8 note=33 velocity=127 time=0A1",
 "note_on channel=8 note=33 velocity=0 time=60A1",
 "note_on channel=8 note=33 velocity=127 time=0A1",
 "note_on channel=8 note=33 velocity=0 time=120A1",
 "note_on channel=8 note=33 velocity=127 time=0A1",
 "note_on channel=8 note=33 velocity=0 time=120A1",
 "note_on channel=8 note=33 velocity=127 time=0A1",
 "note_on channel=8 note=33 velocity=0 time=60A1",
 "note_on channel=8 note=33 velocity=127 time=0A1",
 "note_on channel=8 note=33 velocity=0 time=60A1",
 "note_on channel=8 note=33 velocity=127 time=0A1",
 "note_on channel=8 note=33 velocity=0 time=600A1",
 "note_on channel=8 note=38 velocity=127 time=0D2",
 "note_on channel=8 note=38 velocity=0 time=300D2",
 "note_on channel=8 note=31 velocity=127 time=0G1",
 "note_on channel=8 note=31 velocity=0 time=60G1",
 "note_on channel=8 note=31 velocity=127 time=0G1",
 "note_on channel=8 note=31 velocity=0 time=60G1",
 "note_on channel=8 note=31 velocity=127 time=0G1",
 "note_on channel=8 note=31 velocity=0 time=60G1",
 "note_on channel=8 note=36 velocity=127 time=0C2",
 "note_on channel=8 note=36 velocity=0 time=60C2",
 "note_on channel=8 note=31 velocity=127 time=0G1",
 "note_on channel=8 note=31 velocity=0 time=60G1",
 "note_on channel=8 note=31 velocity=127 time=0G1",
 "note_on channel=8 note=31 velocity=0 time=60G1",
 "note_on channel=8 note=31 velocity=127 time=0G1",
 "note_on channel=8 note=31 velocity=0 time=60G1",
 "note_on channel=8 note=35 velocity=127 time=0B1",
 "note_on channel=8 note=35 velocity=0 time=120B1",
 "note_on channel=8 note=35 velocity=127 time=0B1",
 "note_on channel=8 note=35 velocity=0 time=60B1",
 "note_on channel=8 note=35 velocity=127 time=0B1",
 "note_on channel=8 note=35 velocity=0 time=120B1",
 "note_on channel=8 note=35 velocity=127 time=0B1",
 "note_on channel=8 note=35 velocity=0 time=60B1",
 "note_on channel=8 note=39 velocity=127 time=0DSHARP2",
 "note_on channel=8 note=39 velocity=0 time=120DSHARP2",
 "note_on channel=8 note=40 velocity=127 time=0E2",
 "note_on channel=8 note=40 velocity=0 time=300E2",
 "note_on channel=8 note=40 velocity=127 time=0E2",
 "note_on channel=8 note=40 velocity=0 time=60E2",
 "note_on channel=8 note=40 velocity=127 time=0E2",
 "note_on channel=8 note=40 velocity=0 time=60E2",
 "note_on channel=8 note=40 velocity=127 time=0E2",
 "note_on channel=8 note=40 velocity=0 time=60E2",
 "note_on channel=8 note=38 velocity=127 time=0D2",
 "note_on channel=8 note=38 velocity=0 time=120D2",
 "note_on channel=8 note=28 velocity=127 time=0E1",
 "note_on channel=8 note=28 velocity=0 time=60E1",
 "note_on channel=8 note=28 velocity=127 time=0E1",
 "note_on channel=8 note=28 velocity=0 time=60E1",
 "note_on channel=8 note=36 velocity=127 time=0C2",
 "note_on channel=8 note=36 velocity=0 time=120C2",
 "note_on channel=8 note=36 velocity=127 time=0C2",
 "note_on channel=8 note=36 velocity=0 time=60C2",
 "note_on channel=8 note=36 velocity=127 time=0C2",
 "note_on channel=8 note=36 velocity=0 time=120C2",
 "note_on channel=8 note=36 velocity=127 time=0C2",
 "note_on channel=8 note=36 velocity=0 time=60C2",
 "note_on channel=8 note=36 velocity=127 time=0C2",
 "note_on channel=8 note=36 velocity=0 time=120C2",
 "note_on channel=8 note=36 velocity=127 time=0C2",
 "note_on channel=8 note=36 velocity=0 time=60C2",
 "note_on channel=8 note=36 velocity=127 time=0C2",
 "note_on channel=8 note=36 velocity=0 time=60C2",
 "note_on channel=8 note=36 velocity=127 time=0C2",
 "note_on channel=8 note=36 velocity=0 time=120C2",
 "note_on channel=8 note=28 velocity=127 time=0E1",
 "note_on channel=8 note=28 velocity=0 time=120E1",
 "note_on channel=8 note=28 velocity=127 time=0E1",
 "note_on channel=8 note=28 velocity=0 time=120E1",
 "note_on channel=8 note=29 velocity=127 time=240F1",
 "note_on channel=8 note=29 velocity=0 time=120F1",
 "note_on channel=8 note=29 velocity=127 time=0F1",
 "note_on channel=8 note=29 velocity=0 time=120F1",
 "note_on channel=8 note=28 velocity=127 time=240E1",
 "note_on channel=8 note=28 velocity=0 time=300E1",
 "note_on channel=8 note=28 velocity=127 time=0E1",
 "note_on channel=8 note=28 velocity=0 time=60E1",
 "note_on channel=8 note=28 velocity=127 time=0E1",
 "note_on channel=8 note=28 velocity=0 time=60E1",
 "note_on channel=8 note=28 velocity=127 time=0E1",
 "note_on channel=8 note=28 velocity=0 time=60E1",
 "note_on channel=8 note=30 velocity=127 time=0FSHARP1",
 "note_on channel=8 note=30 velocity=0 time=60FSHARP1",
 "note_on channel=8 note=28 velocity=127 time=0E1",
 "note_on channel=8 note=28 velocity=0 time=60E1",
 "note_on channel=8 note=28 velocity=127 time=0E1",
 "note_on channel=8 note=28 velocity=0 time=60E1",
 "note_on channel=8 note=28 velocity=127 time=0E1",
 "note_on channel=8 note=28 velocity=0 time=60E1",
 "note_on channel=8 note=36 velocity=127 time=0C2",
 "note_on channel=8 note=36 velocity=0 time=120C2",
 "note_on channel=8 note=36 velocity=127 time=0C2",
 "note_on channel=8 note=36 velocity=0 time=60C2",
 "note_on channel=8 note=36 velocity=127 time=0C2",
 "note_on channel=8 note=36 velocity=0 time=120C2",
 "note_on channel=8 note=36 velocity=127 time=0C2",
 "note_on channel=8 note=36 velocity=0 time=60C2",
 "note_on channel=8 note=36 velocity=127 time=0C2",
 "note_on channel=8 note=36 velocity=0 time=120C2",
 "note_on channel=8 note=36 velocity=127 time=0C2",
 "note_on channel=8 note=36 velocity=0 time=60C2",
 "note_on channel=8 note=36 velocity=127 time=0C2",
 "note_on channel=8 note=36 velocity=0 time=60C2",
 "note_on channel=8 note=35 velocity=127 time=0B1",
 "note_on channel=8 note=35 velocity=0 time=60B1",
 "note_on channel=8 note=35 velocity=127 time=0B1",
 "note_on channel=8 note=35 velocity=0 time=60B1",
 "note_on channel=8 note=33 velocity=127 time=0A1",
 "note_on channel=8 note=33 velocity=0 time=60A1",
 "note_on channel=8 note=33 velocity=127 time=0A1",
 "note_on channel=8 note=33 velocity=0 time=60A1",
 "note_on channel=8 note=31 velocity=127 time=0G1",
 "note_on channel=8 note=31 velocity=0 time=60G1",
 "note_on channel=8 note=31 velocity=127 time=0G1",
 "note_on channel=8 note=31 velocity=0 time=60G1",
 "note_on channel=8 note=28 velocity=127 time=0E1",
 "note_on channel=8 note=28 velocity=0 time=120E1",
 "note_on channel=8 note=28 velocity=127 time=0E1",
 "note_on channel=8 note=28 velocity=0 time=120E1",
 "note_on channel=8 note=29 velocity=127 time=240F1",
 "note_on channel=8 note=29 velocity=0 time=120F1",
 "note_on channel=8 note=29 velocity=127 time=0F1",
 "note_on channel=8 note=29 velocity=0 time=120F1",
 "note_on channel=8 note=28 velocity=127 time=240E1",
 "note_on channel=8 note=28 velocity=0 time=60E1",
 "note_on channel=8 note=29 velocity=127 time=0F1",
 "note_on channel=8 note=29 velocity=0 time=60F1",
 "note_on channel=8 note=35 velocity=127 time=0B1",
 "note_on channel=8 note=35 velocity=0 time=60B1",
 "note_on channel=8 note=28 velocity=127 time=0E1",
 "note_on channel=8 note=28 velocity=0 time=60E1",
 "note_on channel=8 note=29 velocity=127 time=0F1",
 "note_on channel=8 note=29 velocity=0 time=60F1",
 "note_on channel=8 note=36 velocity=127 time=0C2",
 "note_on channel=8 note=36 velocity=0 time=60C2",
 "note_on channel=8 note=28 velocity=127 time=0E1",
 "note_on channel=8 note=28 velocity=0 time=60E1",
 "note_on channel=8 note=30 velocity=127 time=0FSHARP1",
 "note_on channel=8 note=30 velocity=0 time=60FSHARP1",
 "note_on channel=8 note=37 velocity=127 time=0CSHARP2",
 "note_on channel=8 note=37 velocity=0 time=60CSHARP2",
 "note_on channel=8 note=28 velocity=127 time=0E1",
 "note_on channel=8 note=28 velocity=0 time=60E1",
 "note_on channel=8 note=29 velocity=127 time=0F1",
 "note_on channel=8 note=29 velocity=0 time=60F1",
 "note_on channel=8 note=36 velocity=127 time=0C2",
 "note_on channel=8 note=36 velocity=0 time=60C2",
 "note_on channel=8 note=28 velocity=127 time=0E1",
 "note_on channel=8 note=28 velocity=0 time=60E1",
 "note_on channel=8 note=29 velocity=127 time=0F1",
 "note_on channel=8 note=29 velocity=0 time=60F1",
 "note_on channel=8 note=35 velocity=127 time=0B1",
 "note_on channel=8 note=35 velocity=0 time=60B1",
 "note_on channel=8 note=35 velocity=127 time=0B1",
 "note_on channel=8 note=35 velocity=0 time=60B1",
 "note_on channel=8 note=28 velocity=127 time=0E1",
 "note_on channel=8 note=28 velocity=0 time=60E1",
 "note_on channel=8 note=29 velocity=127 time=0F1",
 "note_on channel=8 note=29 velocity=0 time=60F1",
 "note_on channel=8 note=35 velocity=127 time=0B1",
 "note_on channel=8 note=35 velocity=0 time=60B1",
 "note_on channel=8 note=28 velocity=127 time=0E1",
 "note_on channel=8 note=28 velocity=0 time=60E1",
 "note_on channel=8 note=31 velocity=127 time=0G1",
 "note_on channel=8 note=31 velocity=0 time=60G1",
 "note_on channel=8 note=36 velocity=127 time=0C2",
 "note_on channel=8 note=36 velocity=0 time=60C2",
 "note_on channel=8 note=28 velocity=127 time=0E1",
 "note_on channel=8 note=28 velocity=0 time=60E1",
 "note_on channel=8 note=29 velocity=127 time=0F1",
 "note_on channel=8 note=29 velocity=0 time=60F1",
 "note_on channel=8 note=37 velocity=127 time=0CSHARP2",
 "note_on channel=8 note=37 velocity=0 time=60CSHARP2",
 "note_on channel=8 note=28 velocity=127 time=0E1",
 "note_on channel=8 note=28 velocity=0 time=60E1",
 "note_on channel=8 note=29 velocity=127 time=0F1",
 "note_on channel=8 note=29 velocity=0 time=60F1",
 "note_on channel=8 note=36 velocity=127 time=0C2",
 "note_on channel=8 note=36 velocity=0 time=60C2",
 "note_on channel=8 note=29 velocity=127 time=0F1",
 "note_on channel=8 note=29 velocity=0 time=60F1",
 "note_on channel=8 note=28 velocity=127 time=0E1",
 "note_on channel=8 note=28 velocity=0 time=60E1",
 "note_on channel=8 note=35 velocity=127 time=0B1",
 "note_on channel=8 note=35 velocity=0 time=120B1",
 "note_on channel=8 note=28 velocity=127 time=0E1",
 "note_on channel=8 note=28 velocity=0 time=60E1",
 "note_on channel=8 note=29 velocity=127 time=0F1",
 "note_on channel=8 note=29 velocity=0 time=60F1",
 "note_on channel=8 note=35 velocity=127 time=0B1",
 "note_on channel=8 note=35 velocity=0 time=60B1",
 "note_on channel=8 note=28 velocity=127 time=0E1",
 "note_on channel=8 note=28 velocity=0 time=60E1",
 "note_on channel=8 note=29 velocity=127 time=0F1",
 "note_on channel=8 note=29 velocity=0 time=60F1",
 "note_on channel=8 note=36 velocity=127 time=0C2",
 "note_on channel=8 note=36 velocity=0 time=60C2",
 "note_on channel=8 note=28 velocity=127 time=0E1",
 "note_on channel=8 note=28 velocity=0 time=60E1",
 "note_on channel=8 note=30 velocity=127 time=0FSHARP1",
 "note_on channel=8 note=30 velocity=0 time=60FSHARP1",
 "note_on channel=8 note=37 velocity=127 time=0CSHARP2",
 "note_on channel=8 note=37 velocity=0 time=60CSHARP2",
 "note_on channel=8 note=28 velocity=127 time=0E1",
 "note_on channel=8 note=28 velocity=0 time=60E1",
 "note_on channel=8 note=29 velocity=127 time=0F1",
 "note_on channel=8 note=29 velocity=0 time=60F1",
 "note_on channel=8 note=36 velocity=127 time=0C2",
 "note_on channel=8 note=36 velocity=0 time=60C2",
 "note_on channel=8 note=28 velocity=127 time=0E1",
 "note_on channel=8 note=28 velocity=0 time=60E1",
 "note_on channel=8 note=29 velocity=127 time=0F1",
 "note_on channel=8 note=29 velocity=0 time=60F1",
 "note_on channel=8 note=35 velocity=127 time=0B1",
 "note_on channel=8 note=35 velocity=0 time=60B1",
 "note_on channel=8 note=35 velocity=127 time=0B1",
 "note_on channel=8 note=35 velocity=0 time=60B1",
 "note_on channel=8 note=28 velocity=127 time=0E1",
 "note_on channel=8 note=28 velocity=0 time=60E1",
 "note_on channel=8 note=29 velocity=127 time=0F1",
 "note_on channel=8 note=29 velocity=0 time=60F1",
 "note_on channel=8 note=35 velocity=127 time=0B1",
 "note_on channel=8 note=35 velocity=0 time=60B1",
 "note_on channel=8 note=28 velocity=127 time=0E1",
 "note_on channel=8 note=28 velocity=0 time=60E1",
 "note_on channel=8 note=31 velocity=127 time=0G1",
 "note_on channel=8 note=31 velocity=0 time=60G1",
 "note_on channel=8 note=36 velocity=127 time=0C2",
 "note_on channel=8 note=36 velocity=0 time=60C2",
 "note_on channel=8 note=28 velocity=127 time=0E1",
 "note_on channel=8 note=28 velocity=0 time=60E1",
 "note_on channel=8 note=29 velocity=127 time=0F1",
 "note_on channel=8 note=29 velocity=0 time=60F1",
 "note_on channel=8 note=31 velocity=127 time=0G1",
 "note_on channel=8 note=31 velocity=0 time=60G1",
 "note_on channel=8 note=30 velocity=127 time=0FSHARP1",
 "note_on channel=8 note=30 velocity=0 time=60FSHARP1",
 "note_on channel=8 note=28 velocity=127 time=0E1",
 "note_on channel=8 note=28 velocity=0 time=60E1",
 "note_on channel=8 note=31 velocity=127 time=0G1",
 "note_on channel=8 note=31 velocity=0 time=60G1",
 "note_on channel=8 note=30 velocity=127 time=0FSHARP1",
 "note_on channel=8 note=30 velocity=0 time=60FSHARP1",
 "note_on channel=8 note=28 velocity=127 time=0E1",
 "note_on channel=8 note=28 velocity=0 time=60E1",
 "note_on channel=8 note=31 velocity=127 time=0G1",
 "note_on channel=8 note=31 velocity=0 time=60G1",
 "note_on channel=8 note=30 velocity=127 time=0FSHARP1",
 "note_on channel=8 note=30 velocity=0 time=60FSHARP1",
 "note_on channel=8 note=31 velocity=127 time=0G1",
 "note_on channel=8 note=31 velocity=0 time=60G1",
 "note_on channel=8 note=30 velocity=127 time=0FSHARP1",
 "note_on channel=8 note=30 velocity=0 time=60FSHARP1",
 "note_on channel=8 note=28 velocity=127 time=0E1",
 "note_on channel=8 note=28 velocity=0 time=60E1",
 "note_on channel=8 note=31 velocity=127 time=0G1",
 "note_on channel=8 note=31 velocity=0 time=60G1",
 "note_on channel=8 note=30 velocity=127 time=0FSHARP1",
 "note_on channel=8 note=30 velocity=0 time=60FSHARP1",
 "note_on channel=8 note=28 velocity=127 time=0E1",
 "note_on channel=8 note=28 velocity=0 time=60E1",
 "note_on channel=8 note=31 velocity=127 time=0G1",
 "note_on channel=8 note=31 velocity=0 time=60G1",
 "note_on channel=8 note=30 velocity=127 time=0FSHARP1",
 "note_on channel=8 note=30 velocity=0 time=60FSHARP1",
 "note_on channel=8 note=28 velocity=127 time=0E1",
 "note_on channel=8 note=28 velocity=0 time=60E1",
 "note_on channel=8 note=28 velocity=127 time=0E1",
 "note_on channel=8 note=28 velocity=0 time=60E1",
 "note_on channel=8 note=28 velocity=127 time=0E1",
 "note_on channel=8 note=28 velocity=0 time=60E1",
 "note_on channel=8 note=28 velocity=127 time=0E1",
 "note_on channel=8 note=28 velocity=0 time=60E1",
 "note_on channel=8 note=28 velocity=127 time=0E1",
 "note_on channel=8 note=28 velocity=0 time=60E1",
 "note_on channel=8 note=28 velocity=127 time=0E1",
 "note_on channel=8 note=28 velocity=0 time=60E1",
 "note_on channel=8 note=28 velocity=127 time=0E1",
 "note_on channel=8 note=28 velocity=0 time=60E1",
 "note_on channel=8 note=28 velocity=127 time=0E1",
 "note_on channel=8 note=28 velocity=0 time=60E1",
 "note_on channel=8 note=28 velocity=127 time=0E1",
 "note_on channel=8 note=28 velocity=0 time=60E1",
 "note_on channel=8 note=31 velocity=127 time=0G1",
 "note_on channel=8 note=31 velocity=0 time=60G1",
 "note_on channel=8 note=33 velocity=127 time=0A1",
 "note_on channel=8 note=33 velocity=0 time=60A1",
 "note_on channel=8 note=28 velocity=127 time=0E1",
 "note_on channel=8 note=28 velocity=0 time=60E1",
 "note_on channel=8 note=34 velocity=127 time=0BFLAT1",
 "note_on channel=8 note=34 velocity=0 time=60BFLAT1",
 "note_on channel=8 note=33 velocity=127 time=0A1",
 "note_on channel=8 note=33 velocity=0 time=60A1",
 "note_on channel=8 note=31 velocity=127 time=0G1",
 "note_on channel=8 note=31 velocity=0 time=60G1",
 "note_on channel=8 note=33 velocity=127 time=0A1",
 "note_on channel=8 note=33 velocity=0 time=60A1",
 "note_on channel=8 note=28 velocity=127 time=0E1",
 "note_on channel=8 note=28 velocity=0 time=60E1",
 "note_on channel=8 note=28 velocity=127 time=0E1",
 "note_on channel=8 note=28 velocity=0 time=60E1",
 "note_on channel=8 note=28 velocity=127 time=0E1",
 "note_on channel=8 note=28 velocity=0 time=60E1",
 "note_on channel=8 note=28 velocity=127 time=0E1",
 "note_on channel=8 note=28 velocity=0 time=60E1",
 "note_on channel=8 note=28 velocity=127 time=0E1",
 "note_on channel=8 note=28 velocity=0 time=60E1",
 "note_on channel=8 note=28 velocity=127 time=0E1",
 "note_on channel=8 note=28 velocity=0 time=60E1",
 "note_on channel=8 note=28 velocity=127 time=0E1",
 "note_on channel=8 note=28 velocity=0 time=60E1",
 "note_on channel=8 note=28 velocity=127 time=0E1",
 "note_on channel=8 note=28 velocity=0 time=60E1",
 "note_on channel=8 note=28 velocity=127 time=0E1",
 "note_on channel=8 note=28 velocity=0 time=60E1",
 "note_on channel=8 note=31 velocity=127 time=0G1",
 "note_on channel=8 note=31 velocity=0 time=60G1",
 "note_on channel=8 note=33 velocity=127 time=0A1",
 "note_on channel=8 note=33 velocity=0 time=60A1",
 "note_on channel=8 note=31 velocity=127 time=0G1",
 "note_on channel=8 note=31 velocity=0 time=60G1",
 "note_on channel=8 note=33 velocity=127 time=0A1",
 "note_on channel=8 note=33 velocity=0 time=60A1",
 "note_on channel=8 note=28 velocity=127 time=0E1",
 "note_on channel=8 note=28 velocity=0 time=60E1",
 "note_on channel=8 note=28 velocity=127 time=0E1",
 "note_on channel=8 note=28 velocity=0 time=60E1",
 "note_on channel=8 note=28 velocity=127 time=0E1",
 "note_on channel=8 note=28 velocity=0 time=60E1",
 "note_on channel=8 note=28 velocity=127 time=0E1",
 "note_on channel=8 note=28 velocity=0 time=60E1",
 "note_on channel=8 note=28 velocity=127 time=0E1",
 "note_on channel=8 note=28 velocity=0 time=60E1",
 "note_on channel=8 note=28 velocity=127 time=0E1",
 "note_on channel=8 note=28 velocity=0 time=60E1",
 "note_on channel=8 note=28 velocity=127 time=0E1",
 "note_on channel=8 note=28 velocity=0 time=60E1",
 "note_on channel=8 note=28 velocity=127 time=0E1",
 "note_on channel=8 note=28 velocity=0 time=60E1",
 "note_on channel=8 note=28 velocity=127 time=0E1",
 "note_on channel=8 note=28 velocity=0 time=60E1",
 "note_on channel=8 note=31 velocity=127 time=0G1",
 "note_on channel=8 note=31 velocity=0 time=60G1",
 "note_on channel=8 note=33 velocity=127 time=0A1",
 "note_on channel=8 note=33 velocity=0 time=60A1",
 "note_on channel=8 note=28 velocity=127 time=0E1",
 "note_on channel=8 note=28 velocity=0 time=60E1",
 "note_on channel=8 note=34 velocity=127 time=0BFLAT1",
 "note_on channel=8 note=34 velocity=0 time=60BFLAT1",
 "note_on channel=8 note=33 velocity=127 time=0A1",
 "note_on channel=8 note=33 velocity=0 time=60A1",
 "note_on channel=8 note=31 velocity=127 time=0G1",
 "note_on channel=8 note=31 velocity=0 time=60G1",
 "note_on channel=8 note=33 velocity=127 time=0A1",
 "note_on channel=8 note=33 velocity=0 time=60A1",
 "note_on channel=8 note=28 velocity=127 time=0E1",
 "note_on channel=8 note=28 velocity=0 time=60E1",
 "note_on channel=8 note=28 velocity=127 time=0E1",
 "note_on channel=8 note=28 velocity=0 time=60E1",
 "note_on channel=8 note=28 velocity=127 time=0E1",
 "note_on channel=8 note=28 velocity=0 time=60E1",
 "note_on channel=8 note=28 velocity=127 time=0E1",
 "note_on channel=8 note=28 velocity=0 time=60E1",
 "note_on channel=8 note=28 velocity=127 time=0E1",
 "note_on channel=8 note=28 velocity=0 time=60E1",
 "note_on channel=8 note=28 velocity=127 time=0E1",
 "note_on channel=8 note=28 velocity=0 time=60E1",
 "note_on channel=8 note=28 velocity=127 time=0E1",
 "note_on channel=8 note=28 velocity=0 time=60E1",
 "note_on channel=8 note=28 velocity=127 time=0E1",
 "note_on channel=8 note=28 velocity=0 time=60E1",
 "note_on channel=8 note=28 velocity=127 time=0E1",
 "note_on channel=8 note=28 velocity=0 time=60E1",
 "note_on channel=8 note=31 velocity=127 time=0G1",
 "note_on channel=8 note=31 velocity=0 time=60G1",
 "note_on channel=8 note=33 velocity=127 time=0A1",
 "note_on channel=8 note=33 velocity=0 time=60A1",
 "note_on channel=8 note=31 velocity=127 time=0G1",
 "note_on channel=8 note=31 velocity=0 time=60G1",
 "note_on channel=8 note=33 velocity=127 time=0A1",
 "note_on channel=8 note=33 velocity=0 time=60A1",
 "note_on channel=8 note=28 velocity=127 time=0E1",
 "note_on channel=8 note=28 velocity=0 time=60E1",
 "note_on channel=8 note=28 velocity=127 time=0E1",
 "note_on channel=8 note=28 velocity=0 time=60E1",
 "note_on channel=8 note=28 velocity=127 time=0E1",
 "note_on channel=8 note=28 velocity=0 time=60E1",
 "note_on channel=8 note=28 velocity=127 time=0E1",
 "note_on channel=8 note=28 velocity=0 time=60E1",
 "note_on channel=8 note=28 velocity=127 time=0E1",
 "note_on channel=8 note=28 velocity=0 time=60E1",
 "note_on channel=8 note=28 velocity=127 time=0E1",
 "note_on channel=8 note=28 velocity=0 time=60E1",
 "note_on channel=8 note=28 velocity=127 time=0E1",
 "note_on channel=8 note=28 velocity=0 time=60E1",
 "note_on channel=8 note=28 velocity=127 time=0E1",
 "note_on channel=8 note=28 velocity=0 time=60E1",
 "note_on channel=8 note=28 velocity=127 time=0E1",
 "note_on channel=8 note=28 velocity=0 time=60E1",
 "note_on channel=8 note=31 velocity=127 time=0G1",
 "note_on channel=8 note=31 velocity=0 time=60G1",
 "note_on channel=8 note=33 velocity=127 time=0A1",
 "note_on channel=8 note=33 velocity=0 time=60A1",
 "note_on channel=8 note=28 velocity=127 time=0E1",
 "note_on channel=8 note=28 velocity=0 time=60E1",
 "note_on channel=8 note=34 velocity=127 time=0BFLAT1",
 "note_on channel=8 note=34 velocity=0 time=60BFLAT1",
 "note_on channel=8 note=33 velocity=127 time=0A1",
 "note_on channel=8 note=33 velocity=0 time=60A1",
 "note_on channel=8 note=31 velocity=127 time=0G1",
 "note_on channel=8 note=31 velocity=0 time=60G1",
 "note_on channel=8 note=33 velocity=127 time=0A1",
 "note_on channel=8 note=33 velocity=0 time=60A1",
 "note_on channel=8 note=28 velocity=127 time=0E1",
 "note_on channel=8 note=28 velocity=0 time=60E1",
 "note_on channel=8 note=28 velocity=127 time=0E1",
 "note_on channel=8 note=28 velocity=0 time=60E1",
 "note_on channel=8 note=28 velocity=127 time=0E1",
 "note_on channel=8 note=28 velocity=0 time=60E1",
 "note_on channel=8 note=28 velocity=127 time=0E1",
 "note_on channel=8 note=28 velocity=0 time=60E1",
 "note_on channel=8 note=28 velocity=127 time=0E1",
 "note_on channel=8 note=28 velocity=0 time=60E1",
 "note_on channel=8 note=28 velocity=127 time=0E1",
 "note_on channel=8 note=28 velocity=0 time=60E1",
 "note_on channel=8 note=28 velocity=127 time=0E1",
 "note_on channel=8 note=28 velocity=0 time=60E1",
 "note_on channel=8 note=28 velocity=127 time=0E1",
 "note_on channel=8 note=28 velocity=0 time=60E1",
 "note_on channel=8 note=28 velocity=127 time=0E1",
 "note_on channel=8 note=28 velocity=0 time=60E1",
 "note_on channel=8 note=31 velocity=127 time=0G1",
 "note_on channel=8 note=31 velocity=0 time=60G1",
 "note_on channel=8 note=33 velocity=127 time=0A1",
 "note_on channel=8 note=33 velocity=0 time=60A1",
 "note_on channel=8 note=31 velocity=127 time=0G1",
 "note_on channel=8 note=31 velocity=0 time=60G1",
 "note_on channel=8 note=33 velocity=127 time=0A1",
 "note_on channel=8 note=33 velocity=0 time=60A1",
 "note_on channel=8 note=28 velocity=127 time=0E1",
 "note_on channel=8 note=28 velocity=0 time=60E1",
 "note_on channel=8 note=28 velocity=127 time=0E1",
 "note_on channel=8 note=28 velocity=0 time=60E1",
 "note_on channel=8 note=28 velocity=127 time=0E1",
 "note_on channel=8 note=28 velocity=0 time=60E1",
 "note_on channel=8 note=28 velocity=127 time=0E1",
 "note_on channel=8 note=28 velocity=0 time=60E1",
 "note_on channel=8 note=28 velocity=127 time=0E1",
 "note_on channel=8 note=28 velocity=0 time=60E1",
 "note_on channel=8 note=28 velocity=127 time=0E1",
 "note_on channel=8 note=28 velocity=0 time=60E1",
 "note_on channel=8 note=28 velocity=127 time=0E1",
 "note_on channel=8 note=28 velocity=0 time=60E1",
 "note_on channel=8 note=28 velocity=127 time=0E1",
 "note_on channel=8 note=28 velocity=0 time=60E1",
 "note_on channel=8 note=28 velocity=127 time=0E1",
 "note_on channel=8 note=28 velocity=0 time=60E1",
 "note_on channel=8 note=31 velocity=127 time=0G1",
 "note_on channel=8 note=31 velocity=0 time=60G1",
 "note_on channel=8 note=33 velocity=127 time=0A1",
 "note_on channel=8 note=33 velocity=0 time=60A1",
 "note_on channel=8 note=28 velocity=127 time=0E1",
 "note_on channel=8 note=28 velocity=0 time=60E1",
 "note_on channel=8 note=34 velocity=127 time=0BFLAT1",
 "note_on channel=8 note=34 velocity=0 time=60BFLAT1",
 "note_on channel=8 note=33 velocity=127 time=0A1",
 "note_on channel=8 note=33 velocity=0 time=60A1",
 "note_on channel=8 note=31 velocity=127 time=0G1",
 "note_on channel=8 note=31 velocity=0 time=60G1",
 "note_on channel=8 note=33 velocity=127 time=0A1",
 "note_on channel=8 note=33 velocity=0 time=60A1",
 "note_on channel=8 note=28 velocity=127 time=0E1",
 "note_on channel=8 note=28 velocity=0 time=60E1",
 "note_on channel=8 note=28 velocity=127 time=0E1",
 "note_on channel=8 note=28 velocity=0 time=60E1",
 "note_on channel=8 note=28 velocity=127 time=0E1",
 "note_on channel=8 note=28 velocity=0 time=60E1",
 "note_on channel=8 note=28 velocity=127 time=0E1",
 "note_on channel=8 note=28 velocity=0 time=60E1",
 "note_on channel=8 note=28 velocity=127 time=0E1",
 "note_on channel=8 note=28 velocity=0 time=60E1",
 "note_on channel=8 note=28 velocity=127 time=0E1",
 "note_on channel=8 note=28 velocity=0 time=60E1",
 "note_on channel=8 note=28 velocity=127 time=0E1",
 "note_on channel=8 note=28 velocity=0 time=60E1",
 "note_on channel=8 note=28 velocity=127 time=0E1",
 "note_on channel=8 note=28 velocity=0 time=60E1",
 "note_on channel=8 note=28 velocity=127 time=0E1",
 "note_on channel=8 note=28 velocity=0 time=60E1",
 "note_on channel=8 note=31 velocity=127 time=0G1",
 "note_on channel=8 note=31 velocity=0 time=60G1",
 "note_on channel=8 note=33 velocity=127 time=0A1",
 "note_on channel=8 note=33 velocity=0 time=60A1",
 "note_on channel=8 note=31 velocity=127 time=0G1",
 "note_on channel=8 note=31 velocity=0 time=60G1",
 "note_on channel=8 note=33 velocity=127 time=0A1",
 "note_on channel=8 note=33 velocity=0 time=60A1",
 "note_on channel=8 note=30 velocity=127 time=0FSHARP1",
 "note_on channel=8 note=30 velocity=0 time=60FSHARP1",
 "note_on channel=8 note=30 velocity=127 time=0FSHARP1",
 "note_on channel=8 note=30 velocity=0 time=60FSHARP1",
 "note_on channel=8 note=30 velocity=127 time=0FSHARP1",
 "note_on channel=8 note=30 velocity=0 time=60FSHARP1",
 "note_on channel=8 note=30 velocity=127 time=0FSHARP1",
 "note_on channel=8 note=30 velocity=0 time=60FSHARP1",
 "note_on channel=8 note=30 velocity=127 time=0FSHARP1",
 "note_on channel=8 note=30 velocity=0 time=60FSHARP1",
 "note_on channel=8 note=30 velocity=127 time=0FSHARP1",
 "note_on channel=8 note=30 velocity=0 time=60FSHARP1",
 "note_on channel=8 note=30 velocity=127 time=0FSHARP1",
 "note_on channel=8 note=30 velocity=0 time=60FSHARP1",
 "note_on channel=8 note=30 velocity=127 time=0FSHARP1",
 "note_on channel=8 note=30 velocity=0 time=60FSHARP1",
 "note_on channel=8 note=30 velocity=127 time=0FSHARP1",
 "note_on channel=8 note=30 velocity=0 time=60FSHARP1",
 "note_on channel=8 note=33 velocity=127 time=0A1",
 "note_on channel=8 note=33 velocity=0 time=60A1",
 "note_on channel=8 note=35 velocity=127 time=0B1",
 "note_on channel=8 note=35 velocity=0 time=60B1",
 "note_on channel=8 note=36 velocity=127 time=60C2",
 "note_on channel=8 note=36 velocity=0 time=60C2",
 "note_on channel=8 note=35 velocity=127 time=0B1",
 "note_on channel=8 note=35 velocity=0 time=60B1",
 "note_on channel=8 note=33 velocity=127 time=0A1",
 "note_on channel=8 note=33 velocity=0 time=60A1",
 "note_on channel=8 note=35 velocity=127 time=0B1",
 "note_on channel=8 note=35 velocity=0 time=60B1",
 "note_on channel=8 note=30 velocity=127 time=0FSHARP1",
 "note_on channel=8 note=30 velocity=0 time=60FSHARP1",
 "note_on channel=8 note=30 velocity=127 time=0FSHARP1",
 "note_on channel=8 note=30 velocity=0 time=60FSHARP1",
 "note_on channel=8 note=30 velocity=127 time=0FSHARP1",
 "note_on channel=8 note=30 velocity=0 time=60FSHARP1",
 "note_on channel=8 note=30 velocity=127 time=0FSHARP1",
 "note_on channel=8 note=30 velocity=0 time=60FSHARP1",
 "note_on channel=8 note=30 velocity=127 time=0FSHARP1",
 "note_on channel=8 note=30 velocity=0 time=60FSHARP1",
 "note_on channel=8 note=30 velocity=127 time=0FSHARP1",
 "note_on channel=8 note=30 velocity=0 time=60FSHARP1",
 "note_on channel=8 note=30 velocity=127 time=0FSHARP1",
 "note_on channel=8 note=30 velocity=0 time=60FSHARP1",
 "note_on channel=8 note=30 velocity=127 time=0FSHARP1",
 "note_on channel=8 note=30 velocity=0 time=60FSHARP1",
 "note_on channel=8 note=30 velocity=127 time=0FSHARP1",
 "note_on channel=8 note=30 velocity=0 time=60FSHARP1",
 "note_on channel=8 note=33 velocity=127 time=0A1",
 "note_on channel=8 note=33 velocity=0 time=60A1",
 "note_on channel=8 note=35 velocity=127 time=0B1",
 "note_on channel=8 note=35 velocity=0 time=60B1",
 "note_on channel=8 note=33 velocity=127 time=0A1",
 "note_on channel=8 note=33 velocity=0 time=60A1",
 "note_on channel=8 note=35 velocity=127 time=0B1",
 "note_on channel=8 note=35 velocity=0 time=60B1",
 "note_on channel=8 note=30 velocity=127 time=0FSHARP1",
 "note_on channel=8 note=30 velocity=0 time=60FSHARP1",
 "note_on channel=8 note=30 velocity=127 time=0FSHARP1",
 "note_on channel=8 note=30 velocity=0 time=60FSHARP1",
 "note_on channel=8 note=30 velocity=127 time=0FSHARP1",
 "note_on channel=8 note=30 velocity=0 time=60FSHARP1",
 "note_on channel=8 note=30 velocity=127 time=0FSHARP1",
 "note_on channel=8 note=30 velocity=0 time=60FSHARP1",
 "note_on channel=8 note=30 velocity=127 time=0FSHARP1",
 "note_on channel=8 note=30 velocity=0 time=60FSHARP1",
 "note_on channel=8 note=30 velocity=127 time=0FSHARP1",
 "note_on channel=8 note=30 velocity=0 time=60FSHARP1",
 "note_on channel=8 note=30 velocity=127 time=0FSHARP1",
 "note_on channel=8 note=30 velocity=0 time=60FSHARP1",
 "note_on channel=8 note=30 velocity=127 time=0FSHARP1",
 "note_on channel=8 note=30 velocity=0 time=60FSHARP1",
 "note_on channel=8 note=30 velocity=127 time=0FSHARP1",
 "note_on channel=8 note=30 velocity=0 time=60FSHARP1",
 "note_on channel=8 note=33 velocity=127 time=0A1",
 "note_on channel=8 note=33 velocity=0 time=60A1",
 "note_on channel=8 note=35 velocity=127 time=0B1",
 "note_on channel=8 note=35 velocity=0 time=60B1",
 "note_on channel=8 note=36 velocity=127 time=60C2",
 "note_on channel=8 note=36 velocity=0 time=60C2",
 "note_on channel=8 note=35 velocity=127 time=0B1",
 "note_on channel=8 note=35 velocity=0 time=60B1",
 "note_on channel=8 note=33 velocity=127 time=0A1",
 "note_on channel=8 note=33 velocity=0 time=60A1",
 "note_on channel=8 note=35 velocity=127 time=0B1",
 "note_on channel=8 note=35 velocity=0 time=60B1",
 "note_on channel=8 note=30 velocity=127 time=0FSHARP1",
 "note_on channel=8 note=30 velocity=0 time=60FSHARP1",
 "note_on channel=8 note=30 velocity=127 time=0FSHARP1",
 "note_on channel=8 note=30 velocity=0 time=60FSHARP1",
 "note_on channel=8 note=30 velocity=127 time=0FSHARP1",
 "note_on channel=8 note=30 velocity=0 time=60FSHARP1",
 "note_on channel=8 note=30 velocity=127 time=0FSHARP1",
 "note_on channel=8 note=30 velocity=0 time=60FSHARP1",
 "note_on channel=8 note=30 velocity=127 time=0FSHARP1",
 "note_on channel=8 note=30 velocity=0 time=60FSHARP1",
 "note_on channel=8 note=30 velocity=127 time=0FSHARP1",
 "note_on channel=8 note=30 velocity=0 time=60FSHARP1",
 "note_on channel=8 note=30 velocity=127 time=0FSHARP1",
 "note_on channel=8 note=30 velocity=0 time=60FSHARP1",
 "note_on channel=8 note=30 velocity=127 time=0FSHARP1",
 "note_on channel=8 note=30 velocity=0 time=60FSHARP1",
 "note_on channel=8 note=30 velocity=127 time=0FSHARP1",
 "note_on channel=8 note=30 velocity=0 time=60FSHARP1",
 "note_on channel=8 note=33 velocity=127 time=0A1",
 "note_on channel=8 note=33 velocity=0 time=60A1",
 "note_on channel=8 note=35 velocity=127 time=0B1",
 "note_on channel=8 note=35 velocity=0 time=60B1",
 "note_on channel=8 note=33 velocity=127 time=0A1",
 "note_on channel=8 note=33 velocity=0 time=60A1",
 "note_on channel=8 note=35 velocity=127 time=0B1",
 "note_on channel=8 note=35 velocity=0 time=60B1",
 "note_on channel=8 note=35 velocity=127 time=0B1",
 "note_on channel=8 note=35 velocity=0 time=60B1",
 "note_on channel=8 note=35 velocity=127 time=0B1",
 "note_on channel=8 note=35 velocity=0 time=60B1",
 "note_on channel=8 note=35 velocity=127 time=0B1",
 "note_on channel=8 note=35 velocity=0 time=60B1",
 "note_on channel=8 note=35 velocity=127 time=0B1",
 "note_on channel=8 note=35 velocity=0 time=60B1",
 "note_on channel=8 note=35 velocity=127 time=0B1",
 "note_on channel=8 note=35 velocity=0 time=60B1",
 "note_on channel=8 note=35 velocity=127 time=0B1",
 "note_on channel=8 note=35 velocity=0 time=60B1",
 "note_on channel=8 note=35 velocity=127 time=0B1",
 "note_on channel=8 note=35 velocity=0 time=60B1",
 "note_on channel=8 note=35 velocity=127 time=0B1",
 "note_on channel=8 note=35 velocity=0 time=60B1",
 "note_on channel=8 note=40 velocity=127 time=0E2",
 "note_on channel=8 note=40 velocity=0 time=60E2",
 "note_on channel=8 note=28 velocity=127 time=0E1",
 "note_on channel=8 note=28 velocity=0 time=60E1",
 "note_on channel=8 note=28 velocity=127 time=0E1",
 "note_on channel=8 note=28 velocity=0 time=60E1",
 "note_on channel=8 note=28 velocity=127 time=0E1",
 "note_on channel=8 note=28 velocity=0 time=60E1",
 "note_on channel=8 note=38 velocity=127 time=0D2",
 "note_on channel=8 note=38 velocity=0 time=120D2",
 "note_on channel=8 note=40 velocity=127 time=0E2",
 "note_on channel=8 note=40 velocity=0 time=120E2",
 "note_on channel=8 note=28 velocity=127 time=0E1",
 "note_on channel=8 note=28 velocity=0 time=180E1",
 "note_on channel=8 note=30 velocity=127 time=0FSHARP1",
 "note_on channel=8 note=30 velocity=0 time=60FSHARP1",
 "note_on channel=8 note=31 velocity=127 time=0G1",
 "note_on channel=8 note=31 velocity=0 time=240G1",
 "note_on channel=8 note=36 velocity=127 time=0C2",
 "note_on channel=8 note=36 velocity=0 time=60C2",
 "note_on channel=8 note=36 velocity=127 time=0C2",
 "note_on channel=8 note=36 velocity=0 time=60C2",
 "note_on channel=8 note=36 velocity=127 time=0C2",
 "note_on channel=8 note=36 velocity=0 time=60C2",
 "note_on channel=8 note=36 velocity=127 time=0C2",
 "note_on channel=8 note=36 velocity=0 time=60C2",
 "note_on channel=8 note=36 velocity=127 time=0C2",
 "note_on channel=8 note=36 velocity=0 time=120C2",
 "note_on channel=8 note=35 velocity=127 time=0B1",
 "note_on channel=8 note=35 velocity=0 time=120B1",
 "note_on channel=8 note=36 velocity=127 time=0C2",
 "note_on channel=8 note=36 velocity=0 time=60C2",
 "note_on channel=8 note=36 velocity=127 time=0C2",
 "note_on channel=8 note=36 velocity=0 time=60C2",
 "note_on channel=8 note=36 velocity=127 time=0C2",
 "note_on channel=8 note=36 velocity=0 time=60C2",
 "note_on channel=8 note=36 velocity=127 time=0C2",
 "note_on channel=8 note=36 velocity=0 time=60C2",
 "note_on channel=8 note=39 velocity=127 time=0DSHARP2",
 "note_on channel=8 note=39 velocity=0 time=120DSHARP2",
 "note_on channel=8 note=35 velocity=127 time=0B1",
 "note_on channel=8 note=35 velocity=0 time=120B1",
 "note_on channel=8 note=40 velocity=127 time=0E2",
 "note_on channel=8 note=40 velocity=0 time=60E2",
 "note_on channel=8 note=28 velocity=127 time=0E1",
 "note_on channel=8 note=28 velocity=0 time=60E1",
 "note_on channel=8 note=28 velocity=127 time=0E1",
 "note_on channel=8 note=28 velocity=0 time=60E1",
 "note_on channel=8 note=28 velocity=127 time=0E1",
 "note_on channel=8 note=28 velocity=0 time=60E1",
 "note_on channel=8 note=38 velocity=127 time=0D2",
 "note_on channel=8 note=38 velocity=0 time=120D2",
 "note_on channel=8 note=40 velocity=127 time=0E2",
 "note_on channel=8 note=40 velocity=0 time=120E2",
 "note_on channel=8 note=28 velocity=127 time=0E1",
 "note_on channel=8 note=28 velocity=0 time=180E1",
 "note_on channel=8 note=30 velocity=127 time=0FSHARP1",
 "note_on channel=8 note=30 velocity=0 time=60FSHARP1",
 "note_on channel=8 note=31 velocity=127 time=0G1",
 "note_on channel=8 note=31 velocity=0 time=240G1",
 "note_on channel=8 note=36 velocity=127 time=0C2",
 "note_on channel=8 note=36 velocity=0 time=60C2",
 "note_on channel=8 note=36 velocity=127 time=0C2",
 "note_on channel=8 note=36 velocity=0 time=60C2",
 "note_on channel=8 note=36 velocity=127 time=0C2",
 "note_on channel=8 note=36 velocity=0 time=60C2",
 "note_on channel=8 note=36 velocity=127 time=0C2",
 "note_on channel=8 note=36 velocity=0 time=60C2",
 "note_on channel=8 note=36 velocity=127 time=0C2",
 "note_on channel=8 note=36 velocity=0 time=120C2",
 "note_on channel=8 note=35 velocity=127 time=0B1",
 "note_on channel=8 note=35 velocity=0 time=120B1",
 "note_on channel=8 note=36 velocity=127 time=0C2",
 "note_on channel=8 note=36 velocity=0 time=60C2",
 "note_on channel=8 note=36 velocity=127 time=0C2",
 "note_on channel=8 note=36 velocity=0 time=60C2",
 "note_on channel=8 note=36 velocity=127 time=0C2",
 "note_on channel=8 note=36 velocity=0 time=60C2",
 "note_on channel=8 note=36 velocity=127 time=0C2",
 "note_on channel=8 note=36 velocity=0 time=60C2",
 "note_on channel=8 note=39 velocity=127 time=0DSHARP2",
 "note_on channel=8 note=39 velocity=0 time=120DSHARP2",
 "note_on channel=8 note=35 velocity=127 time=0B1",
 "note_on channel=8 note=35 velocity=0 time=120B1",
 "note_on channel=8 note=40 velocity=127 time=0E2",
 "note_on channel=8 note=40 velocity=0 time=60E2",
 "note_on channel=8 note=28 velocity=127 time=0E1",
 "note_on channel=8 note=28 velocity=0 time=60E1",
 "note_on channel=8 note=28 velocity=127 time=0E1",
 "note_on channel=8 note=28 velocity=0 time=60E1",
 "note_on channel=8 note=28 velocity=127 time=0E1",
 "note_on channel=8 note=28 velocity=0 time=60E1",
 "note_on channel=8 note=38 velocity=127 time=0D2",
 "note_on channel=8 note=38 velocity=0 time=120D2",
 "note_on channel=8 note=40 velocity=127 time=0E2",
 "note_on channel=8 note=40 velocity=0 time=120E2",
 "note_on channel=8 note=28 velocity=127 time=0E1",
 "note_on channel=8 note=28 velocity=0 time=180E1",
 "note_on channel=8 note=30 velocity=127 time=0FSHARP1",
 "note_on channel=8 note=30 velocity=0 time=60FSHARP1",
 "note_on channel=8 note=31 velocity=127 time=0G1",
 "note_on channel=8 note=31 velocity=0 time=240G1",
 "note_on channel=8 note=36 velocity=127 time=0C2",
 "note_on channel=8 note=36 velocity=0 time=60C2",
 "note_on channel=8 note=36 velocity=127 time=0C2",
 "note_on channel=8 note=36 velocity=0 time=60C2",
 "note_on channel=8 note=36 velocity=127 time=0C2",
 "note_on channel=8 note=36 velocity=0 time=60C2",
 "note_on channel=8 note=36 velocity=127 time=0C2",
 "note_on channel=8 note=36 velocity=0 time=60C2",
 "note_on channel=8 note=36 velocity=127 time=0C2",
 "note_on channel=8 note=36 velocity=0 time=120C2",
 "note_on channel=8 note=35 velocity=127 time=0B1",
 "note_on channel=8 note=35 velocity=0 time=120B1",
 "note_on channel=8 note=36 velocity=127 time=0C2",
 "note_on channel=8 note=36 velocity=0 time=60C2",
 "note_on channel=8 note=36 velocity=127 time=0C2",
 "note_on channel=8 note=36 velocity=0 time=60C2",
 "note_on channel=8 note=36 velocity=127 time=0C2",
 "note_on channel=8 note=36 velocity=0 time=60C2",
 "note_on channel=8 note=36 velocity=127 time=0C2",
 "note_on channel=8 note=36 velocity=0 time=60C2",
 "note_on channel=8 note=39 velocity=127 time=0DSHARP2",
 "note_on channel=8 note=39 velocity=0 time=120DSHARP2",
 "note_on channel=8 note=35 velocity=127 time=0B1",
 "note_on channel=8 note=35 velocity=0 time=120B1",
 "note_on channel=8 note=40 velocity=127 time=0E2",
 "note_on channel=8 note=40 velocity=0 time=60E2",
 "note_on channel=8 note=28 velocity=127 time=0E1",
 "note_on channel=8 note=28 velocity=0 time=60E1",
 "note_on channel=8 note=28 velocity=127 time=0E1",
 "note_on channel=8 note=28 velocity=0 time=60E1",
 "note_on channel=8 note=28 velocity=127 time=0E1",
 "note_on channel=8 note=28 velocity=0 time=60E1",
 "note_on channel=8 note=38 velocity=127 time=0D2",
 "note_on channel=8 note=38 velocity=0 time=120D2",
 "note_on channel=8 note=40 velocity=127 time=0E2",
 "note_on channel=8 note=40 velocity=0 time=120E2",
 "note_on channel=8 note=28 velocity=127 time=0E1",
 "note_on channel=8 note=28 velocity=0 time=180E1",
 "note_on channel=8 note=30 velocity=127 time=0FSHARP1",
 "note_on channel=8 note=30 velocity=0 time=60FSHARP1",
 "note_on channel=8 note=31 velocity=127 time=0G1",
 "note_on channel=8 note=31 velocity=0 time=240G1",
 "note_on channel=8 note=36 velocity=127 time=0C2",
 "note_on channel=8 note=36 velocity=0 time=60C2",
 "note_on channel=8 note=36 velocity=127 time=0C2",
 "note_on channel=8 note=36 velocity=0 time=60C2",
 "note_on channel=8 note=36 velocity=127 time=0C2",
 "note_on channel=8 note=36 velocity=0 time=60C2",
 "note_on channel=8 note=36 velocity=127 time=0C2",
 "note_on channel=8 note=36 velocity=0 time=60C2",
 "note_on channel=8 note=36 velocity=127 time=0C2",
 "note_on channel=8 note=36 velocity=0 time=120C2",
 "note_on channel=8 note=35 velocity=127 time=0B1",
 "note_on channel=8 note=35 velocity=0 time=120B1",
 "note_on channel=8 note=42 velocity=127 time=0FSHARP2",
 "note_on channel=8 note=42 velocity=0 time=60FSHARP2",
 "note_on channel=8 note=40 velocity=127 time=0E2",
 "note_on channel=8 note=40 velocity=0 time=60E2",
 "note_on channel=8 note=39 velocity=127 time=0DSHARP2",
 "note_on channel=8 note=39 velocity=0 time=60DSHARP2",
 "note_on channel=8 note=39 velocity=127 time=60DSHARP2",
 "note_on channel=8 note=39 velocity=0 time=60DSHARP2",
 "note_on channel=8 note=36 velocity=127 time=0C2",
 "note_on channel=8 note=36 velocity=0 time=60C2",
 "note_on channel=8 note=35 velocity=127 time=0B1",
 "note_on channel=8 note=35 velocity=0 time=60B1",
 "note_on channel=8 note=28 velocity=127 time=60E1",
 "note_on channel=8 note=28 velocity=0 time=120E1",
 "note_on channel=8 note=28 velocity=127 time=0E1",
 "note_on channel=8 note=28 velocity=0 time=120E1",
 "note_on channel=8 note=29 velocity=127 time=240F1",
 "note_on channel=8 note=29 velocity=0 time=120F1",
 "note_on channel=8 note=29 velocity=127 time=0F1",
 "note_on channel=8 note=29 velocity=0 time=120F1",
 "note_on channel=8 note=28 velocity=127 time=240E1",
 "note_on channel=8 note=28 velocity=0 time=360E1",
 "note_on channel=8 note=28 velocity=127 time=0E1",
 "note_on channel=8 note=28 velocity=0 time=60E1",
 "note_on channel=8 note=28 velocity=127 time=0E1",
 "note_on channel=8 note=28 velocity=0 time=60E1",
 "note_on channel=8 note=30 velocity=127 time=0FSHARP1",
 "note_on channel=8 note=30 velocity=0 time=60FSHARP1",
 "note_on channel=8 note=28 velocity=127 time=0E1",
 "note_on channel=8 note=28 velocity=0 time=60E1",
 "note_on channel=8 note=28 velocity=127 time=0E1",
 "note_on channel=8 note=28 velocity=0 time=60E1",
 "note_on channel=8 note=28 velocity=127 time=0E1",
 "note_on channel=8 note=28 velocity=0 time=60E1",
 "note_on channel=8 note=31 velocity=127 time=0G1",
 "note_on channel=8 note=31 velocity=0 time=120G1",
 "note_on channel=8 note=31 velocity=127 time=0G1",
 "note_on channel=8 note=31 velocity=0 time=60G1",
 "note_on channel=8 note=31 velocity=127 time=0G1",
 "note_on channel=8 note=31 velocity=0 time=120G1",
 "note_on channel=8 note=31 velocity=127 time=0G1",
 "note_on channel=8 note=31 velocity=0 time=60G1",
 "note_on channel=8 note=31 velocity=127 time=0G1",
 "note_on channel=8 note=31 velocity=0 time=120G1",
 "note_on channel=8 note=31 velocity=127 time=0G1",
 "note_on channel=8 note=31 velocity=0 time=60G1",
 "note_on channel=8 note=31 velocity=127 time=0G1",
 "note_on channel=8 note=31 velocity=0 time=60G1",
 "note_on channel=8 note=31 velocity=127 time=0G1",
 "note_on channel=8 note=31 velocity=0 time=60G1",
 "note_on channel=8 note=31 velocity=127 time=0G1",
 "note_on channel=8 note=31 velocity=0 time=60G1",
 "note_on channel=8 note=31 velocity=127 time=0G1",
 "note_on channel=8 note=31 velocity=0 time=60G1",
 "note_on channel=8 note=31 velocity=127 time=0G1",
 "note_on channel=8 note=31 velocity=0 time=30G1",
 "note_on channel=8 note=31 velocity=127 time=0G1",
 "note_on channel=8 note=31 velocity=0 time=30G1",
 "note_on channel=8 note=31 velocity=127 time=0G1",
 "note_on channel=8 note=31 velocity=0 time=120G1",
 "note_on channel=8 note=36 velocity=127 time=0C2",
 "note_on channel=8 note=36 velocity=0 time=120C2",
 "note_on channel=8 note=35 velocity=127 time=0B1",
 "note_on channel=8 note=35 velocity=0 time=60B1",
 "note_on channel=8 note=36 velocity=127 time=0C2",
 "note_on channel=8 note=36 velocity=0 time=60C2",
 "note_on channel=8 note=36 velocity=127 time=0C2",
 "note_on channel=8 note=36 velocity=0 time=60C2",
 "note_on channel=8 note=33 velocity=127 time=0A1",
 "note_on channel=8 note=33 velocity=0 time=60A1",
 "note_on channel=8 note=33 velocity=127 time=0A1",
 "note_on channel=8 note=33 velocity=0 time=60A1",
 "note_on channel=8 note=33 velocity=127 time=0A1",
 "note_on channel=8 note=33 velocity=0 time=60A1",
 "note_on channel=8 note=35 velocity=127 time=0B1",
 "note_on channel=8 note=35 velocity=0 time=60B1",
 "note_on channel=8 note=33 velocity=127 time=0A1",
 "note_on channel=8 note=33 velocity=0 time=60A1",
 "note_on channel=8 note=33 velocity=127 time=0A1",
 "note_on channel=8 note=33 velocity=0 time=60A1",
 "note_on channel=8 note=33 velocity=127 time=0A1",
 "note_on channel=8 note=33 velocity=0 time=60A1",
 "note_on channel=8 note=33 velocity=127 time=0A1",
 "note_on channel=8 note=33 velocity=0 time=120A1",
 "note_on channel=8 note=33 velocity=127 time=0A1",
 "note_on channel=8 note=33 velocity=0 time=120A1",
 "note_on channel=8 note=33 velocity=127 time=0A1",
 "note_on channel=8 note=33 velocity=0 time=60A1",
 "note_on channel=8 note=33 velocity=127 time=0A1",
 "note_on channel=8 note=33 velocity=0 time=60A1",
 "note_on channel=8 note=33 velocity=127 time=0A1",
 "note_on channel=8 note=33 velocity=0 time=600A1",
 "note_on channel=8 note=38 velocity=127 time=0D2",
 "note_on channel=8 note=38 velocity=0 time=300D2",
 "note_on channel=8 note=31 velocity=127 time=0G1",
 "note_on channel=8 note=31 velocity=0 time=60G1",
 "note_on channel=8 note=31 velocity=127 time=0G1",
 "note_on channel=8 note=31 velocity=0 time=60G1",
 "note_on channel=8 note=31 velocity=127 time=0G1",
 "note_on channel=8 note=31 velocity=0 time=60G1",
 "note_on channel=8 note=36 velocity=127 time=0C2",
 "note_on channel=8 note=36 velocity=0 time=60C2",
 "note_on channel=8 note=31 velocity=127 time=0G1",
 "note_on channel=8 note=31 velocity=0 time=60G1",
 "note_on channel=8 note=31 velocity=127 time=0G1",
 "note_on channel=8 note=31 velocity=0 time=60G1",
 "note_on channel=8 note=31 velocity=127 time=0G1",
 "note_on channel=8 note=31 velocity=0 time=60G1",
 "note_on channel=8 note=35 velocity=127 time=0B1",
 "note_on channel=8 note=35 velocity=0 time=120B1",
 "note_on channel=8 note=35 velocity=127 time=0B1",
 "note_on channel=8 note=35 velocity=0 time=60B1",
 "note_on channel=8 note=35 velocity=127 time=0B1",
 "note_on channel=8 note=35 velocity=0 time=120B1",
 "note_on channel=8 note=35 velocity=127 time=0B1",
 "note_on channel=8 note=35 velocity=0 time=60B1",
 "note_on channel=8 note=39 velocity=127 time=0DSHARP2",
 "note_on channel=8 note=39 velocity=0 time=120DSHARP2",
 "note_on channel=8 note=40 velocity=127 time=0E2",
 "note_on channel=8 note=40 velocity=0 time=300E2",
 "note_on channel=8 note=40 velocity=127 time=0E2",
 "note_on channel=8 note=40 velocity=0 time=60E2",
 "note_on channel=8 note=40 velocity=127 time=0E2",
 "note_on channel=8 note=40 velocity=0 time=60E2",
 "note_on channel=8 note=40 velocity=127 time=0E2",
 "note_on channel=8 note=40 velocity=0 time=60E2",
 "note_on channel=8 note=38 velocity=127 time=0D2",
 "note_on channel=8 note=38 velocity=0 time=120D2",
 "note_on channel=8 note=28 velocity=127 time=0E1",
 "note_on channel=8 note=28 velocity=0 time=60E1",
 "note_on channel=8 note=28 velocity=127 time=0E1",
 "note_on channel=8 note=28 velocity=0 time=60E1",
 "note_on channel=8 note=36 velocity=127 time=0C2",
 "note_on channel=8 note=36 velocity=0 time=120C2",
 "note_on channel=8 note=36 velocity=127 time=0C2",
 "note_on channel=8 note=36 velocity=0 time=60C2",
 "note_on channel=8 note=36 velocity=127 time=0C2",
 "note_on channel=8 note=36 velocity=0 time=120C2",
 "note_on channel=8 note=36 velocity=127 time=0C2",
 "note_on channel=8 note=36 velocity=0 time=60C2",
 "note_on channel=8 note=36 velocity=127 time=0C2",
 "note_on channel=8 note=36 velocity=0 time=120C2",
 "note_on channel=8 note=36 velocity=127 time=0C2",
 "note_on channel=8 note=36 velocity=0 time=60C2",
 "note_on channel=8 note=36 velocity=127 time=0C2",
 "note_on channel=8 note=36 velocity=0 time=60C2",
 "note_on channel=8 note=36 velocity=127 time=0C2",
 "note_on channel=8 note=36 velocity=0 time=120C2",
 "note_on channel=8 note=28 velocity=127 time=0E1",
 "note_on channel=8 note=28 velocity=0 time=120E1",
 "note_on channel=8 note=28 velocity=127 time=0E1",
 "note_on channel=8 note=28 velocity=0 time=120E1",
 "note_on channel=8 note=29 velocity=127 time=240F1",
 "note_on channel=8 note=29 velocity=0 time=120F1",
 "note_on channel=8 note=29 velocity=127 time=0F1",
 "note_on channel=8 note=29 velocity=0 time=120F1",
 "note_on channel=8 note=28 velocity=127 time=240E1",
 "note_on channel=8 note=28 velocity=0 time=300E1",
 "note_on channel=8 note=28 velocity=127 time=0E1",
 "note_on channel=8 note=28 velocity=0 time=60E1",
 "note_on channel=8 note=28 velocity=127 time=0E1",
 "note_on channel=8 note=28 velocity=0 time=60E1",
 "note_on channel=8 note=28 velocity=127 time=0E1",
 "note_on channel=8 note=28 velocity=0 time=60E1",
 "note_on channel=8 note=30 velocity=127 time=0FSHARP1",
 "note_on channel=8 note=30 velocity=0 time=60FSHARP1",
 "note_on channel=8 note=28 velocity=127 time=0E1",
 "note_on channel=8 note=28 velocity=0 time=60E1",
 "note_on channel=8 note=28 velocity=127 time=0E1",
 "note_on channel=8 note=28 velocity=0 time=60E1",
 "note_on channel=8 note=28 velocity=127 time=0E1",
 "note_on channel=8 note=28 velocity=0 time=60E1",
 "note_on channel=8 note=36 velocity=127 time=0C2",
 "note_on channel=8 note=36 velocity=0 time=120C2",
 "note_on channel=8 note=36 velocity=127 time=0C2",
 "note_on channel=8 note=36 velocity=0 time=60C2",
 "note_on channel=8 note=36 velocity=127 time=0C2",
 "note_on channel=8 note=36 velocity=0 time=120C2",
 "note_on channel=8 note=36 velocity=127 time=0C2",
 "note_on channel=8 note=36 velocity=0 time=60C2",
 "note_on channel=8 note=36 velocity=127 time=0C2",
 "note_on channel=8 note=36 velocity=0 time=120C2",
 "note_on channel=8 note=36 velocity=127 time=0C2",
 "note_on channel=8 note=36 velocity=0 time=60C2",
 "note_on channel=8 note=36 velocity=127 time=0C2",
 "note_on channel=8 note=36 velocity=0 time=60C2",
 "note_on channel=8 note=35 velocity=127 time=0B1",
 "note_on channel=8 note=35 velocity=0 time=60B1",
 "note_on channel=8 note=35 velocity=127 time=0B1",
 "note_on channel=8 note=35 velocity=0 time=60B1",
 "note_on channel=8 note=33 velocity=127 time=0A1",
 "note_on channel=8 note=33 velocity=0 time=60A1",
 "note_on channel=8 note=33 velocity=127 time=0A1",
 "note_on channel=8 note=33 velocity=0 time=60A1",
 "note_on channel=8 note=31 velocity=127 time=0G1",
 "note_on channel=8 note=31 velocity=0 time=60G1",
 "note_on channel=8 note=31 velocity=127 time=0G1",
 "note_on channel=8 note=31 velocity=0 time=60G1",
 "note_on channel=8 note=28 velocity=127 time=0E1",
 "note_on channel=8 note=28 velocity=0 time=120E1",
 "note_on channel=8 note=28 velocity=127 time=0E1",
 "note_on channel=8 note=28 velocity=0 time=120E1",
 "note_on channel=8 note=29 velocity=127 time=240F1",
 "note_on channel=8 note=29 velocity=0 time=120F1",
 "note_on channel=8 note=29 velocity=127 time=0F1",
 "note_on channel=8 note=29 velocity=0 time=120F1",
 "note_on channel=8 note=40 velocity=127 time=3120E2",
 "note_on channel=8 note=40 velocity=0 time=240E2",
 "note_on channel=8 note=38 velocity=127 time=0D2",
 "note_on channel=8 note=38 velocity=0 time=480D2",
 "note_on channel=8 note=36 velocity=127 time=0C2",
 "note_on channel=8 note=36 velocity=0 time=480C2",
 "note_on channel=8 note=36 velocity=127 time=0C2",
 "note_on channel=8 note=36 velocity=0 time=240C2",
 "note_on channel=8 note=38 velocity=127 time=0D2",
 "note_on channel=8 note=38 velocity=0 time=240D2",
 "note_on channel=8 note=39 velocity=127 time=0DSHARP2",
 "note_on channel=8 note=39 velocity=0 time=240DSHARP2",
 "note_on channel=8 note=40 velocity=127 time=0E2",
 "note_on channel=8 note=40 velocity=0 time=60E2",
 "note_on channel=8 note=47 velocity=127 time=0B2",
 "note_on channel=8 note=47 velocity=0 time=60B2",
 "note_on channel=8 note=47 velocity=127 time=0B2",
 "note_on channel=8 note=47 velocity=0 time=60B2",
 "note_on channel=8 note=40 velocity=127 time=0E2",
 "note_on channel=8 note=40 velocity=0 time=60E2",
 "note_on channel=8 note=38 velocity=127 time=0D2",
 "note_on channel=8 note=38 velocity=0 time=180D2",
 "note_on channel=8 note=38 velocity=127 time=0D2",
 "note_on channel=8 note=38 velocity=0 time=60D2",
 "note_on channel=8 note=38 velocity=127 time=0D2",
 "note_on channel=8 note=38 velocity=0 time=60D2",
 "note_on channel=8 note=38 velocity=127 time=0D2",
 "note_on channel=8 note=38 velocity=0 time=60D2",
 "note_on channel=8 note=33 velocity=127 time=0A1",
 "note_on channel=8 note=33 velocity=0 time=60A1",
 "note_on channel=8 note=38 velocity=127 time=0D2",
 "note_on channel=8 note=38 velocity=0 time=60D2",
 "note_on channel=8 note=36 velocity=127 time=0C2",
 "note_on channel=8 note=36 velocity=0 time=60C2",
 "note_on channel=8 note=36 velocity=127 time=0C2",
 "note_on channel=8 note=36 velocity=0 time=120C2",
 "note_on channel=8 note=36 velocity=127 time=0C2",
 "note_on channel=8 note=36 velocity=0 time=30C2",
 "note_on channel=8 note=36 velocity=127 time=0C2",
 "note_on channel=8 note=36 velocity=0 time=30C2",
 "note_on channel=8 note=36 velocity=127 time=0C2",
 "note_on channel=8 note=36 velocity=0 time=60C2",
 "note_on channel=8 note=36 velocity=127 time=0C2",
 "note_on channel=8 note=36 velocity=0 time=60C2",
 "note_on channel=8 note=33 velocity=127 time=0A1",
 "note_on channel=8 note=33 velocity=0 time=60A1",
 "note_on channel=8 note=36 velocity=127 time=0C2",
 "note_on channel=8 note=36 velocity=0 time=60C2",
 "note_on channel=8 note=33 velocity=127 time=0A1",
 "note_on channel=8 note=33 velocity=0 time=180A1",
 "note_on channel=8 note=33 velocity=127 time=0A1",
 "note_on channel=8 note=33 velocity=0 time=60A1",
 "note_on channel=8 note=35 velocity=127 time=0B1",
 "note_on channel=8 note=35 velocity=0 time=60B1",
 "note_on channel=8 note=35 velocity=127 time=0B1",
 "note_on channel=8 note=35 velocity=0 time=30B1",
 "note_on channel=8 note=35 velocity=127 time=0B1",
 "note_on channel=8 note=35 velocity=0 time=30B1",
 "note_on channel=8 note=33 velocity=127 time=0A1",
 "note_on channel=8 note=33 velocity=0 time=60A1",
 "note_on channel=8 note=35 velocity=127 time=0B1",
 "note_on channel=8 note=35 velocity=0 time=60B1",
 "note_on channel=8 note=39 velocity=127 time=0DSHARP2",
 "note_on channel=8 note=39 velocity=0 time=30DSHARP2",
 "note_on channel=8 note=39 velocity=127 time=0DSHARP2",
 "note_on channel=8 note=39 velocity=0 time=30DSHARP2",
 "note_on channel=8 note=39 velocity=127 time=0DSHARP2",
 "note_on channel=8 note=39 velocity=0 time=30DSHARP2",
 "note_on channel=8 note=39 velocity=127 time=0DSHARP2",
 "note_on channel=8 note=39 velocity=0 time=30DSHARP2",
 "note_on channel=8 note=33 velocity=127 time=0A1",
 "note_on channel=8 note=33 velocity=0 time=60A1",
 "note_on channel=8 note=39 velocity=127 time=0DSHARP2",
 "note_on channel=8 note=39 velocity=0 time=60DSHARP2",
 "note_on channel=8 note=40 velocity=127 time=0E2",
 "note_on channel=8 note=40 velocity=0 time=60E2",
 "note_on channel=8 note=47 velocity=127 time=0B2",
 "note_on channel=8 note=47 velocity=0 time=60B2",
 "note_on channel=8 note=47 velocity=127 time=0B2",
 "note_on channel=8 note=47 velocity=0 time=60B2",
 "note_on channel=8 note=40 velocity=127 time=0E2",
 "note_on channel=8 note=40 velocity=0 time=60E2",
 "note_on channel=8 note=38 velocity=127 time=0D2",
 "note_on channel=8 note=38 velocity=0 time=180D2",
 "note_on channel=8 note=38 velocity=127 time=0D2",
 "note_on channel=8 note=38 velocity=0 time=60D2",
 "note_on channel=8 note=38 velocity=127 time=0D2",
 "note_on channel=8 note=38 velocity=0 time=60D2",
 "note_on channel=8 note=38 velocity=127 time=0D2",
 "note_on channel=8 note=38 velocity=0 time=60D2",
 "note_on channel=8 note=33 velocity=127 time=0A1",
 "note_on channel=8 note=33 velocity=0 time=60A1",
 "note_on channel=8 note=38 velocity=127 time=0D2",
 "note_on channel=8 note=38 velocity=0 time=60D2",
 "note_on channel=8 note=36 velocity=127 time=0C2",
 "note_on channel=8 note=36 velocity=0 time=60C2",
 "note_on channel=8 note=36 velocity=127 time=0C2",
 "note_on channel=8 note=36 velocity=0 time=120C2",
 "note_on channel=8 note=36 velocity=127 time=0C2",
 "note_on channel=8 note=36 velocity=0 time=30C2",
 "note_on channel=8 note=36 velocity=127 time=0C2",
 "note_on channel=8 note=36 velocity=0 time=30C2",
 "note_on channel=8 note=36 velocity=127 time=0C2",
 "note_on channel=8 note=36 velocity=0 time=60C2",
 "note_on channel=8 note=36 velocity=127 time=0C2",
 "note_on channel=8 note=36 velocity=0 time=60C2",
 "note_on channel=8 note=33 velocity=127 time=0A1",
 "note_on channel=8 note=33 velocity=0 time=60A1",
 "note_on channel=8 note=36 velocity=127 time=0C2",
 "note_on channel=8 note=36 velocity=0 time=60C2",
 "note_on channel=8 note=33 velocity=127 time=0A1",
 "note_on channel=8 note=33 velocity=0 time=180A1",
 "note_on channel=8 note=33 velocity=127 time=0A1",
 "note_on channel=8 note=33 velocity=0 time=60A1",
 "note_on channel=8 note=35 velocity=127 time=0B1",
 "note_on channel=8 note=35 velocity=0 time=60B1",
 "note_on channel=8 note=35 velocity=127 time=0B1",
 "note_on channel=8 note=35 velocity=0 time=30B1",
 "note_on channel=8 note=35 velocity=127 time=0B1",
 "note_on channel=8 note=35 velocity=0 time=30B1",
 "note_on channel=8 note=33 velocity=127 time=0A1",
 "note_on channel=8 note=33 velocity=0 time=60A1",
 "note_on channel=8 note=35 velocity=127 time=0B1",
 "note_on channel=8 note=35 velocity=0 time=60B1",
 "note_on channel=8 note=39 velocity=127 time=0DSHARP2",
 "note_on channel=8 note=39 velocity=0 time=30DSHARP2",
 "note_on channel=8 note=39 velocity=127 time=0DSHARP2",
 "note_on channel=8 note=39 velocity=0 time=30DSHARP2",
 "note_on channel=8 note=39 velocity=127 time=0DSHARP2",
 "note_on channel=8 note=39 velocity=0 time=30DSHARP2",
 "note_on channel=8 note=39 velocity=127 time=0DSHARP2",
 "note_on channel=8 note=39 velocity=0 time=30DSHARP2",
 "note_on channel=8 note=33 velocity=127 time=0A1",
 "note_on channel=8 note=33 velocity=0 time=60A1",
 "note_on channel=8 note=39 velocity=127 time=0DSHARP2",
 "note_on channel=8 note=39 velocity=0 time=60DSHARP2",
 "note_on channel=8 note=40 velocity=127 time=0E2",
 "note_on channel=8 note=40 velocity=0 time=60E2",
 "note_on channel=8 note=47 velocity=127 time=0B2",
 "note_on channel=8 note=47 velocity=0 time=60B2",
 "note_on channel=8 note=40 velocity=127 time=0E2",
 "note_on channel=8 note=40 velocity=0 time=60E2",
 "note_on channel=8 note=40 velocity=127 time=0E2",
 "note_on channel=8 note=40 velocity=0 time=60E2",
 "note_on channel=8 note=38 velocity=127 time=0D2",
 "note_on channel=8 note=38 velocity=0 time=180D2",
 "note_on channel=8 note=38 velocity=127 time=0D2",
 "note_on channel=8 note=38 velocity=0 time=30D2",
 "note_on channel=8 note=38 velocity=127 time=0D2",
 "note_on channel=8 note=38 velocity=0 time=30D2",
 "note_on channel=8 note=38 velocity=127 time=0D2",
 "note_on channel=8 note=38 velocity=0 time=60D2",
 "note_on channel=8 note=38 velocity=127 time=0D2",
 "note_on channel=8 note=38 velocity=0 time=60D2",
 "note_on channel=8 note=40 velocity=127 time=0E2",
 "note_on channel=8 note=40 velocity=0 time=60E2",
 "note_on channel=8 note=38 velocity=127 time=0D2",
 "note_on channel=8 note=38 velocity=0 time=60D2",
 "note_on channel=8 note=36 velocity=127 time=0C2",
 "note_on channel=8 note=36 velocity=0 time=60C2",
 "note_on channel=8 note=36 velocity=127 time=0C2",
 "note_on channel=8 note=36 velocity=0 time=120C2",
 "note_on channel=8 note=31 velocity=127 time=0G1",
 "note_on channel=8 note=31 velocity=0 time=30G1",
 "note_on channel=8 note=31 velocity=127 time=0G1",
 "note_on channel=8 note=31 velocity=0 time=30G1",
 "note_on channel=8 note=36 velocity=127 time=0C2",
 "note_on channel=8 note=36 velocity=0 time=60C2",
 "note_on channel=8 note=36 velocity=127 time=0C2",
 "note_on channel=8 note=36 velocity=0 time=60C2",
 "note_on channel=8 note=33 velocity=127 time=0A1",
 "note_on channel=8 note=33 velocity=0 time=60A1",
 "note_on channel=8 note=36 velocity=127 time=0C2",
 "note_on channel=8 note=36 velocity=0 time=60C2",
 "note_on channel=8 note=33 velocity=127 time=0A1",
 "note_on channel=8 note=33 velocity=0 time=180A1",
 "note_on channel=8 note=33 velocity=127 time=0A1",
 "note_on channel=8 note=33 velocity=0 time=60A1",
 "note_on channel=8 note=35 velocity=127 time=0B1",
 "note_on channel=8 note=35 velocity=0 time=60B1",
 "note_on channel=8 note=35 velocity=127 time=0B1",
 "note_on channel=8 note=35 velocity=0 time=30B1",
 "note_on channel=8 note=35 velocity=127 time=0B1",
 "note_on channel=8 note=35 velocity=0 time=30B1",
 "note_on channel=8 note=33 velocity=127 time=0A1",
 "note_on channel=8 note=33 velocity=0 time=60A1",
 "note_on channel=8 note=35 velocity=127 time=0B1",
 "note_on channel=8 note=35 velocity=0 time=60B1",
 "note_on channel=8 note=39 velocity=127 time=0DSHARP2",
 "note_on channel=8 note=39 velocity=0 time=30DSHARP2",
 "note_on channel=8 note=39 velocity=127 time=0DSHARP2",
 "note_on channel=8 note=39 velocity=0 time=30DSHARP2",
 "note_on channel=8 note=39 velocity=127 time=0DSHARP2",
 "note_on channel=8 note=39 velocity=0 time=30DSHARP2",
 "note_on channel=8 note=39 velocity=127 time=0DSHARP2",
 "note_on channel=8 note=39 velocity=0 time=30DSHARP2",
 "note_on channel=8 note=33 velocity=127 time=0A1",
 "note_on channel=8 note=33 velocity=0 time=60A1",
 "note_on channel=8 note=39 velocity=127 time=0DSHARP2",
 "note_on channel=8 note=39 velocity=0 time=60DSHARP2",
 "note_on channel=8 note=40 velocity=127 time=0E2",
 "note_on channel=8 note=40 velocity=0 time=60E2",
 "note_on channel=8 note=47 velocity=127 time=0B2",
 "note_on channel=8 note=47 velocity=0 time=60B2",
 "note_on channel=8 note=40 velocity=127 time=0E2",
 "note_on channel=8 note=40 velocity=0 time=60E2",
 "note_on channel=8 note=40 velocity=127 time=0E2",
 "note_on channel=8 note=40 velocity=0 time=60E2",
 "note_on channel=8 note=38 velocity=127 time=0D2",
 "note_on channel=8 note=38 velocity=0 time=180D2",
 "note_on channel=8 note=38 velocity=127 time=0D2",
 "note_on channel=8 note=38 velocity=0 time=30D2",
 "note_on channel=8 note=38 velocity=127 time=0D2",
 "note_on channel=8 note=38 velocity=0 time=30D2",
 "note_on channel=8 note=38 velocity=127 time=0D2",
 "note_on channel=8 note=38 velocity=0 time=60D2",
 "note_on channel=8 note=38 velocity=127 time=0D2",
 "note_on channel=8 note=38 velocity=0 time=60D2",
 "note_on channel=8 note=40 velocity=127 time=0E2",
 "note_on channel=8 note=40 velocity=0 time=60E2",
 "note_on channel=8 note=38 velocity=127 time=0D2",
 "note_on channel=8 note=38 velocity=0 time=60D2",
 "note_on channel=8 note=36 velocity=127 time=0C2",
 "note_on channel=8 note=36 velocity=0 time=60C2",
 "note_on channel=8 note=36 velocity=127 time=0C2",
 "note_on channel=8 note=36 velocity=0 time=120C2",
 "note_on channel=8 note=31 velocity=127 time=0G1",
 "note_on channel=8 note=31 velocity=0 time=30G1",
 "note_on channel=8 note=31 velocity=127 time=0G1",
 "note_on channel=8 note=31 velocity=0 time=30G1",
 "note_on channel=8 note=36 velocity=127 time=0C2",
 "note_on channel=8 note=36 velocity=0 time=60C2",
 "note_on channel=8 note=36 velocity=127 time=0C2",
 "note_on channel=8 note=36 velocity=0 time=60C2",
 "note_on channel=8 note=33 velocity=127 time=0A1",
 "note_on channel=8 note=33 velocity=0 time=60A1",
 "note_on channel=8 note=36 velocity=127 time=0C2",
 "note_on channel=8 note=36 velocity=0 time=60C2",
 "note_on channel=8 note=33 velocity=127 time=0A1",
 "note_on channel=8 note=33 velocity=0 time=180A1",
 "note_on channel=8 note=33 velocity=127 time=0A1",
 "note_on channel=8 note=33 velocity=0 time=60A1",
 "note_on channel=8 note=35 velocity=127 time=0B1",
 "note_on channel=8 note=35 velocity=0 time=60B1",
 "note_on channel=8 note=35 velocity=127 time=0B1",
 "note_on channel=8 note=35 velocity=0 time=30B1",
 "note_on channel=8 note=35 velocity=127 time=0B1",
 "note_on channel=8 note=35 velocity=0 time=30B1",
 "note_on channel=8 note=33 velocity=127 time=0A1",
 "note_on channel=8 note=33 velocity=0 time=60A1",
 "note_on channel=8 note=35 velocity=127 time=0B1",
 "note_on channel=8 note=35 velocity=0 time=60B1",
 "note_on channel=8 note=39 velocity=127 time=0DSHARP2",
 "note_on channel=8 note=39 velocity=0 time=30DSHARP2",
 "note_on channel=8 note=39 velocity=127 time=0DSHARP2",
 "note_on channel=8 note=39 velocity=0 time=30DSHARP2",
 "note_on channel=8 note=39 velocity=127 time=0DSHARP2",
 "note_on channel=8 note=39 velocity=0 time=30DSHARP2",
 "note_on channel=8 note=39 velocity=127 time=0DSHARP2",
 "note_on channel=8 note=39 velocity=0 time=30DSHARP2",
 "note_on channel=8 note=33 velocity=127 time=0A1",
 "note_on channel=8 note=33 velocity=0 time=60A1",
 "note_on channel=8 note=39 velocity=127 time=0DSHARP2",
 "note_on channel=8 note=39 velocity=0 time=60DSHARP2",
 "note_on channel=8 note=40 velocity=127 time=0E2",
 "note_on channel=8 note=40 velocity=0 time=60E2",
 "note_on channel=8 note=47 velocity=127 time=0B2",
 "note_on channel=8 note=47 velocity=0 time=60B2",
 "note_on channel=8 note=47 velocity=127 time=0B2",
 "note_on channel=8 note=47 velocity=0 time=60B2",
 "note_on channel=8 note=40 velocity=127 time=0E2",
 "note_on channel=8 note=40 velocity=0 time=60E2",
 "note_on channel=8 note=38 velocity=127 time=0D2",
 "note_on channel=8 note=38 velocity=0 time=180D2",
 "note_on channel=8 note=38 velocity=127 time=0D2",
 "note_on channel=8 note=38 velocity=0 time=60D2",
 "note_on channel=8 note=38 velocity=127 time=0D2",
 "note_on channel=8 note=38 velocity=0 time=60D2",
 "note_on channel=8 note=38 velocity=127 time=0D2",
 "note_on channel=8 note=38 velocity=0 time=60D2",
 "note_on channel=8 note=33 velocity=127 time=0A1",
 "note_on channel=8 note=33 velocity=0 time=60A1",
 "note_on channel=8 note=38 velocity=127 time=0D2",
 "note_on channel=8 note=38 velocity=0 time=60D2",
 "note_on channel=8 note=36 velocity=127 time=0C2",
 "note_on channel=8 note=36 velocity=0 time=60C2",
 "note_on channel=8 note=36 velocity=127 time=0C2",
 "note_on channel=8 note=36 velocity=0 time=120C2",
 "note_on channel=8 note=36 velocity=127 time=0C2",
 "note_on channel=8 note=36 velocity=0 time=30C2",
 "note_on channel=8 note=36 velocity=127 time=0C2",
 "note_on channel=8 note=36 velocity=0 time=30C2",
 "note_on channel=8 note=36 velocity=127 time=0C2",
 "note_on channel=8 note=36 velocity=0 time=60C2",
 "note_on channel=8 note=36 velocity=127 time=0C2",
 "note_on channel=8 note=36 velocity=0 time=60C2",
 "note_on channel=8 note=33 velocity=127 time=0A1",
 "note_on channel=8 note=33 velocity=0 time=60A1",
 "note_on channel=8 note=36 velocity=127 time=0C2",
 "note_on channel=8 note=36 velocity=0 time=60C2",
 "note_on channel=8 note=33 velocity=127 time=0A1",
 "note_on channel=8 note=33 velocity=0 time=180A1",
 "note_on channel=8 note=33 velocity=127 time=0A1",
 "note_on channel=8 note=33 velocity=0 time=60A1",
 "note_on channel=8 note=35 velocity=127 time=0B1",
 "note_on channel=8 note=35 velocity=0 time=60B1",
 "note_on channel=8 note=35 velocity=127 time=0B1",
 "note_on channel=8 note=35 velocity=0 time=30B1",
 "note_on channel=8 note=35 velocity=127 time=0B1",
 "note_on channel=8 note=35 velocity=0 time=30B1",
 "note_on channel=8 note=33 velocity=127 time=0A1",
 "note_on channel=8 note=33 velocity=0 time=60A1",
 "note_on channel=8 note=35 velocity=127 time=0B1",
 "note_on channel=8 note=35 velocity=0 time=60B1",
 "note_on channel=8 note=39 velocity=127 time=0DSHARP2",
 "note_on channel=8 note=39 velocity=0 time=30DSHARP2",
 "note_on channel=8 note=39 velocity=127 time=0DSHARP2",
 "note_on channel=8 note=39 velocity=0 time=30DSHARP2",
 "note_on channel=8 note=39 velocity=127 time=0DSHARP2",
 "note_on channel=8 note=39 velocity=0 time=30DSHARP2",
 "note_on channel=8 note=39 velocity=127 time=0DSHARP2",
 "note_on channel=8 note=39 velocity=0 time=30DSHARP2",
 "note_on channel=8 note=33 velocity=127 time=0A1",
 "note_on channel=8 note=33 velocity=0 time=60A1",
 "note_on channel=8 note=39 velocity=127 time=0DSHARP2",
 "note_on channel=8 note=39 velocity=0 time=60DSHARP2",
 "note_on channel=8 note=40 velocity=127 time=0E2",
 "note_on channel=8 note=40 velocity=0 time=60E2",
 "note_on channel=8 note=47 velocity=127 time=0B2",
 "note_on channel=8 note=47 velocity=0 time=60B2",
 "note_on channel=8 note=47 velocity=127 time=0B2",
 "note_on channel=8 note=47 velocity=0 time=60B2",
 "note_on channel=8 note=40 velocity=127 time=0E2",
 "note_on channel=8 note=40 velocity=0 time=60E2",
 "note_on channel=8 note=38 velocity=127 time=0D2",
 "note_on channel=8 note=38 velocity=0 time=180D2",
 "note_on channel=8 note=38 velocity=127 time=0D2",
 "note_on channel=8 note=38 velocity=0 time=60D2",
 "note_on channel=8 note=38 velocity=127 time=0D2",
 "note_on channel=8 note=38 velocity=0 time=60D2",
 "note_on channel=8 note=38 velocity=127 time=0D2",
 "note_on channel=8 note=38 velocity=0 time=60D2",
 "note_on channel=8 note=33 velocity=127 time=0A1",
 "note_on channel=8 note=33 velocity=0 time=60A1",
 "note_on channel=8 note=38 velocity=127 time=0D2",
 "note_on channel=8 note=38 velocity=0 time=60D2",
 "note_on channel=8 note=36 velocity=127 time=0C2",
 "note_on channel=8 note=36 velocity=0 time=60C2",
 "note_on channel=8 note=36 velocity=127 time=0C2",
 "note_on channel=8 note=36 velocity=0 time=120C2",
 "note_on channel=8 note=36 velocity=127 time=0C2",
 "note_on channel=8 note=36 velocity=0 time=30C2",
 "note_on channel=8 note=36 velocity=127 time=0C2",
 "note_on channel=8 note=36 velocity=0 time=30C2",
 "note_on channel=8 note=36 velocity=127 time=0C2",
 "note_on channel=8 note=36 velocity=0 time=60C2",
 "note_on channel=8 note=36 velocity=127 time=0C2",
 "note_on channel=8 note=36 velocity=0 time=60C2",
 "note_on channel=8 note=33 velocity=127 time=0A1",
 "note_on channel=8 note=33 velocity=0 time=60A1",
 "note_on channel=8 note=36 velocity=127 time=0C2",
 "note_on channel=8 note=36 velocity=0 time=60C2",
 "note_on channel=8 note=33 velocity=127 time=0A1",
 "note_on channel=8 note=33 velocity=0 time=180A1",
 "note_on channel=8 note=33 velocity=127 time=0A1",
 "note_on channel=8 note=33 velocity=0 time=60A1",
 "note_on channel=8 note=35 velocity=127 time=0B1",
 "note_on channel=8 note=35 velocity=0 time=60B1",
 "note_on channel=8 note=35 velocity=127 time=0B1",
 "note_on channel=8 note=35 velocity=0 time=30B1",
 "note_on channel=8 note=35 velocity=127 time=0B1",
 "note_on channel=8 note=35 velocity=0 time=30B1",
 "note_on channel=8 note=33 velocity=127 time=0A1",
 "note_on channel=8 note=33 velocity=0 time=60A1",
 "note_on channel=8 note=35 velocity=127 time=0B1",
 "note_on channel=8 note=35 velocity=0 time=60B1",
 "note_on channel=8 note=39 velocity=127 time=0DSHARP2",
 "note_on channel=8 note=39 velocity=0 time=30DSHARP2",
 "note_on channel=8 note=39 velocity=127 time=0DSHARP2",
 "note_on channel=8 note=39 velocity=0 time=30DSHARP2",
 "note_on channel=8 note=39 velocity=127 time=0DSHARP2",
 "note_on channel=8 note=39 velocity=0 time=30DSHARP2",
 "note_on channel=8 note=39 velocity=127 time=0DSHARP2",
 "note_on channel=8 note=39 velocity=0 time=30DSHARP2",
 "note_on channel=8 note=33 velocity=127 time=0A1",
 "note_on channel=8 note=33 velocity=0 time=60A1",
 "note_on channel=8 note=39 velocity=127 time=0DSHARP2",
 "note_on channel=8 note=39 velocity=0 time=60DSHARP2",
 "note_on channel=8 note=28 velocity=127 time=0E1",
 "note_on channel=8 note=28 velocity=0 time=60E1",
 "note_on channel=8 note=28 velocity=127 time=0E1",
 "note_on channel=8 note=28 velocity=0 time=60E1",
 "note_on channel=8 note=28 velocity=127 time=0E1",
 "note_on channel=8 note=28 velocity=0 time=60E1",
 "note_on channel=8 note=28 velocity=127 time=0E1",
 "note_on channel=8 note=28 velocity=0 time=60E1",
 "note_on channel=8 note=30 velocity=127 time=0FSHARP1",
 "note_on channel=8 note=30 velocity=0 time=60FSHARP1",
 "note_on channel=8 note=30 velocity=127 time=0FSHARP1",
 "note_on channel=8 note=30 velocity=0 time=60FSHARP1",
 "note_on channel=8 note=30 velocity=127 time=0FSHARP1",
 "note_on channel=8 note=30 velocity=0 time=60FSHARP1",
 "note_on channel=8 note=30 velocity=127 time=0FSHARP1",
 "note_on channel=8 note=30 velocity=0 time=60FSHARP1",
 "note_on channel=8 note=30 velocity=127 time=0FSHARP1",
 "note_on channel=8 note=30 velocity=0 time=60FSHARP1",
 "note_on channel=8 note=30 velocity=127 time=0FSHARP1",
 "note_on channel=8 note=30 velocity=0 time=60FSHARP1",
 "note_on channel=8 note=30 velocity=127 time=0FSHARP1",
 "note_on channel=8 note=30 velocity=0 time=60FSHARP1",
 "note_on channel=8 note=30 velocity=127 time=0FSHARP1",
 "note_on channel=8 note=30 velocity=0 time=60FSHARP1",
 "note_on channel=8 note=31 velocity=127 time=0G1",
 "note_on channel=8 note=31 velocity=0 time=60G1",
 "note_on channel=8 note=31 velocity=127 time=0G1",
 "note_on channel=8 note=31 velocity=0 time=60G1",
 "note_on channel=8 note=31 velocity=127 time=0G1",
 "note_on channel=8 note=31 velocity=0 time=60G1",
 "note_on channel=8 note=31 velocity=127 time=0G1",
 "note_on channel=8 note=31 velocity=0 time=60G1",
 "note_on channel=8 note=31 velocity=127 time=0G1",
 "note_on channel=8 note=31 velocity=0 time=60G1",
 "note_on channel=8 note=31 velocity=127 time=0G1",
 "note_on channel=8 note=31 velocity=0 time=60G1",
 "note_on channel=8 note=31 velocity=127 time=0G1",
 "note_on channel=8 note=31 velocity=0 time=60G1",
 "note_on channel=8 note=31 velocity=127 time=0G1",
 "note_on channel=8 note=31 velocity=0 time=60G1",
 "note_on channel=8 note=33 velocity=127 time=0A1",
 "note_on channel=8 note=33 velocity=0 time=60A1",
 "note_on channel=8 note=33 velocity=127 time=0A1",
 "note_on channel=8 note=33 velocity=0 time=60A1",
 "note_on channel=8 note=33 velocity=127 time=0A1",
 "note_on channel=8 note=33 velocity=0 time=60A1",
 "note_on channel=8 note=33 velocity=127 time=0A1",
 "note_on channel=8 note=33 velocity=0 time=60A1",
 "note_on channel=8 note=35 velocity=127 time=0B1",
 "note_on channel=8 note=35 velocity=0 time=60B1",
 "note_on channel=8 note=35 velocity=127 time=0B1",
 "note_on channel=8 note=35 velocity=0 time=60B1",
 "note_on channel=8 note=35 velocity=127 time=0B1",
 "note_on channel=8 note=35 velocity=0 time=60B1",
 "note_on channel=8 note=35 velocity=127 time=0B1",
 "note_on channel=8 note=35 velocity=0 time=60B1",
 "note_on channel=8 note=39 velocity=127 time=0DSHARP2",
 "note_on channel=8 note=39 velocity=0 time=60DSHARP2",
 "note_on channel=8 note=39 velocity=127 time=0DSHARP2",
 "note_on channel=8 note=39 velocity=0 time=60DSHARP2",
 "note_on channel=8 note=39 velocity=127 time=0DSHARP2",
 "note_on channel=8 note=39 velocity=0 time=60DSHARP2",
 "note_on channel=8 note=39 velocity=127 time=0DSHARP2",
 "note_on channel=8 note=39 velocity=0 time=60DSHARP2",
 "note_on channel=8 note=28 velocity=127 time=0E1",
 "note_on channel=8 note=28 velocity=0 time=60E1",
 "note_on channel=8 note=28 velocity=127 time=0E1",
 "note_on channel=8 note=28 velocity=0 time=60E1",
 "note_on channel=8 note=28 velocity=127 time=0E1",
 "note_on channel=8 note=28 velocity=0 time=60E1",
 "note_on channel=8 note=28 velocity=127 time=0E1",
 "note_on channel=8 note=28 velocity=0 time=60E1",
 "note_on channel=8 note=30 velocity=127 time=0FSHARP1",
 "note_on channel=8 note=30 velocity=0 time=60FSHARP1",
 "note_on channel=8 note=30 velocity=127 time=0FSHARP1",
 "note_on channel=8 note=30 velocity=0 time=60FSHARP1",
 "note_on channel=8 note=30 velocity=127 time=0FSHARP1",
 "note_on channel=8 note=30 velocity=0 time=60FSHARP1",
 "note_on channel=8 note=30 velocity=127 time=0FSHARP1",
 "note_on channel=8 note=30 velocity=0 time=60FSHARP1",
 "note_on channel=8 note=30 velocity=127 time=0FSHARP1",
 "note_on channel=8 note=30 velocity=0 time=60FSHARP1",
 "note_on channel=8 note=30 velocity=127 time=0FSHARP1",
 "note_on channel=8 note=30 velocity=0 time=60FSHARP1",
 "note_on channel=8 note=30 velocity=127 time=0FSHARP1",
 "note_on channel=8 note=30 velocity=0 time=60FSHARP1",
 "note_on channel=8 note=30 velocity=127 time=0FSHARP1",
 "note_on channel=8 note=30 velocity=0 time=60FSHARP1",
 "note_on channel=8 note=31 velocity=127 time=0G1",
 "note_on channel=8 note=31 velocity=0 time=60G1",
 "note_on channel=8 note=31 velocity=127 time=0G1",
 "note_on channel=8 note=31 velocity=0 time=60G1",
 "note_on channel=8 note=31 velocity=127 time=0G1",
 "note_on channel=8 note=31 velocity=0 time=60G1",
 "note_on channel=8 note=31 velocity=127 time=0G1",
 "note_on channel=8 note=31 velocity=0 time=60G1",
 "note_on channel=8 note=31 velocity=127 time=0G1",
 "note_on channel=8 note=31 velocity=0 time=60G1",
 "note_on channel=8 note=31 velocity=127 time=0G1",
 "note_on channel=8 note=31 velocity=0 time=60G1",
 "note_on channel=8 note=31 velocity=127 time=0G1",
 "note_on channel=8 note=31 velocity=0 time=60G1",
 "note_on channel=8 note=31 velocity=127 time=0G1",
 "note_on channel=8 note=31 velocity=0 time=60G1",
 "note_on channel=8 note=33 velocity=127 time=0A1",
 "note_on channel=8 note=33 velocity=0 time=60A1",
 "note_on channel=8 note=33 velocity=127 time=0A1",
 "note_on channel=8 note=33 velocity=0 time=60A1",
 "note_on channel=8 note=33 velocity=127 time=0A1",
 "note_on channel=8 note=33 velocity=0 time=60A1",
 "note_on channel=8 note=33 velocity=127 time=0A1",
 "note_on channel=8 note=33 velocity=0 time=60A1",
 "note_on channel=8 note=35 velocity=127 time=0B1",
 "note_on channel=8 note=35 velocity=0 time=60B1",
 "note_on channel=8 note=35 velocity=127 time=0B1",
 "note_on channel=8 note=35 velocity=0 time=60B1",
 "note_on channel=8 note=35 velocity=127 time=0B1",
 "note_on channel=8 note=35 velocity=0 time=60B1",
 "note_on channel=8 note=35 velocity=127 time=0B1",
 "note_on channel=8 note=35 velocity=0 time=60B1",
 "note_on channel=8 note=39 velocity=127 time=0DSHARP2",
 "note_on channel=8 note=39 velocity=0 time=60DSHARP2",
 "note_on channel=8 note=39 velocity=127 time=0DSHARP2",
 "note_on channel=8 note=39 velocity=0 time=60DSHARP2",
 "note_on channel=8 note=39 velocity=127 time=0DSHARP2",
 "note_on channel=8 note=39 velocity=0 time=60DSHARP2",
 "note_on channel=8 note=39 velocity=127 time=0DSHARP2",
 "note_on channel=8 note=39 velocity=0 time=60DSHARP2",
 "note_on channel=8 note=28 velocity=127 time=0E1",
 "note_on channel=8 note=28 velocity=0 time=60E1",
 "note_on channel=8 note=28 velocity=127 time=0E1",
 "note_on channel=8 note=28 velocity=0 time=60E1",
 "note_on channel=8 note=28 velocity=127 time=0E1",
 "note_on channel=8 note=28 velocity=0 time=60E1",
 "note_on channel=8 note=28 velocity=127 time=0E1",
 "note_on channel=8 note=28 velocity=0 time=60E1",
 "note_on channel=8 note=28 velocity=127 time=0E1",
 "note_on channel=8 note=28 velocity=0 time=60E1",
 "note_on channel=8 note=28 velocity=127 time=0E1",
 "note_on channel=8 note=28 velocity=0 time=60E1",
 "note_on channel=8 note=28 velocity=127 time=0E1",
 "note_on channel=8 note=28 velocity=0 time=60E1",
 "note_on channel=8 note=28 velocity=127 time=0E1",
 "note_on channel=8 note=28 velocity=0 time=60E1",
 "note_on channel=8 note=28 velocity=127 time=0E1",
 "note_on channel=8 note=28 velocity=0 time=60E1",
 "note_on channel=8 note=28 velocity=127 time=0E1",
 "note_on channel=8 note=28 velocity=0 time=60E1",
 "note_on channel=8 note=28 velocity=127 time=0E1",
 "note_on channel=8 note=28 velocity=0 time=60E1",
 "note_on channel=8 note=28 velocity=127 time=0E1",
 "note_on channel=8 note=28 velocity=0 time=60E1",
 "note_on channel=8 note=28 velocity=127 time=0E1",
 "note_on channel=8 note=28 velocity=0 time=60E1",
 "note_on channel=8 note=28 velocity=127 time=0E1",
 "note_on channel=8 note=28 velocity=0 time=60E1",
 "note_on channel=8 note=28 velocity=127 time=0E1",
 "note_on channel=8 note=28 velocity=0 time=60E1",
 "note_on channel=8 note=28 velocity=127 time=0E1",
 "note_on channel=8 note=28 velocity=0 time=60E1",
 "note_on channel=8 note=30 velocity=127 time=0FSHARP1",
 "note_on channel=8 note=30 velocity=0 time=60FSHARP1",
 "note_on channel=8 note=30 velocity=127 time=0FSHARP1",
 "note_on channel=8 note=30 velocity=0 time=60FSHARP1",
 "note_on channel=8 note=31 velocity=127 time=0G1",
 "note_on channel=8 note=31 velocity=0 time=60G1",
 "note_on channel=8 note=30 velocity=127 time=0FSHARP1",
 "note_on channel=8 note=30 velocity=0 time=60FSHARP1",
 "note_on channel=8 note=30 velocity=127 time=0FSHARP1",
 "note_on channel=8 note=30 velocity=0 time=60FSHARP1",
 "note_on channel=8 note=30 velocity=127 time=0FSHARP1",
 "note_on channel=8 note=30 velocity=0 time=60FSHARP1",
 "note_on channel=8 note=31 velocity=127 time=0G1",
 "note_on channel=8 note=31 velocity=0 time=60G1",
 "note_on channel=8 note=37 velocity=127 time=0CSHARP2",
 "note_on channel=8 note=37 velocity=0 time=30CSHARP2",
 "note_on channel=8 note=37 velocity=127 time=0CSHARP2",
 "note_on channel=8 note=37 velocity=0 time=30CSHARP2",
 "note_on channel=8 note=30 velocity=127 time=0FSHARP1",
 "note_on channel=8 note=30 velocity=0 time=60FSHARP1",
 "note_on channel=8 note=30 velocity=127 time=0FSHARP1",
 "note_on channel=8 note=30 velocity=0 time=60FSHARP1",
 "note_on channel=8 note=31 velocity=127 time=0G1",
 "note_on channel=8 note=31 velocity=0 time=60G1",
 "note_on channel=8 note=30 velocity=127 time=0FSHARP1",
 "note_on channel=8 note=30 velocity=0 time=60FSHARP1",
 "note_on channel=8 note=30 velocity=127 time=0FSHARP1",
 "note_on channel=8 note=30 velocity=0 time=60FSHARP1",
 "note_on channel=8 note=30 velocity=127 time=0FSHARP1",
 "note_on channel=8 note=30 velocity=0 time=60FSHARP1",
 "note_on channel=8 note=31 velocity=127 time=0G1",
 "note_on channel=8 note=31 velocity=0 time=60G1",
 "note_on channel=8 note=37 velocity=127 time=0CSHARP2",
 "note_on channel=8 note=37 velocity=0 time=60CSHARP2",
 "note_on channel=8 note=30 velocity=127 time=0FSHARP1",
 "note_on channel=8 note=30 velocity=0 time=60FSHARP1",
 "note_on channel=8 note=30 velocity=127 time=0FSHARP1",
 "note_on channel=8 note=30 velocity=0 time=60FSHARP1",
 "note_on channel=8 note=31 velocity=127 time=0G1",
 "note_on channel=8 note=31 velocity=0 time=60G1",
 "note_on channel=8 note=30 velocity=127 time=0FSHARP1",
 "note_on channel=8 note=30 velocity=0 time=60FSHARP1",
 "note_on channel=8 note=30 velocity=127 time=0FSHARP1",
 "note_on channel=8 note=30 velocity=0 time=60FSHARP1",
 "note_on channel=8 note=30 velocity=127 time=0FSHARP1",
 "note_on channel=8 note=30 velocity=0 time=60FSHARP1",
 "note_on channel=8 note=31 velocity=127 time=0G1",
 "note_on channel=8 note=31 velocity=0 time=60G1",
 "note_on channel=8 note=37 velocity=127 time=0CSHARP2",
 "note_on channel=8 note=37 velocity=0 time=30CSHARP2",
 "note_on channel=8 note=37 velocity=127 time=0CSHARP2",
 "note_on channel=8 note=37 velocity=0 time=30CSHARP2",
 "note_on channel=8 note=30 velocity=127 time=0FSHARP1",
 "note_on channel=8 note=30 velocity=0 time=60FSHARP1",
 "note_on channel=8 note=30 velocity=127 time=0FSHARP1",
 "note_on channel=8 note=30 velocity=0 time=60FSHARP1",
 "note_on channel=8 note=31 velocity=127 time=0G1",
 "note_on channel=8 note=31 velocity=0 time=60G1",
 "note_on channel=8 note=30 velocity=127 time=0FSHARP1",
 "note_on channel=8 note=30 velocity=0 time=60FSHARP1",
 "note_on channel=8 note=30 velocity=127 time=0FSHARP1",
 "note_on channel=8 note=30 velocity=0 time=60FSHARP1",
 "note_on channel=8 note=30 velocity=127 time=0FSHARP1",
 "note_on channel=8 note=30 velocity=0 time=60FSHARP1",
 "note_on channel=8 note=31 velocity=127 time=0G1",
 "note_on channel=8 note=31 velocity=0 time=60G1",
 "note_on channel=8 note=37 velocity=127 time=0CSHARP2",
 "note_on channel=8 note=37 velocity=0 time=60CSHARP2",
 "note_on channel=8 note=30 velocity=127 time=0FSHARP1",
 "note_on channel=8 note=30 velocity=0 time=60FSHARP1",
 "note_on channel=8 note=30 velocity=127 time=0FSHARP1",
 "note_on channel=8 note=30 velocity=0 time=60FSHARP1",
 "note_on channel=8 note=31 velocity=127 time=0G1",
 "note_on channel=8 note=31 velocity=0 time=60G1",
 "note_on channel=8 note=30 velocity=127 time=0FSHARP1",
 "note_on channel=8 note=30 velocity=0 time=60FSHARP1",
 "note_on channel=8 note=30 velocity=127 time=0FSHARP1",
 "note_on channel=8 note=30 velocity=0 time=60FSHARP1",
 "note_on channel=8 note=30 velocity=127 time=0FSHARP1",
 "note_on channel=8 note=30 velocity=0 time=60FSHARP1",
 "note_on channel=8 note=31 velocity=127 time=0G1",
 "note_on channel=8 note=31 velocity=0 time=60G1",
 "note_on channel=8 note=37 velocity=127 time=0CSHARP2",
 "note_on channel=8 note=37 velocity=0 time=30CSHARP2",
 "note_on channel=8 note=37 velocity=127 time=0CSHARP2",
 "note_on channel=8 note=37 velocity=0 time=30CSHARP2",
 "note_on channel=8 note=30 velocity=127 time=0FSHARP1",
 "note_on channel=8 note=30 velocity=0 time=60FSHARP1",
 "note_on channel=8 note=30 velocity=127 time=0FSHARP1",
 "note_on channel=8 note=30 velocity=0 time=60FSHARP1",
 "note_on channel=8 note=31 velocity=127 time=0G1",
 "note_on channel=8 note=31 velocity=0 time=60G1",
 "note_on channel=8 note=30 velocity=127 time=0FSHARP1",
 "note_on channel=8 note=30 velocity=0 time=60FSHARP1",
 "note_on channel=8 note=30 velocity=127 time=0FSHARP1",
 "note_on channel=8 note=30 velocity=0 time=60FSHARP1",
 "note_on channel=8 note=30 velocity=127 time=0FSHARP1",
 "note_on channel=8 note=30 velocity=0 time=60FSHARP1",
 "note_on channel=8 note=31 velocity=127 time=0G1",
 "note_on channel=8 note=31 velocity=0 time=60G1",
 "note_on channel=8 note=37 velocity=127 time=0CSHARP2",
 "note_on channel=8 note=37 velocity=0 time=60CSHARP2",
 "note_on channel=8 note=30 velocity=127 time=0FSHARP1",
 "note_on channel=8 note=30 velocity=0 time=60FSHARP1",
 "note_on channel=8 note=30 velocity=127 time=0FSHARP1",
 "note_on channel=8 note=30 velocity=0 time=60FSHARP1",
 "note_on channel=8 note=31 velocity=127 time=0G1",
 "note_on channel=8 note=31 velocity=0 time=60G1",
 "note_on channel=8 note=30 velocity=127 time=0FSHARP1",
 "note_on channel=8 note=30 velocity=0 time=60FSHARP1",
 "note_on channel=8 note=30 velocity=127 time=0FSHARP1",
 "note_on channel=8 note=30 velocity=0 time=60FSHARP1",
 "note_on channel=8 note=30 velocity=127 time=0FSHARP1",
 "note_on channel=8 note=30 velocity=0 time=60FSHARP1",
 "note_on channel=8 note=31 velocity=127 time=0G1",
 "note_on channel=8 note=31 velocity=0 time=60G1",
 "note_on channel=8 note=37 velocity=127 time=0CSHARP2",
 "note_on channel=8 note=37 velocity=0 time=30CSHARP2",
 "note_on channel=8 note=37 velocity=127 time=0CSHARP2",
 "note_on channel=8 note=37 velocity=0 time=30CSHARP2",
 "note_on channel=8 note=30 velocity=127 time=0FSHARP1",
 "note_on channel=8 note=30 velocity=0 time=60FSHARP1",
 "note_on channel=8 note=30 velocity=127 time=0FSHARP1",
 "note_on channel=8 note=30 velocity=0 time=60FSHARP1",
 "note_on channel=8 note=31 velocity=127 time=0G1",
 "note_on channel=8 note=31 velocity=0 time=60G1",
 "note_on channel=8 note=30 velocity=127 time=0FSHARP1",
 "note_on channel=8 note=30 velocity=0 time=60FSHARP1",
 "note_on channel=8 note=30 velocity=127 time=0FSHARP1",
 "note_on channel=8 note=30 velocity=0 time=60FSHARP1",
 "note_on channel=8 note=30 velocity=127 time=0FSHARP1",
 "note_on channel=8 note=30 velocity=0 time=60FSHARP1",
 "note_on channel=8 note=31 velocity=127 time=0G1",
 "note_on channel=8 note=31 velocity=0 time=60G1",
 "note_on channel=8 note=37 velocity=127 time=0CSHARP2",
 "note_on channel=8 note=37 velocity=0 time=60CSHARP2",
 "note_on channel=8 note=30 velocity=127 time=0FSHARP1",
 "note_on channel=8 note=30 velocity=0 time=60FSHARP1",
 "note_on channel=8 note=30 velocity=127 time=0FSHARP1",
 "note_on channel=8 note=30 velocity=0 time=60FSHARP1",
 "note_on channel=8 note=31 velocity=127 time=0G1",
 "note_on channel=8 note=31 velocity=0 time=60G1",
 "note_on channel=8 note=30 velocity=127 time=0FSHARP1",
 "note_on channel=8 note=30 velocity=0 time=60FSHARP1",
 "note_on channel=8 note=30 velocity=127 time=0FSHARP1",
 "note_on channel=8 note=30 velocity=0 time=60FSHARP1",
 "note_on channel=8 note=30 velocity=127 time=0FSHARP1",
 "note_on channel=8 note=30 velocity=0 time=60FSHARP1",
 "note_on channel=8 note=31 velocity=127 time=0G1",
 "note_on channel=8 note=31 velocity=0 time=60G1",
 "note_on channel=8 note=37 velocity=127 time=0CSHARP2",
 "note_on channel=8 note=37 velocity=0 time=30CSHARP2",
 "note_on channel=8 note=37 velocity=127 time=0CSHARP2",
 "note_on channel=8 note=37 velocity=0 time=30CSHARP2",
 "note_on channel=8 note=30 velocity=127 time=0FSHARP1",
 "note_on channel=8 note=30 velocity=0 time=60FSHARP1",
 "note_on channel=8 note=30 velocity=127 time=0FSHARP1",
 "note_on channel=8 note=30 velocity=0 time=60FSHARP1",
 "note_on channel=8 note=31 velocity=127 time=0G1",
 "note_on channel=8 note=31 velocity=0 time=60G1",
 "note_on channel=8 note=30 velocity=127 time=0FSHARP1",
 "note_on channel=8 note=30 velocity=0 time=60FSHARP1",
 "note_on channel=8 note=30 velocity=127 time=0FSHARP1",
 "note_on channel=8 note=30 velocity=0 time=60FSHARP1",
 "note_on channel=8 note=30 velocity=127 time=0FSHARP1",
 "note_on channel=8 note=30 velocity=0 time=60FSHARP1",
 "note_on channel=8 note=31 velocity=127 time=0G1",
 "note_on channel=8 note=31 velocity=0 time=60G1",
 "note_on channel=8 note=37 velocity=127 time=0CSHARP2",
 "note_on channel=8 note=37 velocity=0 time=60CSHARP2",
 "note_on channel=8 note=30 velocity=127 time=0FSHARP1",
 "note_on channel=8 note=30 velocity=0 time=60FSHARP1",
 "note_on channel=8 note=30 velocity=127 time=0FSHARP1",
 "note_on channel=8 note=30 velocity=0 time=60FSHARP1",
 "note_on channel=8 note=31 velocity=127 time=0G1",
 "note_on channel=8 note=31 velocity=0 time=60G1",
 "note_on channel=8 note=30 velocity=127 time=0FSHARP1",
 "note_on channel=8 note=30 velocity=0 time=60FSHARP1",
 "note_on channel=8 note=30 velocity=127 time=0FSHARP1",
 "note_on channel=8 note=30 velocity=0 time=60FSHARP1",
 "note_on channel=8 note=30 velocity=127 time=0FSHARP1",
 "note_on channel=8 note=30 velocity=0 time=60FSHARP1",
 "note_on channel=8 note=31 velocity=127 time=0G1",
 "note_on channel=8 note=31 velocity=0 time=60G1",
 "note_on channel=8 note=37 velocity=127 time=0CSHARP2",
 "note_on channel=8 note=37 velocity=0 time=30CSHARP2",
 "note_on channel=8 note=37 velocity=127 time=0CSHARP2",
 "note_on channel=8 note=37 velocity=0 time=30CSHARP2",
 "note_on channel=8 note=30 velocity=127 time=0FSHARP1",
 "note_on channel=8 note=30 velocity=0 time=60FSHARP1",
 "note_on channel=8 note=30 velocity=127 time=0FSHARP1",
 "note_on channel=8 note=30 velocity=0 time=60FSHARP1",
 "note_on channel=8 note=31 velocity=127 time=0G1",
 "note_on channel=8 note=31 velocity=0 time=60G1",
 "note_on channel=8 note=30 velocity=127 time=0FSHARP1",
 "note_on channel=8 note=30 velocity=0 time=60FSHARP1",
 "note_on channel=8 note=30 velocity=127 time=0FSHARP1",
 "note_on channel=8 note=30 velocity=0 time=60FSHARP1",
 "note_on channel=8 note=30 velocity=127 time=0FSHARP1",
 "note_on channel=8 note=30 velocity=0 time=60FSHARP1",
 "note_on channel=8 note=31 velocity=127 time=0G1",
 "note_on channel=8 note=31 velocity=0 time=60G1",
 "note_on channel=8 note=37 velocity=127 time=0CSHARP2",
 "note_on channel=8 note=37 velocity=0 time=60CSHARP2",
 "note_on channel=8 note=31 velocity=127 time=0G1",
 "note_on channel=8 note=31 velocity=0 time=120G1",
 "note_on channel=8 note=31 velocity=127 time=0G1",
 "note_on channel=8 note=31 velocity=0 time=120G1",
 "note_on channel=8 note=31 velocity=127 time=0G1",
 "note_on channel=8 note=31 velocity=0 time=60G1",
 "note_on channel=8 note=31 velocity=127 time=0G1",
 "note_on channel=8 note=31 velocity=0 time=60G1",
 "note_on channel=8 note=31 velocity=127 time=0G1",
 "note_on channel=8 note=31 velocity=0 time=60G1",
 "note_on channel=8 note=31 velocity=127 time=0G1",
 "note_on channel=8 note=31 velocity=0 time=120G1",
 "note_on channel=8 note=31 velocity=127 time=0G1",
 "note_on channel=8 note=31 velocity=0 time=60G1",
 "note_on channel=8 note=31 velocity=127 time=0G1",
 "note_on channel=8 note=31 velocity=0 time=120G1",
 "note_on channel=8 note=31 velocity=127 time=0G1",
 "note_on channel=8 note=31 velocity=0 time=60G1",
 "note_on channel=8 note=31 velocity=127 time=0G1",
 "note_on channel=8 note=31 velocity=0 time=60G1",
 "note_on channel=8 note=31 velocity=127 time=0G1",
 "note_on channel=8 note=31 velocity=0 time=120G1",
 "note_on channel=8 note=30 velocity=127 time=0FSHARP1",
 "note_on channel=8 note=30 velocity=0 time=120FSHARP1",
 "note_on channel=8 note=30 velocity=127 time=0FSHARP1",
 "note_on channel=8 note=30 velocity=0 time=120FSHARP1",
 "note_on channel=8 note=30 velocity=127 time=0FSHARP1",
 "note_on channel=8 note=30 velocity=0 time=60FSHARP1",
 "note_on channel=8 note=30 velocity=127 time=0FSHARP1",
 "note_on channel=8 note=30 velocity=0 time=60FSHARP1",
 "note_on channel=8 note=30 velocity=127 time=0FSHARP1",
 "note_on channel=8 note=30 velocity=0 time=120FSHARP1",
 "note_on channel=8 note=43 velocity=127 time=0G2",
 "note_on channel=8 note=43 velocity=0 time=60G2",
 "note_on channel=8 note=42 velocity=127 time=0FSHARP2",
 "note_on channel=8 note=42 velocity=0 time=60FSHARP2",
 "note_on channel=8 note=40 velocity=127 time=0E2",
 "note_on channel=8 note=40 velocity=0 time=60E2",
 "note_on channel=8 note=40 velocity=127 time=0E2",
 "note_on channel=8 note=40 velocity=0 time=60E2",
 "note_on channel=8 note=38 velocity=127 time=0D2",
 "note_on channel=8 note=38 velocity=0 time=60D2",
 "note_on channel=8 note=37 velocity=127 time=0CSHARP2",
 "note_on channel=8 note=37 velocity=0 time=60CSHARP2",
 "note_on channel=8 note=35 velocity=127 time=0B1",
 "note_on channel=8 note=35 velocity=0 time=60B1",
 "note_on channel=8 note=33 velocity=127 time=0A1",
 "note_on channel=8 note=33 velocity=0 time=60A1",
 "note_on channel=8 note=28 velocity=127 time=0E1",
 "note_on channel=8 note=28 velocity=0 time=60E1",
 "note_on channel=8 note=28 velocity=127 time=0E1",
 "note_on channel=8 note=28 velocity=0 time=60E1",
 "note_on channel=8 note=28 velocity=127 time=0E1",
 "note_on channel=8 note=28 velocity=0 time=60E1",
 "note_on channel=8 note=28 velocity=127 time=0E1",
 "note_on channel=8 note=28 velocity=0 time=60E1",
 "note_on channel=8 note=28 velocity=127 time=0E1",
 "note_on channel=8 note=28 velocity=0 time=60E1",
 "note_on channel=8 note=28 velocity=127 time=0E1",
 "note_on channel=8 note=28 velocity=0 time=60E1",
 "note_on channel=8 note=28 velocity=127 time=0E1",
 "note_on channel=8 note=28 velocity=0 time=60E1",
 "note_on channel=8 note=28 velocity=127 time=0E1",
 "note_on channel=8 note=28 velocity=0 time=60E1",
 "note_on channel=8 note=28 velocity=127 time=0E1",
 "note_on channel=8 note=28 velocity=0 time=60E1",
 "note_on channel=8 note=31 velocity=127 time=0G1",
 "note_on channel=8 note=31 velocity=0 time=60G1",
 "note_on channel=8 note=33 velocity=127 time=0A1",
 "note_on channel=8 note=33 velocity=0 time=60A1",
 "note_on channel=8 note=28 velocity=127 time=0E1",
 "note_on channel=8 note=28 velocity=0 time=60E1",
 "note_on channel=8 note=34 velocity=127 time=0BFLAT1",
 "note_on channel=8 note=34 velocity=0 time=60BFLAT1",
 "note_on channel=8 note=33 velocity=127 time=0A1",
 "note_on channel=8 note=33 velocity=0 time=60A1",
 "note_on channel=8 note=31 velocity=127 time=0G1",
 "note_on channel=8 note=31 velocity=0 time=60G1",
 "note_on channel=8 note=33 velocity=127 time=0A1",
 "note_on channel=8 note=33 velocity=0 time=60A1",
 "note_on channel=8 note=28 velocity=127 time=0E1",
 "note_on channel=8 note=28 velocity=0 time=60E1",
 "note_on channel=8 note=28 velocity=127 time=0E1",
 "note_on channel=8 note=28 velocity=0 time=60E1",
 "note_on channel=8 note=28 velocity=127 time=0E1",
 "note_on channel=8 note=28 velocity=0 time=60E1",
 "note_on channel=8 note=28 velocity=127 time=0E1",
 "note_on channel=8 note=28 velocity=0 time=60E1",
 "note_on channel=8 note=28 velocity=127 time=0E1",
 "note_on channel=8 note=28 velocity=0 time=60E1",
 "note_on channel=8 note=28 velocity=127 time=0E1",
 "note_on channel=8 note=28 velocity=0 time=60E1",
 "note_on channel=8 note=28 velocity=127 time=0E1",
 "note_on channel=8 note=28 velocity=0 time=60E1",
 "note_on channel=8 note=28 velocity=127 time=0E1",
 "note_on channel=8 note=28 velocity=0 time=60E1",
 "note_on channel=8 note=28 velocity=127 time=0E1",
 "note_on channel=8 note=28 velocity=0 time=60E1",
 "note_on channel=8 note=31 velocity=127 time=0G1",
 "note_on channel=8 note=31 velocity=0 time=60G1",
 "note_on channel=8 note=33 velocity=127 time=0A1",
 "note_on channel=8 note=33 velocity=0 time=60A1",
 "note_on channel=8 note=31 velocity=127 time=0G1",
 "note_on channel=8 note=31 velocity=0 time=60G1",
 "note_on channel=8 note=33 velocity=127 time=0A1",
 "note_on channel=8 note=33 velocity=0 time=60A1",
 "note_on channel=8 note=28 velocity=127 time=0E1",
 "note_on channel=8 note=28 velocity=0 time=60E1",
 "note_on channel=8 note=28 velocity=127 time=0E1",
 "note_on channel=8 note=28 velocity=0 time=60E1",
 "note_on channel=8 note=28 velocity=127 time=0E1",
 "note_on channel=8 note=28 velocity=0 time=60E1",
 "note_on channel=8 note=28 velocity=127 time=0E1",
 "note_on channel=8 note=28 velocity=0 time=60E1",
 "note_on channel=8 note=28 velocity=127 time=0E1",
 "note_on channel=8 note=28 velocity=0 time=60E1",
 "note_on channel=8 note=28 velocity=127 time=0E1",
 "note_on channel=8 note=28 velocity=0 time=60E1",
 "note_on channel=8 note=28 velocity=127 time=0E1",
 "note_on channel=8 note=28 velocity=0 time=60E1",
 "note_on channel=8 note=28 velocity=127 time=0E1",
 "note_on channel=8 note=28 velocity=0 time=60E1",
 "note_on channel=8 note=28 velocity=127 time=0E1",
 "note_on channel=8 note=28 velocity=0 time=60E1",
 "note_on channel=8 note=31 velocity=127 time=0G1",
 "note_on channel=8 note=31 velocity=0 time=60G1",
 "note_on channel=8 note=33 velocity=127 time=0A1",
 "note_on channel=8 note=33 velocity=0 time=60A1",
 "note_on channel=8 note=28 velocity=127 time=0E1",
 "note_on channel=8 note=28 velocity=0 time=60E1",
 "note_on channel=8 note=34 velocity=127 time=0BFLAT1",
 "note_on channel=8 note=34 velocity=0 time=60BFLAT1",
 "note_on channel=8 note=33 velocity=127 time=0A1",
 "note_on channel=8 note=33 velocity=0 time=60A1",
 "note_on channel=8 note=31 velocity=127 time=0G1",
 "note_on channel=8 note=31 velocity=0 time=60G1",
 "note_on channel=8 note=33 velocity=127 time=0A1",
 "note_on channel=8 note=33 velocity=0 time=60A1",
 "note_on channel=8 note=28 velocity=127 time=0E1",
 "note_on channel=8 note=28 velocity=0 time=60E1",
 "note_on channel=8 note=28 velocity=127 time=0E1",
 "note_on channel=8 note=28 velocity=0 time=60E1",
 "note_on channel=8 note=28 velocity=127 time=0E1",
 "note_on channel=8 note=28 velocity=0 time=60E1",
 "note_on channel=8 note=28 velocity=127 time=0E1",
 "note_on channel=8 note=28 velocity=0 time=60E1",
 "note_on channel=8 note=28 velocity=127 time=0E1",
 "note_on channel=8 note=28 velocity=0 time=60E1",
 "note_on channel=8 note=28 velocity=127 time=0E1",
 "note_on channel=8 note=28 velocity=0 time=60E1",
 "note_on channel=8 note=28 velocity=127 time=0E1",
 "note_on channel=8 note=28 velocity=0 time=60E1",
 "note_on channel=8 note=28 velocity=127 time=0E1",
 "note_on channel=8 note=28 velocity=0 time=60E1",
 "note_on channel=8 note=28 velocity=127 time=0E1",
 "note_on channel=8 note=28 velocity=0 time=60E1",
 "note_on channel=8 note=31 velocity=127 time=0G1",
 "note_on channel=8 note=31 velocity=0 time=60G1",
 "note_on channel=8 note=33 velocity=127 time=0A1",
 "note_on channel=8 note=33 velocity=0 time=60A1",
 "note_on channel=8 note=31 velocity=127 time=0G1",
 "note_on channel=8 note=31 velocity=0 time=60G1",
 "note_on channel=8 note=33 velocity=127 time=0A1",
 "note_on channel=8 note=33 velocity=0 time=60A1",
 "note_on channel=8 note=28 velocity=127 time=0E1",
 "note_on channel=8 note=28 velocity=0 time=60E1",
 "note_on channel=8 note=28 velocity=127 time=0E1",
 "note_on channel=8 note=28 velocity=0 time=60E1",
 "note_on channel=8 note=28 velocity=127 time=0E1",
 "note_on channel=8 note=28 velocity=0 time=60E1",
 "note_on channel=8 note=28 velocity=127 time=0E1",
 "note_on channel=8 note=28 velocity=0 time=60E1",
 "note_on channel=8 note=28 velocity=127 time=0E1",
 "note_on channel=8 note=28 velocity=0 time=60E1",
 "note_on channel=8 note=28 velocity=127 time=0E1",
 "note_on channel=8 note=28 velocity=0 time=60E1",
 "note_on channel=8 note=28 velocity=127 time=0E1",
 "note_on channel=8 note=28 velocity=0 time=60E1",
 "note_on channel=8 note=28 velocity=127 time=0E1",
 "note_on channel=8 note=28 velocity=0 time=60E1",
 "note_on channel=8 note=28 velocity=127 time=0E1",
 "note_on channel=8 note=28 velocity=0 time=60E1",
 "note_on channel=8 note=31 velocity=127 time=0G1",
 "note_on channel=8 note=31 velocity=0 time=60G1",
 "note_on channel=8 note=33 velocity=127 time=0A1",
 "note_on channel=8 note=33 velocity=0 time=60A1",
 "note_on channel=8 note=28 velocity=127 time=0E1",
 "note_on channel=8 note=28 velocity=0 time=60E1",
 "note_on channel=8 note=34 velocity=127 time=0BFLAT1",
 "note_on channel=8 note=34 velocity=0 time=60BFLAT1",
 "note_on channel=8 note=33 velocity=127 time=0A1",
 "note_on channel=8 note=33 velocity=0 time=60A1",
 "note_on channel=8 note=31 velocity=127 time=0G1",
 "note_on channel=8 note=31 velocity=0 time=60G1",
 "note_on channel=8 note=33 velocity=127 time=0A1",
 "note_on channel=8 note=33 velocity=0 time=60A1",
 "note_on channel=8 note=28 velocity=127 time=0E1",
 "note_on channel=8 note=28 velocity=0 time=60E1",
 "note_on channel=8 note=28 velocity=127 time=0E1",
 "note_on channel=8 note=28 velocity=0 time=60E1",
 "note_on channel=8 note=28 velocity=127 time=0E1",
 "note_on channel=8 note=28 velocity=0 time=60E1",
 "note_on channel=8 note=28 velocity=127 time=0E1",
 "note_on channel=8 note=28 velocity=0 time=60E1",
 "note_on channel=8 note=28 velocity=127 time=0E1",
 "note_on channel=8 note=28 velocity=0 time=60E1",
 "note_on channel=8 note=28 velocity=127 time=0E1",
 "note_on channel=8 note=28 velocity=0 time=60E1",
 "note_on channel=8 note=28 velocity=127 time=0E1",
 "note_on channel=8 note=28 velocity=0 time=60E1",
 "note_on channel=8 note=28 velocity=127 time=0E1",
 "note_on channel=8 note=28 velocity=0 time=60E1",
 "note_on channel=8 note=28 velocity=127 time=0E1",
 "note_on channel=8 note=28 velocity=0 time=60E1",
 "note_on channel=8 note=31 velocity=127 time=0G1",
 "note_on channel=8 note=31 velocity=0 time=60G1",
 "note_on channel=8 note=33 velocity=127 time=0A1",
 "note_on channel=8 note=33 velocity=0 time=60A1",
 "note_on channel=8 note=31 velocity=127 time=0G1",
 "note_on channel=8 note=31 velocity=0 time=60G1",
 "note_on channel=8 note=33 velocity=127 time=0A1",
 "note_on channel=8 note=33 velocity=0 time=60A1",
 "note_on channel=8 note=28 velocity=127 time=0E1",
 "note_on channel=8 note=28 velocity=0 time=60E1",
 "note_on channel=8 note=28 velocity=127 time=0E1",
 "note_on channel=8 note=28 velocity=0 time=60E1",
 "note_on channel=8 note=28 velocity=127 time=0E1",
 "note_on channel=8 note=28 velocity=0 time=60E1",
 "note_on channel=8 note=28 velocity=127 time=0E1",
 "note_on channel=8 note=28 velocity=0 time=60E1",
 "note_on channel=8 note=28 velocity=127 time=0E1",
 "note_on channel=8 note=28 velocity=0 time=60E1",
 "note_on channel=8 note=28 velocity=127 time=0E1",
 "note_on channel=8 note=28 velocity=0 time=60E1",
 "note_on channel=8 note=28 velocity=127 time=0E1",
 "note_on channel=8 note=28 velocity=0 time=60E1",
 "note_on channel=8 note=28 velocity=127 time=0E1",
 "note_on channel=8 note=28 velocity=0 time=60E1",
 "note_on channel=8 note=28 velocity=127 time=0E1",
 "note_on channel=8 note=28 velocity=0 time=60E1",
 "note_on channel=8 note=31 velocity=127 time=0G1",
 "note_on channel=8 note=31 velocity=0 time=60G1",
 "note_on channel=8 note=33 velocity=127 time=0A1",
 "note_on channel=8 note=33 velocity=0 time=60A1",
 "note_on channel=8 note=28 velocity=127 time=0E1",
 "note_on channel=8 note=28 velocity=0 time=60E1",
 "note_on channel=8 note=34 velocity=127 time=0BFLAT1",
 "note_on channel=8 note=34 velocity=0 time=60BFLAT1",
 "note_on channel=8 note=33 velocity=127 time=0A1",
 "note_on channel=8 note=33 velocity=0 time=60A1",
 "note_on channel=8 note=31 velocity=127 time=0G1",
 "note_on channel=8 note=31 velocity=0 time=60G1",
 "note_on channel=8 note=33 velocity=127 time=0A1",
 "note_on channel=8 note=33 velocity=0 time=60A1",
 "note_on channel=8 note=28 velocity=127 time=0E1",
 "note_on channel=8 note=28 velocity=0 time=60E1",
 "note_on channel=8 note=28 velocity=127 time=0E1",
 "note_on channel=8 note=28 velocity=0 time=60E1",
 "note_on channel=8 note=28 velocity=127 time=0E1",
 "note_on channel=8 note=28 velocity=0 time=60E1",
 "note_on channel=8 note=28 velocity=127 time=0E1",
 "note_on channel=8 note=28 velocity=0 time=60E1",
 "note_on channel=8 note=28 velocity=127 time=0E1",
 "note_on channel=8 note=28 velocity=0 time=60E1",
 "note_on channel=8 note=28 velocity=127 time=0E1",
 "note_on channel=8 note=28 velocity=0 time=60E1",
 "note_on channel=8 note=28 velocity=127 time=0E1",
 "note_on channel=8 note=28 velocity=0 time=60E1",
 "note_on channel=8 note=28 velocity=127 time=0E1",
 "note_on channel=8 note=28 velocity=0 time=60E1",
 "note_on channel=8 note=28 velocity=127 time=0E1",
 "note_on channel=8 note=28 velocity=0 time=60E1",
 "note_on channel=8 note=31 velocity=127 time=0G1",
 "note_on channel=8 note=31 velocity=0 time=60G1",
 "note_on channel=8 note=33 velocity=127 time=0A1",
 "note_on channel=8 note=33 velocity=0 time=60A1",
 "note_on channel=8 note=31 velocity=127 time=0G1",
 "note_on channel=8 note=31 velocity=0 time=60G1",
 "note_on channel=8 note=33 velocity=127 time=0A1",
 "note_on channel=8 note=33 velocity=0 time=60A1",
 "note_on channel=8 note=30 velocity=127 time=0FSHARP1",
 "note_on channel=8 note=30 velocity=0 time=60FSHARP1",
 "note_on channel=8 note=30 velocity=127 time=0FSHARP1",
 "note_on channel=8 note=30 velocity=0 time=60FSHARP1",
 "note_on channel=8 note=30 velocity=127 time=0FSHARP1",
 "note_on channel=8 note=30 velocity=0 time=60FSHARP1",
 "note_on channel=8 note=30 velocity=127 time=0FSHARP1",
 "note_on channel=8 note=30 velocity=0 time=60FSHARP1",
 "note_on channel=8 note=30 velocity=127 time=0FSHARP1",
 "note_on channel=8 note=30 velocity=0 time=60FSHARP1",
 "note_on channel=8 note=30 velocity=127 time=0FSHARP1",
 "note_on channel=8 note=30 velocity=0 time=60FSHARP1",
 "note_on channel=8 note=30 velocity=127 time=0FSHARP1",
 "note_on channel=8 note=30 velocity=0 time=60FSHARP1",
 "note_on channel=8 note=30 velocity=127 time=0FSHARP1",
 "note_on channel=8 note=30 velocity=0 time=60FSHARP1",
 "note_on channel=8 note=30 velocity=127 time=0FSHARP1",
 "note_on channel=8 note=30 velocity=0 time=60FSHARP1",
 "note_on channel=8 note=33 velocity=127 time=0A1",
 "note_on channel=8 note=33 velocity=0 time=60A1",
 "note_on channel=8 note=35 velocity=127 time=0B1",
 "note_on channel=8 note=35 velocity=0 time=60B1",
 "note_on channel=8 note=36 velocity=127 time=60C2",
 "note_on channel=8 note=36 velocity=0 time=60C2",
 "note_on channel=8 note=35 velocity=127 time=0B1",
 "note_on channel=8 note=35 velocity=0 time=60B1",
 "note_on channel=8 note=33 velocity=127 time=0A1",
 "note_on channel=8 note=33 velocity=0 time=60A1",
 "note_on channel=8 note=35 velocity=127 time=0B1",
 "note_on channel=8 note=35 velocity=0 time=60B1",
 "note_on channel=8 note=30 velocity=127 time=0FSHARP1",
 "note_on channel=8 note=30 velocity=0 time=60FSHARP1",
 "note_on channel=8 note=30 velocity=127 time=0FSHARP1",
 "note_on channel=8 note=30 velocity=0 time=60FSHARP1",
 "note_on channel=8 note=30 velocity=127 time=0FSHARP1",
 "note_on channel=8 note=30 velocity=0 time=60FSHARP1",
 "note_on channel=8 note=30 velocity=127 time=0FSHARP1",
 "note_on channel=8 note=30 velocity=0 time=60FSHARP1",
 "note_on channel=8 note=30 velocity=127 time=0FSHARP1",
 "note_on channel=8 note=30 velocity=0 time=60FSHARP1",
 "note_on channel=8 note=30 velocity=127 time=0FSHARP1",
 "note_on channel=8 note=30 velocity=0 time=60FSHARP1",
 "note_on channel=8 note=30 velocity=127 time=0FSHARP1",
 "note_on channel=8 note=30 velocity=0 time=60FSHARP1",
 "note_on channel=8 note=30 velocity=127 time=0FSHARP1",
 "note_on channel=8 note=30 velocity=0 time=60FSHARP1",
 "note_on channel=8 note=30 velocity=127 time=0FSHARP1",
 "note_on channel=8 note=30 velocity=0 time=60FSHARP1",
 "note_on channel=8 note=33 velocity=127 time=0A1",
 "note_on channel=8 note=33 velocity=0 time=60A1",
 "note_on channel=8 note=35 velocity=127 time=0B1",
 "note_on channel=8 note=35 velocity=0 time=60B1",
 "note_on channel=8 note=33 velocity=127 time=0A1",
 "note_on channel=8 note=33 velocity=0 time=60A1",
 "note_on channel=8 note=35 velocity=127 time=0B1",
 "note_on channel=8 note=35 velocity=0 time=60B1",
 "note_on channel=8 note=30 velocity=127 time=0FSHARP1",
 "note_on channel=8 note=30 velocity=0 time=60FSHARP1",
 "note_on channel=8 note=30 velocity=127 time=0FSHARP1",
 "note_on channel=8 note=30 velocity=0 time=60FSHARP1",
 "note_on channel=8 note=30 velocity=127 time=0FSHARP1",
 "note_on channel=8 note=30 velocity=0 time=60FSHARP1",
 "note_on channel=8 note=30 velocity=127 time=0FSHARP1",
 "note_on channel=8 note=30 velocity=0 time=60FSHARP1",
 "note_on channel=8 note=30 velocity=127 time=0FSHARP1",
 "note_on channel=8 note=30 velocity=0 time=60FSHARP1",
 "note_on channel=8 note=30 velocity=127 time=0FSHARP1",
 "note_on channel=8 note=30 velocity=0 time=60FSHARP1",
 "note_on channel=8 note=30 velocity=127 time=0FSHARP1",
 "note_on channel=8 note=30 velocity=0 time=60FSHARP1",
 "note_on channel=8 note=30 velocity=127 time=0FSHARP1",
 "note_on channel=8 note=30 velocity=0 time=60FSHARP1",
 "note_on channel=8 note=30 velocity=127 time=0FSHARP1",
 "note_on channel=8 note=30 velocity=0 time=60FSHARP1",
 "note_on channel=8 note=33 velocity=127 time=0A1",
 "note_on channel=8 note=33 velocity=0 time=60A1",
 "note_on channel=8 note=35 velocity=127 time=0B1",
 "note_on channel=8 note=35 velocity=0 time=60B1",
 "note_on channel=8 note=36 velocity=127 time=60C2",
 "note_on channel=8 note=36 velocity=0 time=60C2",
 "note_on channel=8 note=35 velocity=127 time=0B1",
 "note_on channel=8 note=35 velocity=0 time=60B1",
 "note_on channel=8 note=33 velocity=127 time=0A1",
 "note_on channel=8 note=33 velocity=0 time=60A1",
 "note_on channel=8 note=35 velocity=127 time=0B1",
 "note_on channel=8 note=35 velocity=0 time=60B1",
 "note_on channel=8 note=30 velocity=127 time=0FSHARP1",
 "note_on channel=8 note=30 velocity=0 time=60FSHARP1",
 "note_on channel=8 note=30 velocity=127 time=0FSHARP1",
 "note_on channel=8 note=30 velocity=0 time=60FSHARP1",
 "note_on channel=8 note=30 velocity=127 time=0FSHARP1",
 "note_on channel=8 note=30 velocity=0 time=60FSHARP1",
 "note_on channel=8 note=30 velocity=127 time=0FSHARP1",
 "note_on channel=8 note=30 velocity=0 time=60FSHARP1",
 "note_on channel=8 note=30 velocity=127 time=0FSHARP1",
 "note_on channel=8 note=30 velocity=0 time=60FSHARP1",
 "note_on channel=8 note=30 velocity=127 time=0FSHARP1",
 "note_on channel=8 note=30 velocity=0 time=60FSHARP1",
 "note_on channel=8 note=30 velocity=127 time=0FSHARP1",
 "note_on channel=8 note=30 velocity=0 time=60FSHARP1",
 "note_on channel=8 note=30 velocity=127 time=0FSHARP1",
 "note_on channel=8 note=30 velocity=0 time=60FSHARP1",
 "note_on channel=8 note=30 velocity=127 time=0FSHARP1",
 "note_on channel=8 note=30 velocity=0 time=60FSHARP1",
 "note_on channel=8 note=33 velocity=127 time=0A1",
 "note_on channel=8 note=33 velocity=0 time=60A1",
 "note_on channel=8 note=35 velocity=127 time=0B1",
 "note_on channel=8 note=35 velocity=0 time=60B1",
 "note_on channel=8 note=33 velocity=127 time=0A1",
 "note_on channel=8 note=33 velocity=0 time=60A1",
 "note_on channel=8 note=35 velocity=127 time=0B1",
 "note_on channel=8 note=35 velocity=0 time=60B1",
 "note_on channel=8 note=35 velocity=127 time=0B1",
 "note_on channel=8 note=35 velocity=0 time=60B1",
 "note_on channel=8 note=35 velocity=127 time=0B1",
 "note_on channel=8 note=35 velocity=0 time=60B1",
 "note_on channel=8 note=35 velocity=127 time=0B1",
 "note_on channel=8 note=35 velocity=0 time=60B1",
 "note_on channel=8 note=35 velocity=127 time=0B1",
 "note_on channel=8 note=35 velocity=0 time=60B1",
 "note_on channel=8 note=35 velocity=127 time=0B1",
 "note_on channel=8 note=35 velocity=0 time=60B1",
 "note_on channel=8 note=35 velocity=127 time=0B1",
 "note_on channel=8 note=35 velocity=0 time=60B1",
 "note_on channel=8 note=35 velocity=127 time=0B1",
 "note_on channel=8 note=35 velocity=0 time=60B1",
 "note_on channel=8 note=35 velocity=127 time=0B1",
 "note_on channel=8 note=35 velocity=0 time=60B1",
 "note_on channel=8 note=28 velocity=127 time=0E1",
 "note_on channel=8 note=28 velocity=0 time=60E1",
 "note_on channel=8 note=28 velocity=127 time=0E1",
 "note_on channel=8 note=28 velocity=0 time=60E1",
 "note_on channel=8 note=29 velocity=127 time=0F1",
 "note_on channel=8 note=29 velocity=0 time=60F1",
 "note_on channel=8 note=28 velocity=127 time=0E1",
 "note_on channel=8 note=28 velocity=0 time=60E1",
 "note_on channel=8 note=28 velocity=127 time=0E1",
 "note_on channel=8 note=28 velocity=0 time=60E1",
 "note_on channel=8 note=29 velocity=127 time=0F1",
 "note_on channel=8 note=29 velocity=0 time=60F1",
 "note_on channel=8 note=28 velocity=127 time=0E1",
 "note_on channel=8 note=28 velocity=0 time=60E1",
 "note_on channel=8 note=28 velocity=127 time=0E1",
 "note_on channel=8 note=28 velocity=0 time=60E1",
 "note_on channel=8 note=29 velocity=127 time=0F1",
 "note_on channel=8 note=29 velocity=0 time=60F1",
 "note_on channel=8 note=28 velocity=127 time=0E1",
 "note_on channel=8 note=28 velocity=0 time=60E1",
 "note_on channel=8 note=28 velocity=127 time=0E1",
 "note_on channel=8 note=28 velocity=0 time=60E1",
 "note_on channel=8 note=29 velocity=127 time=0F1",
 "note_on channel=8 note=29 velocity=0 time=60F1",
 "note_on channel=8 note=28 velocity=127 time=0E1",
 "note_on channel=8 note=28 velocity=0 time=60E1",
 "note_on channel=8 note=28 velocity=127 time=0E1",
 "note_on channel=8 note=28 velocity=0 time=60E1",
 "note_on channel=8 note=35 velocity=127 time=0B1",
 "note_on channel=8 note=35 velocity=0 time=60B1",
 "note_on channel=8 note=35 velocity=127 time=0B1",
 "note_on channel=8 note=35 velocity=0 time=60B1",
 "note_on channel=8 note=28 velocity=127 time=0E1",
 "note_on channel=8 note=28 velocity=0 time=60E1",
 "note_on channel=8 note=28 velocity=127 time=0E1",
 "note_on channel=8 note=28 velocity=0 time=60E1",
 "note_on channel=8 note=29 velocity=127 time=0F1",
 "note_on channel=8 note=29 velocity=0 time=60F1",
 "note_on channel=8 note=28 velocity=127 time=0E1",
 "note_on channel=8 note=28 velocity=0 time=60E1",
 "note_on channel=8 note=28 velocity=127 time=0E1",
 "note_on channel=8 note=28 velocity=0 time=60E1",
 "note_on channel=8 note=29 velocity=127 time=0F1",
 "note_on channel=8 note=29 velocity=0 time=60F1",
 "note_on channel=8 note=28 velocity=127 time=0E1",
 "note_on channel=8 note=28 velocity=0 time=60E1",
 "note_on channel=8 note=28 velocity=127 time=0E1",
 "note_on channel=8 note=28 velocity=0 time=60E1",
 "note_on channel=8 note=29 velocity=127 time=0F1",
 "note_on channel=8 note=29 velocity=0 time=60F1",
 "note_on channel=8 note=28 velocity=127 time=0E1",
 "note_on channel=8 note=28 velocity=0 time=60E1",
 "note_on channel=8 note=28 velocity=127 time=0E1",
 "note_on channel=8 note=28 velocity=0 time=60E1",
 "note_on channel=8 note=29 velocity=127 time=0F1",
 "note_on channel=8 note=29 velocity=0 time=60F1",
 "note_on channel=8 note=28 velocity=127 time=0E1",
 "note_on channel=8 note=28 velocity=0 time=60E1",
 "note_on channel=8 note=28 velocity=127 time=0E1",
 "note_on channel=8 note=28 velocity=0 time=60E1",
 "note_on channel=8 note=35 velocity=127 time=0B1",
 "note_on channel=8 note=35 velocity=0 time=120B1",
 "note_on channel=8 note=28 velocity=127 time=0E1",
 "note_on channel=8 note=28 velocity=0 time=60E1",
 "note_on channel=8 note=28 velocity=127 time=0E1",
 "note_on channel=8 note=28 velocity=0 time=60E1",
 "note_on channel=8 note=29 velocity=127 time=0F1",
 "note_on channel=8 note=29 velocity=0 time=60F1",
 "note_on channel=8 note=28 velocity=127 time=0E1",
 "note_on channel=8 note=28 velocity=0 time=60E1",
 "note_on channel=8 note=28 velocity=127 time=0E1",
 "note_on channel=8 note=28 velocity=0 time=60E1",
 "note_on channel=8 note=29 velocity=127 time=0F1",
 "note_on channel=8 note=29 velocity=0 time=60F1",
 "note_on channel=8 note=28 velocity=127 time=0E1",
 "note_on channel=8 note=28 velocity=0 time=60E1",
 "note_on channel=8 note=28 velocity=127 time=0E1",
 "note_on channel=8 note=28 velocity=0 time=60E1",
 "note_on channel=8 note=29 velocity=127 time=0F1",
 "note_on channel=8 note=29 velocity=0 time=60F1",
 "note_on channel=8 note=28 velocity=127 time=0E1",
 "note_on channel=8 note=28 velocity=0 time=60E1",
 "note_on channel=8 note=28 velocity=127 time=0E1",
 "note_on channel=8 note=28 velocity=0 time=60E1",
 "note_on channel=8 note=29 velocity=127 time=0F1",
 "note_on channel=8 note=29 velocity=0 time=60F1",
 "note_on channel=8 note=28 velocity=127 time=0E1",
 "note_on channel=8 note=28 velocity=0 time=60E1",
 "note_on channel=8 note=28 velocity=127 time=0E1",
 "note_on channel=8 note=28 velocity=0 time=60E1",
 "note_on channel=8 note=35 velocity=127 time=0B1",
 "note_on channel=8 note=35 velocity=0 time=60B1",
 "note_on channel=8 note=35 velocity=127 time=0B1",
 "note_on channel=8 note=35 velocity=0 time=60B1",
 "note_on channel=8 note=28 velocity=127 time=0E1",
 "note_on channel=8 note=28 velocity=0 time=60E1",
 "note_on channel=8 note=28 velocity=127 time=0E1",
 "note_on channel=8 note=28 velocity=0 time=60E1",
 "note_on channel=8 note=29 velocity=127 time=0F1",
 "note_on channel=8 note=29 velocity=0 time=60F1",
 "note_on channel=8 note=28 velocity=127 time=0E1",
 "note_on channel=8 note=28 velocity=0 time=60E1",
 "note_on channel=8 note=28 velocity=127 time=0E1",
 "note_on channel=8 note=28 velocity=0 time=60E1",
 "note_on channel=8 note=29 velocity=127 time=0F1",
 "note_on channel=8 note=29 velocity=0 time=60F1",
 "note_on channel=8 note=28 velocity=127 time=0E1",
 "note_on channel=8 note=28 velocity=0 time=60E1",
 "note_on channel=8 note=28 velocity=127 time=0E1",
 "note_on channel=8 note=28 velocity=0 time=60E1",
 "note_on channel=8 note=29 velocity=127 time=0F1",
 "note_on channel=8 note=29 velocity=0 time=60F1",
 "note_on channel=8 note=28 velocity=127 time=0E1",
 "note_on channel=8 note=28 velocity=0 time=60E1",
 "note_on channel=8 note=28 velocity=127 time=0E1",
 "note_on channel=8 note=28 velocity=0 time=60E1",
 "note_on channel=8 note=29 velocity=127 time=0F1",
 "note_on channel=8 note=29 velocity=0 time=60F1",
 "note_on channel=8 note=28 velocity=127 time=0E1",
 "note_on channel=8 note=28 velocity=0 time=60E1",
 "note_on channel=8 note=28 velocity=127 time=0E1",
 "note_on channel=8 note=28 velocity=0 time=60E1",
 "note_on channel=8 note=35 velocity=127 time=0B1",
 "note_on channel=8 note=35 velocity=0 time=120B1",
 "note_on channel=8 note=28 velocity=127 time=0E1",
 "note_on channel=8 note=28 velocity=0 time=60E1",
 "note_on channel=8 note=28 velocity=127 time=0E1",
 "note_on channel=8 note=28 velocity=0 time=60E1",
 "note_on channel=8 note=28 velocity=127 time=0E1",
 "note_on channel=8 note=28 velocity=0 time=60E1",
 "note_on channel=8 note=28 velocity=127 time=0E1",
 "note_on channel=8 note=28 velocity=0 time=60E1",
 "note_on channel=8 note=28 velocity=127 time=0E1",
 "note_on channel=8 note=28 velocity=0 time=60E1",
 "note_on channel=8 note=28 velocity=127 time=0E1",
 "note_on channel=8 note=28 velocity=0 time=60E1",
 "note_on channel=8 note=28 velocity=127 time=0E1",
 "note_on channel=8 note=28 velocity=0 time=60E1",
 "note_on channel=8 note=28 velocity=127 time=0E1",
 "note_on channel=8 note=28 velocity=0 time=60E1",
 "note_on channel=8 note=28 velocity=127 time=0E1",
 "note_on channel=8 note=28 velocity=0 time=60E1",
 "note_on channel=8 note=30 velocity=127 time=0FSHARP1",
 "note_on channel=8 note=30 velocity=0 time=60FSHARP1",
 "note_on channel=8 note=31 velocity=127 time=0G1",
 "note_on channel=8 note=31 velocity=0 time=60G1",
 "note_on channel=8 note=33 velocity=127 time=0A1",
 "note_on channel=8 note=33 velocity=0 time=60A1",
 "note_on channel=8 note=35 velocity=127 time=0B1",
 "note_on channel=8 note=35 velocity=0 time=60B1",
 "note_on channel=8 note=36 velocity=127 time=0C2",
 "note_on channel=8 note=36 velocity=0 time=60C2",
 "note_on channel=8 note=38 velocity=127 time=0D2",
 "note_on channel=8 note=38 velocity=0 time=60D2",
 "note_on channel=8 note=40 velocity=127 time=0E2",
 "note_on channel=8 note=40 velocity=0 time=60E2",
 "note_on channel=8 note=42 velocity=127 time=0FSHARP2",
 "note_on channel=8 note=42 velocity=0 time=60FSHARP2",
 "note_on channel=8 note=43 velocity=127 time=0G2",
 "note_on channel=8 note=43 velocity=0 time=60G2",
 "note_on channel=8 note=36 velocity=127 time=0C2",
 "note_on channel=8 note=36 velocity=0 time=300C2",
 "note_on channel=8 note=36 velocity=127 time=0C2",
 "note_on channel=8 note=36 velocity=0 time=30C2",
 "note_on channel=8 note=36 velocity=127 time=0C2",
 "note_on channel=8 note=36 velocity=0 time=30C2",
 "note_on channel=8 note=36 velocity=127 time=0C2",
 "note_on channel=8 note=36 velocity=0 time=60C2",
 "note_on channel=8 note=35 velocity=127 time=0B1",
 "note_on channel=8 note=35 velocity=0 time=60B1",
 "note_on channel=8 note=36 velocity=127 time=0C2",
 "note_on channel=8 note=36 velocity=0 time=60C2",
 "note_on channel=8 note=38 velocity=127 time=0D2",
 "note_on channel=8 note=38 velocity=0 time=60D2",
 "note_on channel=8 note=36 velocity=127 time=0C2",
 "note_on channel=8 note=36 velocity=0 time=60C2",
 "note_on channel=8 note=35 velocity=127 time=0B1",
 "note_on channel=8 note=35 velocity=0 time=60B1",
 "note_on channel=8 note=31 velocity=127 time=0G1",
 "note_on channel=8 note=31 velocity=0 time=60G1",
 "note_on channel=8 note=30 velocity=127 time=0FSHARP1",
 "note_on channel=8 note=30 velocity=0 time=60FSHARP1",
 "note_on channel=8 note=28 velocity=127 time=0E1",
 "note_on channel=8 note=28 velocity=0 time=60E1",
 "note_on channel=8 note=28 velocity=127 time=0E1",
 "note_on channel=8 note=28 velocity=0 time=60E1",
 "note_on channel=8 note=28 velocity=127 time=0E1",
 "note_on channel=8 note=28 velocity=0 time=60E1",
 "note_on channel=8 note=28 velocity=127 time=0E1",
 "note_on channel=8 note=28 velocity=0 time=60E1",
 "note_on channel=8 note=28 velocity=127 time=0E1",
 "note_on channel=8 note=28 velocity=0 time=60E1",
 "note_on channel=8 note=28 velocity=127 time=0E1",
 "note_on channel=8 note=28 velocity=0 time=60E1",
 "note_on channel=8 note=28 velocity=127 time=0E1",
 "note_on channel=8 note=28 velocity=0 time=60E1",
 "note_on channel=8 note=28 velocity=127 time=0E1",
 "note_on channel=8 note=28 velocity=0 time=30E1",
 "note_on channel=8 note=28 velocity=127 time=0E1",
 "note_on channel=8 note=28 velocity=0 time=30E1",
 "note_on channel=8 note=28 velocity=127 time=0E1",
 "note_on channel=8 note=28 velocity=0 time=60E1",
 "note_on channel=8 note=30 velocity=127 time=0FSHARP1",
 "note_on channel=8 note=30 velocity=0 time=60FSHARP1",
 "note_on channel=8 note=31 velocity=127 time=0G1",
 "note_on channel=8 note=31 velocity=0 time=60G1",
 "note_on channel=8 note=33 velocity=127 time=0A1",
 "note_on channel=8 note=33 velocity=0 time=60A1",
 "note_on channel=8 note=35 velocity=127 time=0B1",
 "note_on channel=8 note=35 velocity=0 time=60B1",
 "note_on channel=8 note=36 velocity=127 time=0C2",
 "note_on channel=8 note=36 velocity=0 time=60C2",
 "note_on channel=8 note=38 velocity=127 time=0D2",
 "note_on channel=8 note=38 velocity=0 time=60D2",
 "note_on channel=8 note=40 velocity=127 time=0E2",
 "note_on channel=8 note=40 velocity=0 time=60E2",
 "note_on channel=8 note=42 velocity=127 time=0FSHARP2",
 "note_on channel=8 note=42 velocity=0 time=60FSHARP2",
 "note_on channel=8 note=43 velocity=127 time=0G2",
 "note_on channel=8 note=43 velocity=0 time=60G2",
 "note_on channel=8 note=36 velocity=127 time=0C2",
 "note_on channel=8 note=36 velocity=0 time=300C2",
 "note_on channel=8 note=36 velocity=127 time=0C2",
 "note_on channel=8 note=36 velocity=0 time=30C2",
 "note_on channel=8 note=36 velocity=127 time=0C2",
 "note_on channel=8 note=36 velocity=0 time=30C2",
 "note_on channel=8 note=36 velocity=127 time=0C2",
 "note_on channel=8 note=36 velocity=0 time=60C2",
 "note_on channel=8 note=35 velocity=127 time=0B1",
 "note_on channel=8 note=35 velocity=0 time=60B1",
 "note_on channel=8 note=36 velocity=127 time=0C2",
 "note_on channel=8 note=36 velocity=0 time=60C2",
 "note_on channel=8 note=38 velocity=127 time=0D2",
 "note_on channel=8 note=38 velocity=0 time=60D2",
 "note_on channel=8 note=36 velocity=127 time=0C2",
 "note_on channel=8 note=36 velocity=0 time=60C2",
 "note_on channel=8 note=35 velocity=127 time=0B1",
 "note_on channel=8 note=35 velocity=0 time=60B1",
 "note_on channel=8 note=31 velocity=127 time=0G1",
 "note_on channel=8 note=31 velocity=0 time=60G1",
 "note_on channel=8 note=30 velocity=127 time=0FSHARP1",
 "note_on channel=8 note=30 velocity=0 time=60FSHARP1",
 "note_on channel=8 note=28 velocity=127 time=0E1",
 "note_on channel=8 note=28 velocity=0 time=60E1",
 "note_on channel=8 note=28 velocity=127 time=0E1",
 "note_on channel=8 note=28 velocity=0 time=60E1",
 "note_on channel=8 note=28 velocity=127 time=0E1",
 "note_on channel=8 note=28 velocity=0 time=60E1",
 "note_on channel=8 note=28 velocity=127 time=0E1",
 "note_on channel=8 note=28 velocity=0 time=60E1",
 "note_on channel=8 note=28 velocity=127 time=0E1",
 "note_on channel=8 note=28 velocity=0 time=60E1",
 "note_on channel=8 note=28 velocity=127 time=0E1",
 "note_on channel=8 note=28 velocity=0 time=60E1",
 "note_on channel=8 note=28 velocity=127 time=0E1",
 "note_on channel=8 note=28 velocity=0 time=60E1",
 "note_on channel=8 note=28 velocity=127 time=0E1",
 "note_on channel=8 note=28 velocity=0 time=30E1",
 "note_on channel=8 note=28 velocity=127 time=0E1",
 "note_on channel=8 note=28 velocity=0 time=30E1",
 "note_on channel=8 note=28 velocity=127 time=0E1",
 "note_on channel=8 note=28 velocity=0 time=60E1",
 "note_on channel=8 note=30 velocity=127 time=0FSHARP1",
 "note_on channel=8 note=30 velocity=0 time=60FSHARP1",
 "note_on channel=8 note=31 velocity=127 time=0G1",
 "note_on channel=8 note=31 velocity=0 time=60G1",
 "note_on channel=8 note=33 velocity=127 time=0A1",
 "note_on channel=8 note=33 velocity=0 time=60A1",
 "note_on channel=8 note=35 velocity=127 time=0B1",
 "note_on channel=8 note=35 velocity=0 time=60B1",
 "note_on channel=8 note=36 velocity=127 time=0C2",
 "note_on channel=8 note=36 velocity=0 time=60C2",
 "note_on channel=8 note=38 velocity=127 time=0D2",
 "note_on channel=8 note=38 velocity=0 time=60D2",
 "note_on channel=8 note=40 velocity=127 time=0E2",
 "note_on channel=8 note=40 velocity=0 time=60E2",
 "note_on channel=8 note=42 velocity=127 time=0FSHARP2",
 "note_on channel=8 note=42 velocity=0 time=60FSHARP2",
 "note_on channel=8 note=43 velocity=127 time=0G2",
 "note_on channel=8 note=43 velocity=0 time=60G2",
 "note_on channel=8 note=36 velocity=127 time=0C2",
 "note_on channel=8 note=36 velocity=0 time=300C2",
 "note_on channel=8 note=36 velocity=127 time=0C2",
 "note_on channel=8 note=36 velocity=0 time=30C2",
 "note_on channel=8 note=36 velocity=127 time=0C2",
 "note_on channel=8 note=36 velocity=0 time=30C2",
 "note_on channel=8 note=36 velocity=127 time=0C2",
 "note_on channel=8 note=36 velocity=0 time=60C2",
 "note_on channel=8 note=35 velocity=127 time=0B1",
 "note_on channel=8 note=35 velocity=0 time=60B1",
 "note_on channel=8 note=36 velocity=127 time=0C2",
 "note_on channel=8 note=36 velocity=0 time=60C2",
 "note_on channel=8 note=38 velocity=127 time=0D2",
 "note_on channel=8 note=38 velocity=0 time=60D2",
 "note_on channel=8 note=36 velocity=127 time=0C2",
 "note_on channel=8 note=36 velocity=0 time=60C2",
 "note_on channel=8 note=35 velocity=127 time=0B1",
 "note_on channel=8 note=35 velocity=0 time=60B1",
 "note_on channel=8 note=31 velocity=127 time=0G1",
 "note_on channel=8 note=31 velocity=0 time=60G1",
 "note_on channel=8 note=30 velocity=127 time=0FSHARP1",
 "note_on channel=8 note=30 velocity=0 time=60FSHARP1",
 "note_on channel=8 note=28 velocity=127 time=0E1",
 "note_on channel=8 note=28 velocity=0 time=60E1",
 "note_on channel=8 note=28 velocity=127 time=0E1",
 "note_on channel=8 note=28 velocity=0 time=60E1",
 "note_on channel=8 note=28 velocity=127 time=0E1",
 "note_on channel=8 note=28 velocity=0 time=60E1",
 "note_on channel=8 note=28 velocity=127 time=0E1",
 "note_on channel=8 note=28 velocity=0 time=60E1",
 "note_on channel=8 note=28 velocity=127 time=0E1",
 "note_on channel=8 note=28 velocity=0 time=60E1",
 "note_on channel=8 note=28 velocity=127 time=0E1",
 "note_on channel=8 note=28 velocity=0 time=60E1",
 "note_on channel=8 note=28 velocity=127 time=0E1",
 "note_on channel=8 note=28 velocity=0 time=60E1",
 "note_on channel=8 note=28 velocity=127 time=0E1",
 "note_on channel=8 note=28 velocity=0 time=30E1",
 "note_on channel=8 note=28 velocity=127 time=0E1",
 "note_on channel=8 note=28 velocity=0 time=30E1",
 "note_on channel=8 note=28 velocity=127 time=0E1",
 "note_on channel=8 note=28 velocity=0 time=60E1",
 "note_on channel=8 note=30 velocity=127 time=0FSHARP1",
 "note_on channel=8 note=30 velocity=0 time=60FSHARP1",
 "note_on channel=8 note=31 velocity=127 time=0G1",
 "note_on channel=8 note=31 velocity=0 time=60G1",
 "note_on channel=8 note=33 velocity=127 time=0A1",
 "note_on channel=8 note=33 velocity=0 time=60A1",
 "note_on channel=8 note=35 velocity=127 time=0B1",
 "note_on channel=8 note=35 velocity=0 time=60B1",
 "note_on channel=8 note=36 velocity=127 time=0C2",
 "note_on channel=8 note=36 velocity=0 time=60C2",
 "note_on channel=8 note=38 velocity=127 time=0D2",
 "note_on channel=8 note=38 velocity=0 time=60D2",
 "note_on channel=8 note=40 velocity=127 time=0E2",
 "note_on channel=8 note=40 velocity=0 time=60E2",
 "note_on channel=8 note=42 velocity=127 time=0FSHARP2",
 "note_on channel=8 note=42 velocity=0 time=60FSHARP2",
 "note_on channel=8 note=43 velocity=127 time=0G2",
 "note_on channel=8 note=43 velocity=0 time=60G2",
 "note_on channel=8 note=36 velocity=127 time=0C2",
 "note_on channel=8 note=36 velocity=0 time=300C2",
 "note_on channel=8 note=36 velocity=127 time=0C2",
 "note_on channel=8 note=36 velocity=0 time=30C2",
 "note_on channel=8 note=36 velocity=127 time=0C2",
 "note_on channel=8 note=36 velocity=0 time=30C2",
 "note_on channel=8 note=36 velocity=127 time=0C2",
 "note_on channel=8 note=36 velocity=0 time=60C2",
 "note_on channel=8 note=35 velocity=127 time=0B1",
 "note_on channel=8 note=35 velocity=0 time=60B1",
 "note_on channel=8 note=36 velocity=127 time=0C2",
 "note_on channel=8 note=36 velocity=0 time=60C2",
 "note_on channel=8 note=38 velocity=127 time=0D2",
 "note_on channel=8 note=38 velocity=0 time=60D2",
 "note_on channel=8 note=36 velocity=127 time=0C2",
 "note_on channel=8 note=36 velocity=0 time=60C2",
 "note_on channel=8 note=35 velocity=127 time=0B1",
 "note_on channel=8 note=35 velocity=0 time=60B1",
 "note_on channel=8 note=31 velocity=127 time=0G1",
 "note_on channel=8 note=31 velocity=0 time=60G1",
 "note_on channel=8 note=30 velocity=127 time=0FSHARP1",
 "note_on channel=8 note=30 velocity=0 time=60FSHARP1",
 "note_on channel=8 note=28 velocity=127 time=0E1",
 "note_on channel=8 note=28 velocity=0 time=420E1",
 "note_on channel=8 note=36 velocity=127 time=0C2",
 "note_on channel=8 note=36 velocity=0 time=30C2",
 "note_on channel=8 note=36 velocity=127 time=0C2",
 "note_on channel=8 note=36 velocity=0 time=30C2",
 "note_on channel=8 note=36 velocity=127 time=0C2",
 "note_on channel=8 note=36 velocity=0 time=60C2",
 "note_on channel=8 note=35 velocity=127 time=0B1",
 "note_on channel=8 note=35 velocity=0 time=60B1",
 "note_on channel=8 note=36 velocity=127 time=0C2",
 "note_on channel=8 note=36 velocity=0 time=60C2",
 "note_on channel=8 note=38 velocity=127 time=0D2",
 "note_on channel=8 note=38 velocity=0 time=60D2",
 "note_on channel=8 note=36 velocity=127 time=0C2",
 "note_on channel=8 note=36 velocity=0 time=60C2",
 "note_on channel=8 note=35 velocity=127 time=0B1",
 "note_on channel=8 note=35 velocity=0 time=60B1",
 "note_on channel=8 note=31 velocity=127 time=0G1",
 "note_on channel=8 note=31 velocity=0 time=60G1",
 "note_on channel=8 note=30 velocity=127 time=0FSHARP1",
 "note_on channel=8 note=30 velocity=0 time=60FSHARP1",
 "note_on channel=8 note=28 velocity=127 time=0E1",
 "note_on channel=8 note=28 velocity=0 time=120E1",
 "note_on channel=8 note=31 velocity=127 time=1320G1",
 "note_on channel=8 note=31 velocity=0 time=60G1",
 "note_on channel=8 note=30 velocity=127 time=0FSHARP1",
 "note_on channel=8 note=30 velocity=0 time=60FSHARP1",
 "note_on channel=8 note=28 velocity=127 time=0E1",
 "note_on channel=8 note=28 velocity=0 time=60E1",
 "note_on channel=8 note=31 velocity=127 time=0G1",
 "note_on channel=8 note=31 velocity=0 time=60G1",
 "note_on channel=8 note=30 velocity=127 time=0FSHARP1",
 "note_on channel=8 note=30 velocity=0 time=60FSHARP1",
 "note_on channel=8 note=28 velocity=127 time=0E1",
 "note_on channel=8 note=28 velocity=0 time=60E1",
 "note_on channel=8 note=31 velocity=127 time=0G1",
 "note_on channel=8 note=31 velocity=0 time=60G1",
 "note_on channel=8 note=30 velocity=127 time=0FSHARP1",
 "note_on channel=8 note=30 velocity=0 time=60FSHARP1",
 "note_on channel=8 note=28 velocity=127 time=0E1",
 "note_on channel=8 note=28 velocity=0 time=120E1",
 "note_on channel=8 note=31 velocity=127 time=1320G1",
 "note_on channel=8 note=31 velocity=0 time=60G1",
 "note_on channel=8 note=30 velocity=127 time=0FSHARP1",
 "note_on channel=8 note=30 velocity=0 time=60FSHARP1",
 "note_on channel=8 note=28 velocity=127 time=0E1",
 "note_on channel=8 note=28 velocity=0 time=60E1",
 "note_on channel=8 note=31 velocity=127 time=0G1",
 "note_on channel=8 note=31 velocity=0 time=60G1",
 "note_on channel=8 note=30 velocity=127 time=0FSHARP1",
 "note_on channel=8 note=30 velocity=0 time=60FSHARP1",
 "note_on channel=8 note=28 velocity=127 time=0E1",
 "note_on channel=8 note=28 velocity=0 time=60E1",
 "note_on channel=8 note=31 velocity=127 time=0G1",
 "note_on channel=8 note=31 velocity=0 time=60G1",
 "note_on channel=8 note=30 velocity=127 time=0FSHARP1",
 "note_on channel=8 note=30 velocity=0 time=60FSHARP1",
 "note_on channel=8 note=31 velocity=127 time=0G1",
 "note_on channel=8 note=31 velocity=0 time=60G1",
 "note_on channel=8 note=30 velocity=127 time=0FSHARP1",
 "note_on channel=8 note=30 velocity=0 time=60FSHARP1",
 "note_on channel=8 note=28 velocity=127 time=0E1",
 "note_on channel=8 note=28 velocity=0 time=60E1",
 "note_on channel=8 note=31 velocity=127 time=0G1",
 "note_on channel=8 note=31 velocity=0 time=60G1",
 "note_on channel=8 note=30 velocity=127 time=0FSHARP1",
 "note_on channel=8 note=30 velocity=0 time=60FSHARP1",
 "note_on channel=8 note=28 velocity=127 time=0E1",
 "note_on channel=8 note=28 velocity=0 time=60E1",
 "note_on channel=8 note=31 velocity=127 time=0G1",
 "note_on channel=8 note=31 velocity=0 time=60G1",
 "note_on channel=8 note=30 velocity=127 time=0FSHARP1",
 "note_on channel=8 note=30 velocity=0 time=60FSHARP1",
 "note_on channel=8 note=28 velocity=127 time=0E1",
 "note_on channel=8 note=28 velocity=0 time=60E1",
 "note_on channel=8 note=28 velocity=127 time=0E1",
 "note_on channel=8 note=28 velocity=0 time=60E1",
 "note_on channel=8 note=28 velocity=127 time=0E1",
 "note_on channel=8 note=28 velocity=0 time=60E1",
 "note_on channel=8 note=28 velocity=127 time=0E1",
 "note_on channel=8 note=28 velocity=0 time=60E1",
 "note_on channel=8 note=28 velocity=127 time=0E1",
 "note_on channel=8 note=28 velocity=0 time=60E1",
 "note_on channel=8 note=28 velocity=127 time=0E1",
 "note_on channel=8 note=28 velocity=0 time=60E1",
 "note_on channel=8 note=28 velocity=127 time=0E1",
 "note_on channel=8 note=28 velocity=0 time=60E1",
 "note_on channel=8 note=28 velocity=127 time=0E1",
 "note_on channel=8 note=28 velocity=0 time=60E1",
 "note_on channel=8 note=28 velocity=127 time=0E1",
 "note_on channel=8 note=28 velocity=0 time=60E1",
 "note_on channel=8 note=31 velocity=127 time=0G1",
 "note_on channel=8 note=31 velocity=0 time=60G1",
 "note_on channel=8 note=33 velocity=127 time=0A1",
 "note_on channel=8 note=33 velocity=0 time=60A1",
 "note_on channel=8 note=28 velocity=127 time=0E1",
 "note_on channel=8 note=28 velocity=0 time=60E1",
 "note_on channel=8 note=34 velocity=127 time=0BFLAT1",
 "note_on channel=8 note=34 velocity=0 time=60BFLAT1",
 "note_on channel=8 note=33 velocity=127 time=0A1",
 "note_on channel=8 note=33 velocity=0 time=60A1",
 "note_on channel=8 note=31 velocity=127 time=0G1",
 "note_on channel=8 note=31 velocity=0 time=60G1",
 "note_on channel=8 note=33 velocity=127 time=0A1",
 "note_on channel=8 note=33 velocity=0 time=60A1",
 "note_on channel=8 note=28 velocity=127 time=0E1",
 "note_on channel=8 note=28 velocity=0 time=60E1",
 "note_on channel=8 note=28 velocity=127 time=0E1",
 "note_on channel=8 note=28 velocity=0 time=60E1",
 "note_on channel=8 note=28 velocity=127 time=0E1",
 "note_on channel=8 note=28 velocity=0 time=60E1",
 "note_on channel=8 note=28 velocity=127 time=0E1",
 "note_on channel=8 note=28 velocity=0 time=60E1",
 "note_on channel=8 note=28 velocity=127 time=0E1",
 "note_on channel=8 note=28 velocity=0 time=60E1",
 "note_on channel=8 note=28 velocity=127 time=0E1",
 "note_on channel=8 note=28 velocity=0 time=60E1",
 "note_on channel=8 note=28 velocity=127 time=0E1",
 "note_on channel=8 note=28 velocity=0 time=60E1",
 "note_on channel=8 note=28 velocity=127 time=0E1",
 "note_on channel=8 note=28 velocity=0 time=60E1",
 "note_on channel=8 note=28 velocity=127 time=0E1",
 "note_on channel=8 note=28 velocity=0 time=60E1",
 "note_on channel=8 note=31 velocity=127 time=0G1",
 "note_on channel=8 note=31 velocity=0 time=60G1",
 "note_on channel=8 note=33 velocity=127 time=0A1",
 "note_on channel=8 note=33 velocity=0 time=60A1",
 "note_on channel=8 note=31 velocity=127 time=0G1",
 "note_on channel=8 note=31 velocity=0 time=60G1",
 "note_on channel=8 note=33 velocity=127 time=0A1",
 "note_on channel=8 note=33 velocity=0 time=60A1",
 "note_on channel=8 note=28 velocity=127 time=0E1",
 "note_on channel=8 note=28 velocity=0 time=60E1",
 "note_on channel=8 note=28 velocity=127 time=0E1",
 "note_on channel=8 note=28 velocity=0 time=60E1",
 "note_on channel=8 note=28 velocity=127 time=0E1",
 "note_on channel=8 note=28 velocity=0 time=60E1",
 "note_on channel=8 note=28 velocity=127 time=0E1",
 "note_on channel=8 note=28 velocity=0 time=60E1",
 "note_on channel=8 note=28 velocity=127 time=0E1",
 "note_on channel=8 note=28 velocity=0 time=60E1",
 "note_on channel=8 note=28 velocity=127 time=0E1",
 "note_on channel=8 note=28 velocity=0 time=60E1",
 "note_on channel=8 note=28 velocity=127 time=0E1",
 "note_on channel=8 note=28 velocity=0 time=60E1",
 "note_on channel=8 note=28 velocity=127 time=0E1",
 "note_on channel=8 note=28 velocity=0 time=60E1",
 "note_on channel=8 note=28 velocity=127 time=0E1",
 "note_on channel=8 note=28 velocity=0 time=60E1",
 "note_on channel=8 note=31 velocity=127 time=0G1",
 "note_on channel=8 note=31 velocity=0 time=60G1",
 "note_on channel=8 note=33 velocity=127 time=0A1",
 "note_on channel=8 note=33 velocity=0 time=60A1",
 "note_on channel=8 note=28 velocity=127 time=0E1",
 "note_on channel=8 note=28 velocity=0 time=60E1",
 "note_on channel=8 note=34 velocity=127 time=0BFLAT1",
 "note_on channel=8 note=34 velocity=0 time=60BFLAT1",
 "note_on channel=8 note=33 velocity=127 time=0A1",
 "note_on channel=8 note=33 velocity=0 time=60A1",
 "note_on channel=8 note=31 velocity=127 time=0G1",
 "note_on channel=8 note=31 velocity=0 time=60G1",
 "note_on channel=8 note=33 velocity=127 time=0A1",
 "note_on channel=8 note=33 velocity=0 time=60A1",
 "note_on channel=8 note=28 velocity=127 time=0E1",
 "note_on channel=8 note=28 velocity=0 time=60E1",
 "note_on channel=8 note=28 velocity=127 time=0E1",
 "note_on channel=8 note=28 velocity=0 time=60E1",
 "note_on channel=8 note=28 velocity=127 time=0E1",
 "note_on channel=8 note=28 velocity=0 time=60E1",
 "note_on channel=8 note=28 velocity=127 time=0E1",
 "note_on channel=8 note=28 velocity=0 time=60E1",
 "note_on channel=8 note=28 velocity=127 time=0E1",
 "note_on channel=8 note=28 velocity=0 time=60E1",
 "note_on channel=8 note=28 velocity=127 time=0E1",
 "note_on channel=8 note=28 velocity=0 time=60E1",
 "note_on channel=8 note=28 velocity=127 time=0E1",
 "note_on channel=8 note=28 velocity=0 time=60E1",
 "note_on channel=8 note=28 velocity=127 time=0E1",
 "note_on channel=8 note=28 velocity=0 time=60E1",
 "note_on channel=8 note=28 velocity=127 time=0E1",
 "note_on channel=8 note=28 velocity=0 time=60E1",
 "note_on channel=8 note=31 velocity=127 time=0G1",
 "note_on channel=8 note=31 velocity=0 time=60G1",
 "note_on channel=8 note=33 velocity=127 time=0A1",
 "note_on channel=8 note=33 velocity=0 time=60A1",
 "note_on channel=8 note=31 velocity=127 time=0G1",
 "note_on channel=8 note=31 velocity=0 time=60G1",
 "note_on channel=8 note=33 velocity=127 time=0A1",
 "note_on channel=8 note=33 velocity=0 time=60A1",
 "note_on channel=8 note=28 velocity=127 time=0E1",
 "note_on channel=8 note=28 velocity=0 time=60E1",
 "note_on channel=8 note=28 velocity=127 time=0E1",
 "note_on channel=8 note=28 velocity=0 time=60E1",
 "note_on channel=8 note=28 velocity=127 time=0E1",
 "note_on channel=8 note=28 velocity=0 time=60E1",
 "note_on channel=8 note=28 velocity=127 time=0E1",
 "note_on channel=8 note=28 velocity=0 time=60E1",
 "note_on channel=8 note=28 velocity=127 time=0E1",
 "note_on channel=8 note=28 velocity=0 time=60E1",
 "note_on channel=8 note=28 velocity=127 time=0E1",
 "note_on channel=8 note=28 velocity=0 time=60E1",
 "note_on channel=8 note=28 velocity=127 time=0E1",
 "note_on channel=8 note=28 velocity=0 time=60E1",
 "note_on channel=8 note=28 velocity=127 time=0E1",
 "note_on channel=8 note=28 velocity=0 time=60E1",
 "note_on channel=8 note=28 velocity=127 time=0E1",
 "note_on channel=8 note=28 velocity=0 time=60E1",
 "note_on channel=8 note=31 velocity=127 time=0G1",
 "note_on channel=8 note=31 velocity=0 time=60G1",
 "note_on channel=8 note=33 velocity=127 time=0A1",
 "note_on channel=8 note=33 velocity=0 time=60A1",
 "note_on channel=8 note=28 velocity=127 time=0E1",
 "note_on channel=8 note=28 velocity=0 time=60E1",
 "note_on channel=8 note=34 velocity=127 time=0BFLAT1",
 "note_on channel=8 note=34 velocity=0 time=60BFLAT1",
 "note_on channel=8 note=33 velocity=127 time=0A1",
 "note_on channel=8 note=33 velocity=0 time=60A1",
 "note_on channel=8 note=31 velocity=127 time=0G1",
 "note_on channel=8 note=31 velocity=0 time=60G1",
 "note_on channel=8 note=33 velocity=127 time=0A1",
 "note_on channel=8 note=33 velocity=0 time=60A1",
 "note_on channel=8 note=28 velocity=127 time=0E1",
 "note_on channel=8 note=28 velocity=0 time=60E1",
 "note_on channel=8 note=28 velocity=127 time=0E1",
 "note_on channel=8 note=28 velocity=0 time=60E1",
 "note_on channel=8 note=28 velocity=127 time=0E1",
 "note_on channel=8 note=28 velocity=0 time=60E1",
 "note_on channel=8 note=28 velocity=127 time=0E1",
 "note_on channel=8 note=28 velocity=0 time=60E1",
 "note_on channel=8 note=28 velocity=127 time=0E1",
 "note_on channel=8 note=28 velocity=0 time=60E1",
 "note_on channel=8 note=28 velocity=127 time=0E1",
 "note_on channel=8 note=28 velocity=0 time=60E1",
 "note_on channel=8 note=28 velocity=127 time=0E1",
 "note_on channel=8 note=28 velocity=0 time=60E1",
 "note_on channel=8 note=28 velocity=127 time=0E1",
 "note_on channel=8 note=28 velocity=0 time=60E1",
 "note_on channel=8 note=28 velocity=127 time=0E1",
 "note_on channel=8 note=28 velocity=0 time=60E1",
 "note_on channel=8 note=31 velocity=127 time=0G1",
 "note_on channel=8 note=31 velocity=0 time=60G1",
 "note_on channel=8 note=33 velocity=127 time=0A1",
 "note_on channel=8 note=33 velocity=0 time=60A1",
 "note_on channel=8 note=31 velocity=127 time=0G1",
 "note_on channel=8 note=31 velocity=0 time=60G1",
 "note_on channel=8 note=33 velocity=127 time=0A1",
 "note_on channel=8 note=33 velocity=0 time=60A1",
 "note_on channel=8 note=28 velocity=127 time=0E1",
 "note_on channel=8 note=28 velocity=0 time=60E1",
 "note_on channel=8 note=28 velocity=127 time=0E1",
 "note_on channel=8 note=28 velocity=0 time=60E1",
 "note_on channel=8 note=28 velocity=127 time=0E1",
 "note_on channel=8 note=28 velocity=0 time=60E1",
 "note_on channel=8 note=28 velocity=127 time=0E1",
 "note_on channel=8 note=28 velocity=0 time=60E1",
 "note_on channel=8 note=28 velocity=127 time=0E1",
 "note_on channel=8 note=28 velocity=0 time=60E1",
 "note_on channel=8 note=28 velocity=127 time=0E1",
 "note_on channel=8 note=28 velocity=0 time=60E1",
 "note_on channel=8 note=28 velocity=127 time=0E1",
 "note_on channel=8 note=28 velocity=0 time=60E1",
 "note_on channel=8 note=28 velocity=127 time=0E1",
 "note_on channel=8 note=28 velocity=0 time=60E1",
 "note_on channel=8 note=28 velocity=127 time=0E1",
 "note_on channel=8 note=28 velocity=0 time=60E1",
 "note_on channel=8 note=31 velocity=127 time=0G1",
 "note_on channel=8 note=31 velocity=0 time=60G1",
 "note_on channel=8 note=33 velocity=127 time=0A1",
 "note_on channel=8 note=33 velocity=0 time=60A1",
 "note_on channel=8 note=28 velocity=127 time=0E1",
 "note_on channel=8 note=28 velocity=0 time=60E1",
 "note_on channel=8 note=34 velocity=127 time=0BFLAT1",
 "note_on channel=8 note=34 velocity=0 time=60BFLAT1",
 "note_on channel=8 note=33 velocity=127 time=0A1",
 "note_on channel=8 note=33 velocity=0 time=60A1",
 "note_on channel=8 note=31 velocity=127 time=0G1",
 "note_on channel=8 note=31 velocity=0 time=60G1",
 "note_on channel=8 note=33 velocity=127 time=0A1",
 "note_on channel=8 note=33 velocity=0 time=60A1",
 "note_on channel=8 note=28 velocity=127 time=0E1",
 "note_on channel=8 note=28 velocity=0 time=60E1",
 "note_on channel=8 note=28 velocity=127 time=0E1",
 "note_on channel=8 note=28 velocity=0 time=60E1",
 "note_on channel=8 note=28 velocity=127 time=0E1",
 "note_on channel=8 note=28 velocity=0 time=60E1",
 "note_on channel=8 note=28 velocity=127 time=0E1",
 "note_on channel=8 note=28 velocity=0 time=60E1",
 "note_on channel=8 note=28 velocity=127 time=0E1",
 "note_on channel=8 note=28 velocity=0 time=60E1",
 "note_on channel=8 note=28 velocity=127 time=0E1",
 "note_on channel=8 note=28 velocity=0 time=60E1",
 "note_on channel=8 note=28 velocity=127 time=0E1",
 "note_on channel=8 note=28 velocity=0 time=60E1",
 "note_on channel=8 note=28 velocity=127 time=0E1",
 "note_on channel=8 note=28 velocity=0 time=60E1",
 "note_on channel=8 note=28 velocity=127 time=0E1",
 "note_on channel=8 note=28 velocity=0 time=60E1",
 "note_on channel=8 note=31 velocity=127 time=0G1",
 "note_on channel=8 note=31 velocity=0 time=60G1",
 "note_on channel=8 note=33 velocity=127 time=0A1",
 "note_on channel=8 note=33 velocity=0 time=60A1",
 "note_on channel=8 note=31 velocity=127 time=0G1",
 "note_on channel=8 note=31 velocity=0 time=60G1",
 "note_on channel=8 note=33 velocity=127 time=0A1",
 "note_on channel=8 note=33 velocity=0 time=60A1",
 "note_on channel=8 note=30 velocity=127 time=0FSHARP1",
 "note_on channel=8 note=30 velocity=0 time=60FSHARP1",
 "note_on channel=8 note=30 velocity=127 time=0FSHARP1",
 "note_on channel=8 note=30 velocity=0 time=60FSHARP1",
 "note_on channel=8 note=30 velocity=127 time=0FSHARP1",
 "note_on channel=8 note=30 velocity=0 time=60FSHARP1",
 "note_on channel=8 note=30 velocity=127 time=0FSHARP1",
 "note_on channel=8 note=30 velocity=0 time=60FSHARP1",
 "note_on channel=8 note=30 velocity=127 time=0FSHARP1",
 "note_on channel=8 note=30 velocity=0 time=60FSHARP1",
 "note_on channel=8 note=30 velocity=127 time=0FSHARP1",
 "note_on channel=8 note=30 velocity=0 time=60FSHARP1",
 "note_on channel=8 note=30 velocity=127 time=0FSHARP1",
 "note_on channel=8 note=30 velocity=0 time=60FSHARP1",
 "note_on channel=8 note=30 velocity=127 time=0FSHARP1",
 "note_on channel=8 note=30 velocity=0 time=60FSHARP1",
 "note_on channel=8 note=30 velocity=127 time=0FSHARP1",
 "note_on channel=8 note=30 velocity=0 time=60FSHARP1",
 "note_on channel=8 note=33 velocity=127 time=0A1",
 "note_on channel=8 note=33 velocity=0 time=60A1",
 "note_on channel=8 note=35 velocity=127 time=0B1",
 "note_on channel=8 note=35 velocity=0 time=60B1",
 "note_on channel=8 note=36 velocity=127 time=60C2",
 "note_on channel=8 note=36 velocity=0 time=60C2",
 "note_on channel=8 note=35 velocity=127 time=0B1",
 "note_on channel=8 note=35 velocity=0 time=60B1",
 "note_on channel=8 note=33 velocity=127 time=0A1",
 "note_on channel=8 note=33 velocity=0 time=60A1",
 "note_on channel=8 note=35 velocity=127 time=0B1",
 "note_on channel=8 note=35 velocity=0 time=60B1",
 "note_on channel=8 note=30 velocity=127 time=0FSHARP1",
 "note_on channel=8 note=30 velocity=0 time=60FSHARP1",
 "note_on channel=8 note=30 velocity=127 time=0FSHARP1",
 "note_on channel=8 note=30 velocity=0 time=60FSHARP1",
 "note_on channel=8 note=30 velocity=127 time=0FSHARP1",
 "note_on channel=8 note=30 velocity=0 time=60FSHARP1",
 "note_on channel=8 note=30 velocity=127 time=0FSHARP1",
 "note_on channel=8 note=30 velocity=0 time=60FSHARP1",
 "note_on channel=8 note=30 velocity=127 time=0FSHARP1",
 "note_on channel=8 note=30 velocity=0 time=60FSHARP1",
 "note_on channel=8 note=30 velocity=127 time=0FSHARP1",
 "note_on channel=8 note=30 velocity=0 time=60FSHARP1",
 "note_on channel=8 note=30 velocity=127 time=0FSHARP1",
 "note_on channel=8 note=30 velocity=0 time=60FSHARP1",
 "note_on channel=8 note=30 velocity=127 time=0FSHARP1",
 "note_on channel=8 note=30 velocity=0 time=60FSHARP1",
 "note_on channel=8 note=30 velocity=127 time=0FSHARP1",
 "note_on channel=8 note=30 velocity=0 time=60FSHARP1",
 "note_on channel=8 note=33 velocity=127 time=0A1",
 "note_on channel=8 note=33 velocity=0 time=60A1",
 "note_on channel=8 note=35 velocity=127 time=0B1",
 "note_on channel=8 note=35 velocity=0 time=60B1",
 "note_on channel=8 note=33 velocity=127 time=0A1",
 "note_on channel=8 note=33 velocity=0 time=60A1",
 "note_on channel=8 note=35 velocity=127 time=0B1",
 "note_on channel=8 note=35 velocity=0 time=60B1",
 "note_on channel=8 note=30 velocity=127 time=0FSHARP1",
 "note_on channel=8 note=30 velocity=0 time=60FSHARP1",
 "note_on channel=8 note=30 velocity=127 time=0FSHARP1",
 "note_on channel=8 note=30 velocity=0 time=60FSHARP1",
 "note_on channel=8 note=30 velocity=127 time=0FSHARP1",
 "note_on channel=8 note=30 velocity=0 time=60FSHARP1",
 "note_on channel=8 note=30 velocity=127 time=0FSHARP1",
 "note_on channel=8 note=30 velocity=0 time=60FSHARP1",
 "note_on channel=8 note=30 velocity=127 time=0FSHARP1",
 "note_on channel=8 note=30 velocity=0 time=60FSHARP1",
 "note_on channel=8 note=30 velocity=127 time=0FSHARP1",
 "note_on channel=8 note=30 velocity=0 time=60FSHARP1",
 "note_on channel=8 note=30 velocity=127 time=0FSHARP1",
 "note_on channel=8 note=30 velocity=0 time=60FSHARP1",
 "note_on channel=8 note=30 velocity=127 time=0FSHARP1",
 "note_on channel=8 note=30 velocity=0 time=60FSHARP1",
 "note_on channel=8 note=30 velocity=127 time=0FSHARP1",
 "note_on channel=8 note=30 velocity=0 time=60FSHARP1",
 "note_on channel=8 note=33 velocity=127 time=0A1",
 "note_on channel=8 note=33 velocity=0 time=60A1",
 "note_on channel=8 note=35 velocity=127 time=0B1",
 "note_on channel=8 note=35 velocity=0 time=60B1",
 "note_on channel=8 note=36 velocity=127 time=60C2",
 "note_on channel=8 note=36 velocity=0 time=60C2",
 "note_on channel=8 note=35 velocity=127 time=0B1",
 "note_on channel=8 note=35 velocity=0 time=60B1",
 "note_on channel=8 note=33 velocity=127 time=0A1",
 "note_on channel=8 note=33 velocity=0 time=60A1",
 "note_on channel=8 note=35 velocity=127 time=0B1",
 "note_on channel=8 note=35 velocity=0 time=60B1",
 "note_on channel=8 note=30 velocity=127 time=0FSHARP1",
 "note_on channel=8 note=30 velocity=0 time=60FSHARP1",
 "note_on channel=8 note=30 velocity=127 time=0FSHARP1",
 "note_on channel=8 note=30 velocity=0 time=60FSHARP1",
 "note_on channel=8 note=30 velocity=127 time=0FSHARP1",
 "note_on channel=8 note=30 velocity=0 time=60FSHARP1",
 "note_on channel=8 note=30 velocity=127 time=0FSHARP1",
 "note_on channel=8 note=30 velocity=0 time=60FSHARP1",
 "note_on channel=8 note=30 velocity=127 time=0FSHARP1",
 "note_on channel=8 note=30 velocity=0 time=60FSHARP1",
 "note_on channel=8 note=30 velocity=127 time=0FSHARP1",
 "note_on channel=8 note=30 velocity=0 time=60FSHARP1",
 "note_on channel=8 note=30 velocity=127 time=0FSHARP1",
 "note_on channel=8 note=30 velocity=0 time=60FSHARP1",
 "note_on channel=8 note=30 velocity=127 time=0FSHARP1",
 "note_on channel=8 note=30 velocity=0 time=60FSHARP1",
 "note_on channel=8 note=30 velocity=127 time=0FSHARP1",
 "note_on channel=8 note=30 velocity=0 time=60FSHARP1",
 "note_on channel=8 note=33 velocity=127 time=0A1",
 "note_on channel=8 note=33 velocity=0 time=60A1",
 "note_on channel=8 note=35 velocity=127 time=0B1",
 "note_on channel=8 note=35 velocity=0 time=60B1",
 "note_on channel=8 note=33 velocity=127 time=0A1",
 "note_on channel=8 note=33 velocity=0 time=60A1",
 "note_on channel=8 note=35 velocity=127 time=0B1",
 "note_on channel=8 note=35 velocity=0 time=60B1",
 "note_on channel=8 note=35 velocity=127 time=0B1",
 "note_on channel=8 note=35 velocity=0 time=60B1",
 "note_on channel=8 note=35 velocity=127 time=0B1",
 "note_on channel=8 note=35 velocity=0 time=60B1",
 "note_on channel=8 note=35 velocity=127 time=0B1",
 "note_on channel=8 note=35 velocity=0 time=60B1",
 "note_on channel=8 note=35 velocity=127 time=0B1",
 "note_on channel=8 note=35 velocity=0 time=60B1",
 "note_on channel=8 note=35 velocity=127 time=0B1",
 "note_on channel=8 note=35 velocity=0 time=60B1",
 "note_on channel=8 note=35 velocity=127 time=0B1",
 "note_on channel=8 note=35 velocity=0 time=60B1",
 "note_on channel=8 note=35 velocity=127 time=0B1",
 "note_on channel=8 note=35 velocity=0 time=60B1",
 "note_on channel=8 note=35 velocity=127 time=0B1",
 "note_on channel=8 note=35 velocity=0 time=60B1",
 "note_on channel=8 note=40 velocity=127 time=0E2",
 "note_on channel=8 note=40 velocity=0 time=60E2",
 "note_on channel=8 note=28 velocity=127 time=0E1",
 "note_on channel=8 note=28 velocity=0 time=60E1",
 "note_on channel=8 note=28 velocity=127 time=0E1",
 "note_on channel=8 note=28 velocity=0 time=60E1",
 "note_on channel=8 note=28 velocity=127 time=0E1",
 "note_on channel=8 note=28 velocity=0 time=60E1",
 "note_on channel=8 note=38 velocity=127 time=0D2",
 "note_on channel=8 note=38 velocity=0 time=120D2",
 "note_on channel=8 note=40 velocity=127 time=0E2",
 "note_on channel=8 note=40 velocity=0 time=120E2",
 "note_on channel=8 note=28 velocity=127 time=0E1",
 "note_on channel=8 note=28 velocity=0 time=180E1",
 "note_on channel=8 note=30 velocity=127 time=0FSHARP1",
 "note_on channel=8 note=30 velocity=0 time=60FSHARP1",
 "note_on channel=8 note=31 velocity=127 time=0G1",
 "note_on channel=8 note=31 velocity=0 time=240G1",
 "note_on channel=8 note=36 velocity=127 time=0C2",
 "note_on channel=8 note=36 velocity=0 time=60C2",
 "note_on channel=8 note=36 velocity=127 time=0C2",
 "note_on channel=8 note=36 velocity=0 time=60C2",
 "note_on channel=8 note=36 velocity=127 time=0C2",
 "note_on channel=8 note=36 velocity=0 time=60C2",
 "note_on channel=8 note=36 velocity=127 time=0C2",
 "note_on channel=8 note=36 velocity=0 time=60C2",
 "note_on channel=8 note=36 velocity=127 time=0C2",
 "note_on channel=8 note=36 velocity=0 time=120C2",
 "note_on channel=8 note=35 velocity=127 time=0B1",
 "note_on channel=8 note=35 velocity=0 time=120B1",
 "note_on channel=8 note=36 velocity=127 time=0C2",
 "note_on channel=8 note=36 velocity=0 time=60C2",
 "note_on channel=8 note=36 velocity=127 time=0C2",
 "note_on channel=8 note=36 velocity=0 time=60C2",
 "note_on channel=8 note=36 velocity=127 time=0C2",
 "note_on channel=8 note=36 velocity=0 time=60C2",
 "note_on channel=8 note=36 velocity=127 time=0C2",
 "note_on channel=8 note=36 velocity=0 time=60C2",
 "note_on channel=8 note=39 velocity=127 time=0DSHARP2",
 "note_on channel=8 note=39 velocity=0 time=120DSHARP2",
 "note_on channel=8 note=35 velocity=127 time=0B1",
 "note_on channel=8 note=35 velocity=0 time=120B1",
 "note_on channel=8 note=40 velocity=127 time=0E2",
 "note_on channel=8 note=40 velocity=0 time=60E2",
 "note_on channel=8 note=28 velocity=127 time=0E1",
 "note_on channel=8 note=28 velocity=0 time=60E1",
 "note_on channel=8 note=28 velocity=127 time=0E1",
 "note_on channel=8 note=28 velocity=0 time=60E1",
 "note_on channel=8 note=28 velocity=127 time=0E1",
 "note_on channel=8 note=28 velocity=0 time=60E1",
 "note_on channel=8 note=38 velocity=127 time=0D2",
 "note_on channel=8 note=38 velocity=0 time=120D2",
 "note_on channel=8 note=40 velocity=127 time=0E2",
 "note_on channel=8 note=40 velocity=0 time=120E2",
 "note_on channel=8 note=28 velocity=127 time=0E1",
 "note_on channel=8 note=28 velocity=0 time=180E1",
 "note_on channel=8 note=30 velocity=127 time=0FSHARP1",
 "note_on channel=8 note=30 velocity=0 time=60FSHARP1",
 "note_on channel=8 note=31 velocity=127 time=0G1",
 "note_on channel=8 note=31 velocity=0 time=240G1",
 "note_on channel=8 note=36 velocity=127 time=0C2",
 "note_on channel=8 note=36 velocity=0 time=60C2",
 "note_on channel=8 note=36 velocity=127 time=0C2",
 "note_on channel=8 note=36 velocity=0 time=60C2",
 "note_on channel=8 note=36 velocity=127 time=0C2",
 "note_on channel=8 note=36 velocity=0 time=60C2",
 "note_on channel=8 note=36 velocity=127 time=0C2",
 "note_on channel=8 note=36 velocity=0 time=60C2",
 "note_on channel=8 note=36 velocity=127 time=0C2",
 "note_on channel=8 note=36 velocity=0 time=120C2",
 "note_on channel=8 note=35 velocity=127 time=0B1",
 "note_on channel=8 note=35 velocity=0 time=120B1",
 "note_on channel=8 note=36 velocity=127 time=0C2",
 "note_on channel=8 note=36 velocity=0 time=60C2",
 "note_on channel=8 note=36 velocity=127 time=0C2",
 "note_on channel=8 note=36 velocity=0 time=60C2",
 "note_on channel=8 note=36 velocity=127 time=0C2",
 "note_on channel=8 note=36 velocity=0 time=60C2",
 "note_on channel=8 note=36 velocity=127 time=0C2",
 "note_on channel=8 note=36 velocity=0 time=60C2",
 "note_on channel=8 note=39 velocity=127 time=0DSHARP2",
 "note_on channel=8 note=39 velocity=0 time=120DSHARP2",
 "note_on channel=8 note=35 velocity=127 time=0B1",
 "note_on channel=8 note=35 velocity=0 time=120B1",
 "note_on channel=8 note=40 velocity=127 time=0E2",
 "note_on channel=8 note=40 velocity=0 time=60E2",
 "note_on channel=8 note=28 velocity=127 time=0E1",
 "note_on channel=8 note=28 velocity=0 time=60E1",
 "note_on channel=8 note=28 velocity=127 time=0E1",
 "note_on channel=8 note=28 velocity=0 time=60E1",
 "note_on channel=8 note=28 velocity=127 time=0E1",
 "note_on channel=8 note=28 velocity=0 time=60E1",
 "note_on channel=8 note=38 velocity=127 time=0D2",
 "note_on channel=8 note=38 velocity=0 time=120D2",
 "note_on channel=8 note=40 velocity=127 time=0E2",
 "note_on channel=8 note=40 velocity=0 time=120E2",
 "note_on channel=8 note=28 velocity=127 time=0E1",
 "note_on channel=8 note=28 velocity=0 time=180E1",
 "note_on channel=8 note=30 velocity=127 time=0FSHARP1",
 "note_on channel=8 note=30 velocity=0 time=60FSHARP1",
 "note_on channel=8 note=31 velocity=127 time=0G1",
 "note_on channel=8 note=31 velocity=0 time=240G1",
 "note_on channel=8 note=36 velocity=127 time=0C2",
 "note_on channel=8 note=36 velocity=0 time=60C2",
 "note_on channel=8 note=36 velocity=127 time=0C2",
 "note_on channel=8 note=36 velocity=0 time=60C2",
 "note_on channel=8 note=36 velocity=127 time=0C2",
 "note_on channel=8 note=36 velocity=0 time=60C2",
 "note_on channel=8 note=36 velocity=127 time=0C2",
 "note_on channel=8 note=36 velocity=0 time=60C2",
 "note_on channel=8 note=36 velocity=127 time=0C2",
 "note_on channel=8 note=36 velocity=0 time=120C2",
 "note_on channel=8 note=35 velocity=127 time=0B1",
 "note_on channel=8 note=35 velocity=0 time=120B1",
 "note_on channel=8 note=36 velocity=127 time=0C2",
 "note_on channel=8 note=36 velocity=0 time=60C2",
 "note_on channel=8 note=36 velocity=127 time=0C2",
 "note_on channel=8 note=36 velocity=0 time=60C2",
 "note_on channel=8 note=36 velocity=127 time=0C2",
 "note_on channel=8 note=36 velocity=0 time=60C2",
 "note_on channel=8 note=36 velocity=127 time=0C2",
 "note_on channel=8 note=36 velocity=0 time=60C2",
 "note_on channel=8 note=39 velocity=127 time=0DSHARP2",
 "note_on channel=8 note=39 velocity=0 time=120DSHARP2",
 "note_on channel=8 note=35 velocity=127 time=0B1",
 "note_on channel=8 note=35 velocity=0 time=120B1",
 "note_on channel=8 note=40 velocity=127 time=0E2",
 "note_on channel=8 note=40 velocity=0 time=60E2",
 "note_on channel=8 note=28 velocity=127 time=0E1",
 "note_on channel=8 note=28 velocity=0 time=60E1",
 "note_on channel=8 note=28 velocity=127 time=0E1",
 "note_on channel=8 note=28 velocity=0 time=60E1",
 "note_on channel=8 note=28 velocity=127 time=0E1",
 "note_on channel=8 note=28 velocity=0 time=60E1",
 "note_on channel=8 note=38 velocity=127 time=0D2",
 "note_on channel=8 note=38 velocity=0 time=120D2",
 "note_on channel=8 note=40 velocity=127 time=0E2",
 "note_on channel=8 note=40 velocity=0 time=120E2",
 "note_on channel=8 note=28 velocity=127 time=0E1",
 "note_on channel=8 note=28 velocity=0 time=180E1",
 "note_on channel=8 note=30 velocity=127 time=0FSHARP1",
 "note_on channel=8 note=30 velocity=0 time=60FSHARP1",
 "note_on channel=8 note=31 velocity=127 time=0G1",
 "note_on channel=8 note=31 velocity=0 time=240G1",
 "note_on channel=8 note=36 velocity=127 time=0C2",
 "note_on channel=8 note=36 velocity=0 time=60C2",
 "note_on channel=8 note=36 velocity=127 time=0C2",
 "note_on channel=8 note=36 velocity=0 time=60C2",
 "note_on channel=8 note=36 velocity=127 time=0C2",
 "note_on channel=8 note=36 velocity=0 time=60C2",
 "note_on channel=8 note=36 velocity=127 time=0C2",
 "note_on channel=8 note=36 velocity=0 time=60C2",
 "note_on channel=8 note=36 velocity=127 time=0C2",
 "note_on channel=8 note=36 velocity=0 time=120C2",
 "note_on channel=8 note=35 velocity=127 time=0B1",
 "note_on channel=8 note=35 velocity=0 time=120B1",
 "note_on channel=8 note=42 velocity=127 time=0FSHARP2",
 "note_on channel=8 note=42 velocity=0 time=60FSHARP2",
 "note_on channel=8 note=40 velocity=127 time=0E2",
 "note_on channel=8 note=40 velocity=0 time=60E2",
 "note_on channel=8 note=39 velocity=127 time=0DSHARP2",
 "note_on channel=8 note=39 velocity=0 time=60DSHARP2",
 "note_on channel=8 note=39 velocity=127 time=60DSHARP2",
 "note_on channel=8 note=39 velocity=0 time=60DSHARP2",
 "note_on channel=8 note=36 velocity=127 time=0C2",
 "note_on channel=8 note=36 velocity=0 time=60C2",
 "note_on channel=8 note=35 velocity=127 time=0B1",
 "note_on channel=8 note=35 velocity=0 time=60B1",
 "note_on channel=8 note=28 velocity=127 time=60E1",
 "note_on channel=8 note=28 velocity=0 time=120E1",
 "note_on channel=8 note=28 velocity=127 time=0E1",
 "note_on channel=8 note=28 velocity=0 time=120E1",
 "note_on channel=8 note=29 velocity=127 time=240F1",
 "note_on channel=8 note=29 velocity=0 time=120F1",
 "note_on channel=8 note=29 velocity=127 time=0F1",
 "note_on channel=8 note=29 velocity=0 time=120F1",
 "note_on channel=8 note=28 velocity=127 time=240E1",
 "note_on channel=8 note=28 velocity=0 time=360E1",
 "note_on channel=8 note=28 velocity=127 time=0E1",
 "note_on channel=8 note=28 velocity=0 time=60E1",
 "note_on channel=8 note=28 velocity=127 time=0E1",
 "note_on channel=8 note=28 velocity=0 time=60E1",
 "note_on channel=8 note=30 velocity=127 time=0FSHARP1",
 "note_on channel=8 note=30 velocity=0 time=60FSHARP1",
 "note_on channel=8 note=28 velocity=127 time=0E1",
 "note_on channel=8 note=28 velocity=0 time=60E1",
 "note_on channel=8 note=28 velocity=127 time=0E1",
 "note_on channel=8 note=28 velocity=0 time=60E1",
 "note_on channel=8 note=28 velocity=127 time=0E1",
 "note_on channel=8 note=28 velocity=0 time=60E1",
 "note_on channel=8 note=31 velocity=127 time=0G1",
 "note_on channel=8 note=31 velocity=0 time=120G1",
 "note_on channel=8 note=31 velocity=127 time=0G1",
 "note_on channel=8 note=31 velocity=0 time=60G1",
 "note_on channel=8 note=31 velocity=127 time=0G1",
 "note_on channel=8 note=31 velocity=0 time=120G1",
 "note_on channel=8 note=31 velocity=127 time=0G1",
 "note_on channel=8 note=31 velocity=0 time=60G1",
 "note_on channel=8 note=31 velocity=127 time=0G1",
 "note_on channel=8 note=31 velocity=0 time=120G1",
 "note_on channel=8 note=31 velocity=127 time=0G1",
 "note_on channel=8 note=31 velocity=0 time=60G1",
 "note_on channel=8 note=31 velocity=127 time=0G1",
 "note_on channel=8 note=31 velocity=0 time=60G1",
 "note_on channel=8 note=31 velocity=127 time=0G1",
 "note_on channel=8 note=31 velocity=0 time=60G1",
 "note_on channel=8 note=31 velocity=127 time=0G1",
 "note_on channel=8 note=31 velocity=0 time=60G1",
 "note_on channel=8 note=31 velocity=127 time=0G1",
 "note_on channel=8 note=31 velocity=0 time=60G1",
 "note_on channel=8 note=31 velocity=127 time=0G1",
 "note_on channel=8 note=31 velocity=0 time=30G1",
 "note_on channel=8 note=31 velocity=127 time=0G1",
 "note_on channel=8 note=31 velocity=0 time=30G1",
 "note_on channel=8 note=31 velocity=127 time=0G1",
 "note_on channel=8 note=31 velocity=0 time=120G1",
 "note_on channel=8 note=36 velocity=127 time=0C2",
 "note_on channel=8 note=36 velocity=0 time=120C2",
 "note_on channel=8 note=35 velocity=127 time=0B1",
 "note_on channel=8 note=35 velocity=0 time=60B1",
 "note_on channel=8 note=36 velocity=127 time=0C2",
 "note_on channel=8 note=36 velocity=0 time=60C2",
 "note_on channel=8 note=36 velocity=127 time=0C2",
 "note_on channel=8 note=36 velocity=0 time=60C2",
 "note_on channel=8 note=33 velocity=127 time=0A1",
 "note_on channel=8 note=33 velocity=0 time=60A1",
 "note_on channel=8 note=33 velocity=127 time=0A1",
 "note_on channel=8 note=33 velocity=0 time=60A1",
 "note_on channel=8 note=33 velocity=127 time=0A1",
 "note_on channel=8 note=33 velocity=0 time=60A1",
 "note_on channel=8 note=35 velocity=127 time=0B1",
 "note_on channel=8 note=35 velocity=0 time=60B1",
 "note_on channel=8 note=33 velocity=127 time=0A1",
 "note_on channel=8 note=33 velocity=0 time=60A1",
 "note_on channel=8 note=33 velocity=127 time=0A1",
 "note_on channel=8 note=33 velocity=0 time=60A1",
 "note_on channel=8 note=33 velocity=127 time=0A1",
 "note_on channel=8 note=33 velocity=0 time=60A1",
 "note_on channel=8 note=33 velocity=127 time=0A1",
 "note_on channel=8 note=33 velocity=0 time=120A1",
 "note_on channel=8 note=33 velocity=127 time=0A1",
 "note_on channel=8 note=33 velocity=0 time=120A1",
 "note_on channel=8 note=33 velocity=127 time=0A1",
 "note_on channel=8 note=33 velocity=0 time=60A1",
 "note_on channel=8 note=33 velocity=127 time=0A1",
 "note_on channel=8 note=33 velocity=0 time=60A1",
 "note_on channel=8 note=33 velocity=127 time=0A1",
 "note_on channel=8 note=33 velocity=0 time=600A1",
 "note_on channel=8 note=38 velocity=127 time=0D2",
 "note_on channel=8 note=38 velocity=0 time=300D2",
 "note_on channel=8 note=31 velocity=127 time=0G1",
 "note_on channel=8 note=31 velocity=0 time=60G1",
 "note_on channel=8 note=31 velocity=127 time=0G1",
 "note_on channel=8 note=31 velocity=0 time=60G1",
 "note_on channel=8 note=31 velocity=127 time=0G1",
 "note_on channel=8 note=31 velocity=0 time=60G1",
 "note_on channel=8 note=36 velocity=127 time=0C2",
 "note_on channel=8 note=36 velocity=0 time=60C2",
 "note_on channel=8 note=31 velocity=127 time=0G1",
 "note_on channel=8 note=31 velocity=0 time=60G1",
 "note_on channel=8 note=31 velocity=127 time=0G1",
 "note_on channel=8 note=31 velocity=0 time=60G1",
 "note_on channel=8 note=31 velocity=127 time=0G1",
 "note_on channel=8 note=31 velocity=0 time=60G1",
 "note_on channel=8 note=35 velocity=127 time=0B1",
 "note_on channel=8 note=35 velocity=0 time=120B1",
 "note_on channel=8 note=35 velocity=127 time=0B1",
 "note_on channel=8 note=35 velocity=0 time=60B1",
 "note_on channel=8 note=35 velocity=127 time=0B1",
 "note_on channel=8 note=35 velocity=0 time=120B1",
 "note_on channel=8 note=35 velocity=127 time=0B1",
 "note_on channel=8 note=35 velocity=0 time=60B1",
 "note_on channel=8 note=39 velocity=127 time=0DSHARP2",
 "note_on channel=8 note=39 velocity=0 time=120DSHARP2",
 "note_on channel=8 note=40 velocity=127 time=0E2",
 "note_on channel=8 note=40 velocity=0 time=300E2",
 "note_on channel=8 note=40 velocity=127 time=0E2",
 "note_on channel=8 note=40 velocity=0 time=60E2",
 "note_on channel=8 note=40 velocity=127 time=0E2",
 "note_on channel=8 note=40 velocity=0 time=60E2",
 "note_on channel=8 note=40 velocity=127 time=0E2",
 "note_on channel=8 note=40 velocity=0 time=60E2",
 "note_on channel=8 note=38 velocity=127 time=0D2",
 "note_on channel=8 note=38 velocity=0 time=120D2",
 "note_on channel=8 note=28 velocity=127 time=0E1",
 "note_on channel=8 note=28 velocity=0 time=60E1",
 "note_on channel=8 note=28 velocity=127 time=0E1",
 "note_on channel=8 note=28 velocity=0 time=60E1",
 "note_on channel=8 note=36 velocity=127 time=0C2",
 "note_on channel=8 note=36 velocity=0 time=120C2",
 "note_on channel=8 note=36 velocity=127 time=0C2",
 "note_on channel=8 note=36 velocity=0 time=60C2",
 "note_on channel=8 note=36 velocity=127 time=0C2",
 "note_on channel=8 note=36 velocity=0 time=120C2",
 "note_on channel=8 note=36 velocity=127 time=0C2",
 "note_on channel=8 note=36 velocity=0 time=60C2",
 "note_on channel=8 note=36 velocity=127 time=0C2",
 "note_on channel=8 note=36 velocity=0 time=120C2",
 "note_on channel=8 note=36 velocity=127 time=0C2",
 "note_on channel=8 note=36 velocity=0 time=60C2",
 "note_on channel=8 note=36 velocity=127 time=0C2",
 "note_on channel=8 note=36 velocity=0 time=60C2",
 "note_on channel=8 note=36 velocity=127 time=0C2",
 "note_on channel=8 note=36 velocity=0 time=120C2",
 "note_on channel=8 note=28 velocity=127 time=0E1",
 "note_on channel=8 note=28 velocity=0 time=120E1",
 "note_on channel=8 note=28 velocity=127 time=0E1",
 "note_on channel=8 note=28 velocity=0 time=120E1",
 "note_on channel=8 note=29 velocity=127 time=240F1",
 "note_on channel=8 note=29 velocity=0 time=120F1",
 "note_on channel=8 note=29 velocity=127 time=0F1",
 "note_on channel=8 note=29 velocity=0 time=120F1",
 "note_on channel=8 note=28 velocity=127 time=240E1",
 "note_on channel=8 note=28 velocity=0 time=300E1",
 "note_on channel=8 note=28 velocity=127 time=0E1",
 "note_on channel=8 note=28 velocity=0 time=60E1",
 "note_on channel=8 note=28 velocity=127 time=0E1",
 "note_on channel=8 note=28 velocity=0 time=60E1",
 "note_on channel=8 note=28 velocity=127 time=0E1",
 "note_on channel=8 note=28 velocity=0 time=60E1",
 "note_on channel=8 note=30 velocity=127 time=0FSHARP1",
 "note_on channel=8 note=30 velocity=0 time=60FSHARP1",
 "note_on channel=8 note=28 velocity=127 time=0E1",
 "note_on channel=8 note=28 velocity=0 time=60E1",
 "note_on channel=8 note=28 velocity=127 time=0E1",
 "note_on channel=8 note=28 velocity=0 time=60E1",
 "note_on channel=8 note=28 velocity=127 time=0E1",
 "note_on channel=8 note=28 velocity=0 time=60E1",
 "note_on channel=8 note=36 velocity=127 time=0C2",
 "note_on channel=8 note=36 velocity=0 time=120C2",
 "note_on channel=8 note=36 velocity=127 time=0C2",
 "note_on channel=8 note=36 velocity=0 time=60C2",
 "note_on channel=8 note=36 velocity=127 time=0C2",
 "note_on channel=8 note=36 velocity=0 time=120C2",
 "note_on channel=8 note=36 velocity=127 time=0C2",
 "note_on channel=8 note=36 velocity=0 time=60C2",
 "note_on channel=8 note=36 velocity=127 time=0C2",
 "note_on channel=8 note=36 velocity=0 time=120C2",
 "note_on channel=8 note=36 velocity=127 time=0C2",
 "note_on channel=8 note=36 velocity=0 time=60C2",
 "note_on channel=8 note=36 velocity=127 time=0C2",
 "note_on channel=8 note=36 velocity=0 time=60C2",
 "note_on channel=8 note=35 velocity=127 time=0B1",
 "note_on channel=8 note=35 velocity=0 time=60B1",
 "note_on channel=8 note=35 velocity=127 time=0B1",
 "note_on channel=8 note=35 velocity=0 time=60B1",
 "note_on channel=8 note=33 velocity=127 time=0A1",
 "note_on channel=8 note=33 velocity=0 time=60A1",
 "note_on channel=8 note=33 velocity=127 time=0A1",
 "note_on channel=8 note=33 velocity=0 time=60A1",
 "note_on channel=8 note=31 velocity=127 time=0G1",
 "note_on channel=8 note=31 velocity=0 time=60G1",
 "note_on channel=8 note=31 velocity=127 time=0G1",
 "note_on channel=8 note=31 velocity=0 time=60G1",
 "note_on channel=8 note=28 velocity=127 time=0E1",
 "note_on channel=8 note=28 velocity=0 time=120E1",
 "note_on channel=8 note=28 velocity=127 time=0E1",
 "note_on channel=8 note=28 velocity=0 time=120E1",
 "note_on channel=8 note=29 velocity=127 time=240F1",
 "note_on channel=8 note=29 velocity=0 time=120F1",
 "note_on channel=8 note=29 velocity=127 time=0F1",
 "note_on channel=8 note=29 velocity=0 time=120F1",
 "note_on channel=8 note=28 velocity=127 time=240E1",
 "note_on channel=8 note=28 velocity=0 time=60E1",
 "note_on channel=8 note=28 velocity=127 time=0E1",
 "note_on channel=8 note=28 velocity=0 time=60E1",
 "note_on channel=8 note=28 velocity=127 time=0E1",
 "note_on channel=8 note=28 velocity=0 time=60E1",
 "note_on channel=8 note=28 velocity=127 time=0E1",
 "note_on channel=8 note=28 velocity=0 time=60E1",
 "note_on channel=8 note=28 velocity=127 time=0E1",
 "note_on channel=8 note=28 velocity=0 time=60E1",
 "note_on channel=8 note=28 velocity=127 time=0E1",
 "note_on channel=8 note=28 velocity=0 time=60E1",
 "note_on channel=8 note=28 velocity=127 time=0E1",
 "note_on channel=8 note=28 velocity=0 time=60E1",
 "note_on channel=8 note=28 velocity=127 time=0E1",
 "note_on channel=8 note=28 velocity=0 time=60E1",
 "note_on channel=8 note=28 velocity=127 time=0E1",
 "note_on channel=8 note=28 velocity=0 time=60E1",
 "note_on channel=8 note=31 velocity=127 time=0G1",
 "note_on channel=8 note=31 velocity=0 time=60G1",
 "note_on channel=8 note=33 velocity=127 time=0A1",
 "note_on channel=8 note=33 velocity=0 time=60A1",
 "note_on channel=8 note=28 velocity=127 time=0E1",
 "note_on channel=8 note=28 velocity=0 time=60E1",
 "note_on channel=8 note=34 velocity=127 time=0BFLAT1",
 "note_on channel=8 note=34 velocity=0 time=60BFLAT1",
 "note_on channel=8 note=33 velocity=127 time=0A1",
 "note_on channel=8 note=33 velocity=0 time=60A1",
 "note_on channel=8 note=31 velocity=127 time=0G1",
 "note_on channel=8 note=31 velocity=0 time=60G1",
 "note_on channel=8 note=33 velocity=127 time=0A1",
 "note_on channel=8 note=33 velocity=0 time=60A1",
 "note_on channel=8 note=28 velocity=127 time=0E1",
 "note_on channel=8 note=28 velocity=0 time=60E1",
 "note_on channel=8 note=28 velocity=127 time=0E1",
 "note_on channel=8 note=28 velocity=0 time=60E1",
 "note_on channel=8 note=28 velocity=127 time=0E1",
 "note_on channel=8 note=28 velocity=0 time=60E1",
 "note_on channel=8 note=28 velocity=127 time=0E1",
 "note_on channel=8 note=28 velocity=0 time=60E1",
 "note_on channel=8 note=28 velocity=127 time=0E1",
 "note_on channel=8 note=28 velocity=0 time=60E1",
 "note_on channel=8 note=28 velocity=127 time=0E1",
 "note_on channel=8 note=28 velocity=0 time=60E1",
 "note_on channel=8 note=28 velocity=127 time=0E1",
 "note_on channel=8 note=28 velocity=0 time=60E1",
 "note_on channel=8 note=28 velocity=127 time=0E1",
 "note_on channel=8 note=28 velocity=0 time=60E1",
 "note_on channel=8 note=28 velocity=127 time=0E1",
 "note_on channel=8 note=28 velocity=0 time=60E1",
 "note_on channel=8 note=31 velocity=127 time=0G1",
 "note_on channel=8 note=31 velocity=0 time=60G1",
 "note_on channel=8 note=33 velocity=127 time=0A1",
 "note_on channel=8 note=33 velocity=0 time=60A1",
 "note_on channel=8 note=31 velocity=127 time=0G1",
 "note_on channel=8 note=31 velocity=0 time=60G1",
 "note_on channel=8 note=33 velocity=127 time=0A1",
 "note_on channel=8 note=33 velocity=0 time=60A1",
 "note_on channel=8 note=28 velocity=127 time=0E1",
 "note_on channel=8 note=28 velocity=0 time=60E1",
 "note_on channel=8 note=28 velocity=127 time=0E1",
 "note_on channel=8 note=28 velocity=0 time=60E1",
 "note_on channel=8 note=28 velocity=127 time=0E1",
 "note_on channel=8 note=28 velocity=0 time=60E1",
 "note_on channel=8 note=28 velocity=127 time=0E1",
 "note_on channel=8 note=28 velocity=0 time=60E1",
 "note_on channel=8 note=28 velocity=127 time=0E1",
 "note_on channel=8 note=28 velocity=0 time=60E1",
 "note_on channel=8 note=28 velocity=127 time=0E1",
 "note_on channel=8 note=28 velocity=0 time=60E1",
 "note_on channel=8 note=28 velocity=127 time=0E1",
 "note_on channel=8 note=28 velocity=0 time=60E1",
 "note_on channel=8 note=28 velocity=127 time=0E1",
 "note_on channel=8 note=28 velocity=0 time=60E1",
 "note_on channel=8 note=28 velocity=127 time=0E1",
 "note_on channel=8 note=28 velocity=0 time=60E1",
 "note_on channel=8 note=31 velocity=127 time=0G1",
 "note_on channel=8 note=31 velocity=0 time=60G1",
 "note_on channel=8 note=33 velocity=127 time=0A1",
 "note_on channel=8 note=33 velocity=0 time=60A1",
 "note_on channel=8 note=28 velocity=127 time=0E1",
 "note_on channel=8 note=28 velocity=0 time=60E1",
 "note_on channel=8 note=34 velocity=127 time=0BFLAT1",
 "note_on channel=8 note=34 velocity=0 time=60BFLAT1",
 "note_on channel=8 note=33 velocity=127 time=0A1",
 "note_on channel=8 note=33 velocity=0 time=60A1",
 "note_on channel=8 note=31 velocity=127 time=0G1",
 "note_on channel=8 note=31 velocity=0 time=60G1",
 "note_on channel=8 note=33 velocity=127 time=0A1",
 "note_on channel=8 note=33 velocity=0 time=60A1",
 "note_on channel=8 note=28 velocity=127 time=0E1",
 "note_on channel=8 note=28 velocity=0 time=60E1",
 "note_on channel=8 note=28 velocity=127 time=0E1",
 "note_on channel=8 note=28 velocity=0 time=60E1",
 "note_on channel=8 note=28 velocity=127 time=0E1",
 "note_on channel=8 note=28 velocity=0 time=60E1",
 "note_on channel=8 note=28 velocity=127 time=0E1",
 "note_on channel=8 note=28 velocity=0 time=60E1",
 "note_on channel=8 note=28 velocity=127 time=0E1",
 "note_on channel=8 note=28 velocity=0 time=60E1",
 "note_on channel=8 note=28 velocity=127 time=0E1",
 "note_on channel=8 note=28 velocity=0 time=60E1",
 "note_on channel=8 note=28 velocity=127 time=0E1",
 "note_on channel=8 note=28 velocity=0 time=60E1",
 "note_on channel=8 note=28 velocity=127 time=0E1",
 "note_on channel=8 note=28 velocity=0 time=60E1",
 "note_on channel=8 note=28 velocity=127 time=0E1",
 "note_on channel=8 note=28 velocity=0 time=60E1",
 "note_on channel=8 note=31 velocity=127 time=0G1",
 "note_on channel=8 note=31 velocity=0 time=60G1",
 "note_on channel=8 note=33 velocity=127 time=0A1",
 "note_on channel=8 note=33 velocity=0 time=60A1",
 "note_on channel=8 note=31 velocity=127 time=0G1",
 "note_on channel=8 note=31 velocity=0 time=60G1",
 "note_on channel=8 note=33 velocity=127 time=0A1",
 "note_on channel=8 note=33 velocity=0 time=60A1",
 "note_on channel=8 note=28 velocity=127 time=0E1",
 "note_on channel=8 note=28 velocity=0 time=60E1",
 "note_on channel=8 note=28 velocity=127 time=0E1",
 "note_on channel=8 note=28 velocity=0 time=60E1",
 "note_on channel=8 note=28 velocity=127 time=0E1",
 "note_on channel=8 note=28 velocity=0 time=60E1",
 "note_on channel=8 note=28 velocity=127 time=0E1",
 "note_on channel=8 note=28 velocity=0 time=60E1",
 "note_on channel=8 note=28 velocity=127 time=0E1",
 "note_on channel=8 note=28 velocity=0 time=60E1",
 "note_on channel=8 note=28 velocity=127 time=0E1",
 "note_on channel=8 note=28 velocity=0 time=60E1",
 "note_on channel=8 note=28 velocity=127 time=0E1",
 "note_on channel=8 note=28 velocity=0 time=60E1",
 "note_on channel=8 note=28 velocity=127 time=0E1",
 "note_on channel=8 note=28 velocity=0 time=60E1",
 "note_on channel=8 note=28 velocity=127 time=0E1",
 "note_on channel=8 note=28 velocity=0 time=60E1",
 "note_on channel=8 note=31 velocity=127 time=0G1",
 "note_on channel=8 note=31 velocity=0 time=60G1",
 "note_on channel=8 note=33 velocity=127 time=0A1",
 "note_on channel=8 note=33 velocity=0 time=60A1",
 "note_on channel=8 note=28 velocity=127 time=0E1",
 "note_on channel=8 note=28 velocity=0 time=60E1",
 "note_on channel=8 note=34 velocity=127 time=0BFLAT1",
 "note_on channel=8 note=34 velocity=0 time=60BFLAT1",
 "note_on channel=8 note=33 velocity=127 time=0A1",
 "note_on channel=8 note=33 velocity=0 time=60A1",
 "note_on channel=8 note=31 velocity=127 time=0G1",
 "note_on channel=8 note=31 velocity=0 time=60G1",
 "note_on channel=8 note=33 velocity=127 time=0A1",
 "note_on channel=8 note=33 velocity=0 time=60A1",
 "note_on channel=8 note=28 velocity=127 time=0E1",
 "note_on channel=8 note=28 velocity=0 time=60E1",
 "note_on channel=8 note=28 velocity=127 time=0E1",
 "note_on channel=8 note=28 velocity=0 time=60E1",
 "note_on channel=8 note=28 velocity=127 time=0E1",
 "note_on channel=8 note=28 velocity=0 time=60E1",
 "note_on channel=8 note=28 velocity=127 time=0E1",
 "note_on channel=8 note=28 velocity=0 time=60E1",
 "note_on channel=8 note=28 velocity=127 time=0E1",
 "note_on channel=8 note=28 velocity=0 time=60E1",
 "note_on channel=8 note=28 velocity=127 time=0E1",
 "note_on channel=8 note=28 velocity=0 time=60E1",
 "note_on channel=8 note=28 velocity=127 time=0E1",
 "note_on channel=8 note=28 velocity=0 time=60E1",
 "note_on channel=8 note=28 velocity=127 time=0E1",
 "note_on channel=8 note=28 velocity=0 time=60E1",
 "note_on channel=8 note=28 velocity=127 time=0E1",
 "note_on channel=8 note=28 velocity=0 time=60E1",
 "note_on channel=8 note=31 velocity=127 time=0G1",
 "note_on channel=8 note=31 velocity=0 time=60G1",
 "note_on channel=8 note=33 velocity=127 time=0A1",
 "note_on channel=8 note=33 velocity=0 time=60A1",
 "note_on channel=8 note=31 velocity=127 time=0G1",
 "note_on channel=8 note=31 velocity=0 time=60G1",
 "note_on channel=8 note=33 velocity=127 time=0A1",
 "note_on channel=8 note=33 velocity=0 time=60A1",
 "note_on channel=8 note=28 velocity=127 time=0E1",
 "note_on channel=8 note=28 velocity=0 time=60E1",
 "note_on channel=8 note=28 velocity=127 time=0E1",
 "note_on channel=8 note=28 velocity=0 time=60E1",
 "note_on channel=8 note=28 velocity=127 time=0E1",
 "note_on channel=8 note=28 velocity=0 time=60E1",
 "note_on channel=8 note=28 velocity=127 time=0E1",
 "note_on channel=8 note=28 velocity=0 time=60E1",
 "note_on channel=8 note=28 velocity=127 time=0E1",
 "note_on channel=8 note=28 velocity=0 time=60E1",
 "note_on channel=8 note=28 velocity=127 time=0E1",
 "note_on channel=8 note=28 velocity=0 time=60E1",
 "note_on channel=8 note=28 velocity=127 time=0E1",
 "note_on channel=8 note=28 velocity=0 time=60E1",
 "note_on channel=8 note=28 velocity=127 time=0E1",
 "note_on channel=8 note=28 velocity=0 time=60E1",
 "note_on channel=8 note=28 velocity=127 time=0E1",
 "note_on channel=8 note=28 velocity=0 time=60E1",
 "note_on channel=8 note=31 velocity=127 time=0G1",
 "note_on channel=8 note=31 velocity=0 time=60G1",
 "note_on channel=8 note=33 velocity=127 time=0A1",
 "note_on channel=8 note=33 velocity=0 time=60A1",
 "note_on channel=8 note=28 velocity=127 time=0E1",
 "note_on channel=8 note=28 velocity=0 time=60E1",
 "note_on channel=8 note=34 velocity=127 time=0BFLAT1",
 "note_on channel=8 note=34 velocity=0 time=60BFLAT1",
 "note_on channel=8 note=33 velocity=127 time=0A1",
 "note_on channel=8 note=33 velocity=0 time=60A1",
 "note_on channel=8 note=31 velocity=127 time=0G1",
 "note_on channel=8 note=31 velocity=0 time=60G1",
 "note_on channel=8 note=33 velocity=127 time=0A1",
 "note_on channel=8 note=33 velocity=0 time=60A1",
 "note_on channel=8 note=28 velocity=127 time=0E1",
 "note_on channel=8 note=28 velocity=0 time=60E1",
 "note_on channel=8 note=28 velocity=127 time=0E1",
 "note_on channel=8 note=28 velocity=0 time=60E1",
 "note_on channel=8 note=28 velocity=127 time=0E1",
 "note_on channel=8 note=28 velocity=0 time=60E1",
 "note_on channel=8 note=28 velocity=127 time=0E1",
 "note_on channel=8 note=28 velocity=0 time=60E1",
 "note_on channel=8 note=28 velocity=127 time=0E1",
 "note_on channel=8 note=28 velocity=0 time=60E1",
 "note_on channel=8 note=28 velocity=127 time=0E1",
 "note_on channel=8 note=28 velocity=0 time=60E1",
 "note_on channel=8 note=28 velocity=127 time=0E1",
 "note_on channel=8 note=28 velocity=0 time=60E1",
 "note_on channel=8 note=28 velocity=127 time=0E1",
 "note_on channel=8 note=28 velocity=0 time=60E1",
 "note_on channel=8 note=28 velocity=127 time=0E1",
 "note_on channel=8 note=28 velocity=0 time=60E1",
 "note_on channel=8 note=31 velocity=127 time=0G1",
 "note_on channel=8 note=31 velocity=0 time=60G1",
 "note_on channel=8 note=33 velocity=127 time=0A1",
 "note_on channel=8 note=33 velocity=0 time=60A1",
 "note_on channel=8 note=31 velocity=127 time=0G1",
 "note_on channel=8 note=31 velocity=0 time=60G1",
 "note_on channel=8 note=33 velocity=127 time=0A1",
 "note_on channel=8 note=33 velocity=0 time=60A1",
 "note_on channel=8 note=31 velocity=127 time=480G1",
 "note_on channel=8 note=31 velocity=0 time=60G1",
 "note_on channel=8 note=30 velocity=127 time=0FSHARP1",
 "note_on channel=8 note=30 velocity=0 time=60FSHARP1",
 "note_on channel=8 note=28 velocity=127 time=0E1",
 "note_on channel=8 note=28 velocity=0 time=60E1",
 "note_on channel=8 note=31 velocity=127 time=0G1",
 "note_on channel=8 note=31 velocity=0 time=60G1",
 "note_on channel=8 note=30 velocity=127 time=0FSHARP1",
 "note_on channel=8 note=30 velocity=0 time=60FSHARP1",
 "note_on channel=8 note=28 velocity=127 time=0E1",
 "note_on channel=8 note=28 velocity=0 time=60E1",
 "note_on channel=8 note=31 velocity=127 time=0G1",
 "note_on channel=8 note=31 velocity=0 time=60G1",
 "note_on channel=8 note=30 velocity=127 time=0FSHARP1",
 "note_on channel=8 note=30 velocity=0 time=60FSHARP1",
 "note_on channel=8 note=28 velocity=127 time=0E1",
 "note_on channel=8 note=28 velocity=0 time=480E1",
 "<meta message end_of_track time=0>"
]